STARTFONT 2.1
COMMENT
COMMENT Converted from OpenType font "OpenSans-Light.ttf" by "otf2bdf 3.0".
COMMENT
FONT -FreeType-Open Sans Light-Medium-R-Normal--82-400-149-149-P-393-ISO10646-1
SIZE 40 149 149
FONTBOUNDINGBOX 136 109 -41 -22
STARTPROPERTIES 19
FOUNDRY "FreeType"
FAMILY_NAME "Open Sans Light"
WEIGHT_NAME "Medium"
SLANT "R"
SETWIDTH_NAME "Normal"
ADD_STYLE_NAME ""
PIXEL_SIZE 82
POINT_SIZE 400
RESOLUTION_X 149
RESOLUTION_Y 149
SPACING "P"
AVERAGE_WIDTH 393
CHARSET_REGISTRY "ISO10646"
CHARSET_ENCODING "1"
FONT_ASCENT 88
FONT_DESCENT 24
COPYRIGHT "Digitized data copyright © 2010-2011, Google Corporation."
_OTF_FONTFILE "OpenSans-Light.ttf"
_OTF_PSNAME "OpenSans-Light"
ENDPROPERTIES
CHARS 883
STARTCHAR 0020
ENCODING 32
SWIDTH 265 0
DWIDTH 22 0
BBX 0 0 0 0
BITMAP
ENDCHAR
STARTCHAR 0021
ENCODING 33
SWIDTH 241 0
DWIDTH 20 0
BBX 6 60 7 -1
BITMAP
78
78
78
78
78
78
78
78
78
78
78
78
78
78
78
78
78
78
78
78
78
78
78
78
78
78
78
78
78
78
78
78
78
78
70
30
30
30
30
30
30
30
30
30
00
00
00
00
00
00
00
00
78
FC
FC
FC
FC
FC
FC
78
ENDCHAR
STARTCHAR 0022
ENCODING 34
SWIDTH 350 0
DWIDTH 29 0
BBX 19 21 5 38
BITMAP
F803E0
F803E0
F803E0
7803C0
7803C0
7803C0
7803C0
7803C0
7803C0
7803C0
7803C0
7803C0
7803C0
7803C0
7803C0
7801C0
7001C0
7001C0
7001C0
300180
300180
ENDCHAR
STARTCHAR 0023
ENCODING 35
SWIDTH 652 0
DWIDTH 54 0
BBX 50 59 2 0
BITMAP
00000E0003C000
00001E00038000
00001E00038000
00001E00038000
00001C00078000
00001C00078000
00003C00070000
00003C00070000
00003C00070000
000038000F0000
000038000F0000
000078000E0000
000078000E0000
000078000E0000
000070001E0000
000070001E0000
0000F0001C0000
0000F0001C0000
1FFFFFFFFFFFC0
1FFFFFFFFFFFC0
1FFFFFFFFFFFC0
0000E000380000
0001E000380000
0001E000380000
0001E000780000
0001C000780000
0001C000780000
0003C000700000
0003C000700000
0003C000F00000
00038000F00000
00038000F00000
00078000E00000
00078000E00000
00078001E00000
00070001E00000
00070001E00000
00070001C00000
FFFFFFFFFFFE00
FFFFFFFFFFFE00
FFFFFFFFFFFE00
000E0003C00000
000E0003800000
001E0003800000
001E0007800000
001E0007800000
001C0007800000
001C0007000000
003C0007000000
003C000F000000
003C000F000000
0038000F000000
0038000E000000
0078000E000000
0078001E000000
0078001E000000
0070001E000000
0070001C000000
00F0001C000000
ENDCHAR
STARTCHAR 0024
ENCODING 36
SWIDTH 567 0
DWIDTH 47 0
BBX 33 68 7 -5
BITMAP
0001C00000
0001C00000
0001C00000
0001C00000
0001C00000
0001C00000
0001C00000
0001C00000
000FFE0000
007FFFF000
01FFFFFE00
07FFFFFF00
0FF1C07E00
1F81C00E00
3F01C00000
3E01C00000
7C01C00000
7C01C00000
7801C00000
7801C00000
7801C00000
7801C00000
7801C00000
7801C00000
7C01C00000
7E01C00000
3E01C00000
3F81C00000
1FE1C00000
0FF9C00000
03FFC00000
01FFE00000
003FFC0000
000FFF0000
0001FFC000
0001FFF000
0001C7F800
0001C1FC00
0001C07E00
0001C03E00
0001C01F00
0001C01F00
0001C00F80
0001C00F80
0001C00F80
0001C00F80
0001C00F80
0001C00F80
0001C00F80
0001C01F00
0001C01F00
0001C03E00
8001C07E00
F001C1FC00
FE01C7F800
FFFFFFF000
7FFFFFC000
0FFFFF0000
007FF00000
0001C00000
0001C00000
0001C00000
0001C00000
0001C00000
0001C00000
0001C00000
0001C00000
0001C00000
ENDCHAR
STARTCHAR 0025
ENCODING 37
SWIDTH 809 0
DWIDTH 67 0
BBX 57 61 5 -1
BITMAP
00FC000000000000
03FF8000001E0000
0FFFC000003C0000
1FFFE00000380000
1F03F00000780000
3E00F00000F00000
3C00F80000F00000
7800780001E00000
7800780001E00000
78003C0003C00000
F0003C0003C00000
F0003C0007800000
F0003C0007000000
F0001E000F000000
F0001E001E000000
F0001E001E000000
F0001E003C000000
F0001E003C000000
F0001E0078000000
F0001E0078000000
F0001E00F0000000
F0001E00E0000000
F0001E01E0000000
F0001E03C0000000
F0003C03C03F8000
F0003C0780FFE000
F0003C0781FFF000
78003C0F03FFF800
78007C0F07C07C00
7800781E07803E00
3C00F81C0F001E00
3E00F03C0F000F00
1F03F0781E000F00
0FFFE0781E000F00
07FFC0F01E000780
03FF80F01E000780
00FE01E03C000780
000001E03C000780
000003C03C000780
000003803C000780
000007803C000780
00000F003C000780
00000F003C000780
00001E003C000780
00001E003C000780
00003C003C000780
00003C003C000780
000078003C000780
000070001C000780
0000F0001E000780
0001E0001E000780
0001E0001E000F00
0003C0001E000F00
0003C0000F000F00
000780000F001E00
0007800007803E00
000F000007C07C00
000E000003FFFC00
001E000001FFF800
003C000000FFE000
00000000003F8000
ENDCHAR
STARTCHAR 0026
ENCODING 38
SWIDTH 712 0
DWIDTH 59 0
BBX 52 61 5 -1
BITMAP
0001FF00000000
0007FFE0000000
001FFFF8000000
007FFFFC000000
00FE00FE000000
00F8003F000000
01F0001F000000
01E0000F800000
03E00007800000
03C00007800000
03C00007800000
03C00007C00000
03C00007C00000
03C00007C00000
03C00007800000
03C00007800000
03E0000F800000
01E0000F000000
01F0001F000000
00F0003E000000
00F8007C000000
007C00F8000000
003E01F0000000
001F07E0000000
000F9FC0000000
000FFF00000000
0007FE00000000
0003F800000000
000FF800000000
003FFC00000000
007F7E00000000
01FC3F00000000
03F01F800003C0
07E00FC0000780
0F8007E0000780
1F0003F0000780
3E0001F8000F00
3C0000FC000F00
7C00007E000F00
7800003F001E00
7800001F801E00
F800000FC03C00
F0000007E03C00
F0000003F07800
F0000001F8F800
F0000000FDF000
F00000007FE000
F00000003FE000
F80000001FC000
F80000000FC000
780000001FE000
7C0000003FF000
7C0000007DF800
3E000000F8FC00
1F000003F07E00
1FC0000FE03F00
0FF0007FC01F80
03FFFFFF000FC0
01FFFFFC0007E0
007FFFF00003F0
0007FF00000000
ENDCHAR
STARTCHAR 0027
ENCODING 39
SWIDTH 193 0
DWIDTH 16 0
BBX 6 21 5 38
BITMAP
FC
78
78
78
78
78
78
78
78
78
78
78
78
78
78
78
78
30
30
30
30
ENDCHAR
STARTCHAR 0028
ENCODING 40
SWIDTH 277 0
DWIDTH 23 0
BBX 17 72 3 -13
BITMAP
000F80
000F00
001F00
003E00
007C00
007800
00F800
00F000
01F000
03E000
03E000
03C000
07C000
078000
0F8000
0F0000
0F0000
1F0000
1E0000
1E0000
3E0000
3E0000
3C0000
3C0000
7C0000
7C0000
7C0000
780000
780000
780000
780000
780000
F80000
F80000
F80000
F80000
F80000
F80000
F80000
F80000
F80000
780000
780000
780000
780000
780000
7C0000
7C0000
3C0000
3C0000
3E0000
3E0000
3E0000
1E0000
1F0000
1F0000
0F0000
0F8000
0F8000
07C000
07C000
03E000
03E000
01F000
01F000
00F800
007800
007C00
003E00
001F00
000F00
000F80
ENDCHAR
STARTCHAR 0029
ENCODING 41
SWIDTH 277 0
DWIDTH 23 0
BBX 17 72 3 -13
BITMAP
F00000
780000
7C0000
3E0000
1E0000
0F0000
0F8000
078000
07C000
03C000
03E000
01E000
01F000
00F000
00F800
007800
007800
007C00
003C00
003C00
003E00
003E00
001E00
001E00
001F00
001F00
001F00
000F00
000F00
000F00
000F00
000F00
000F00
000F80
000F80
000F80
000F80
000F80
000F80
000F80
000F00
000F00
000F00
000F00
000F00
001F00
001F00
001F00
001E00
001E00
003E00
003E00
003C00
003C00
007C00
007C00
00F800
00F800
00F000
01F000
01F000
03E000
03E000
07C000
07C000
0F8000
1F0000
1F0000
3E0000
7C0000
780000
F80000
ENDCHAR
STARTCHAR 002A
ENCODING 42
SWIDTH 555 0
DWIDTH 46 0
BBX 38 36 4 27
BITMAP
0000FC0000
0000FC0000
0000FC0000
0000F80000
0000F80000
0000F80000
0000F80000
0000780000
0000780000
0000780000
0000780000
0000780000
4000780008
7C007800F8
7FC0700FF8
7FF870FFF8
FFFFFFFFF8
FFFFFFFFFC
007FFFF800
0000FC0000
0001FC0000
0001DE0000
0003CF0000
00078F8000
000F878000
000F07C000
001F03E000
003E03E000
003E01F000
007C01F800
00FC00FC00
01FC00FC00
01F8007E00
01F8007E00
0070003800
0030002000
ENDCHAR
STARTCHAR 002B
ENCODING 43
SWIDTH 567 0
DWIDTH 47 0
BBX 39 39 4 10
BITMAP
0000380000
0000380000
0000380000
0000380000
0000380000
0000380000
0000380000
0000380000
0000380000
0000380000
0000380000
0000380000
0000380000
0000380000
0000380000
0000380000
0000380000
0000380000
FFFFFFFFFE
FFFFFFFFFE
FFFFFFFFFE
0000380000
0000380000
0000380000
0000380000
0000380000
0000380000
0000380000
0000380000
0000380000
0000380000
0000380000
0000380000
0000380000
0000380000
0000380000
0000380000
0000380000
0000380000
ENDCHAR
STARTCHAR 002C
ENCODING 44
SWIDTH 217 0
DWIDTH 18 0
BBX 9 21 3 -11
BITMAP
0F80
0F80
0F80
0F80
0F80
1F00
1F00
1F00
1E00
1E00
3E00
3C00
3C00
3800
7800
7800
7000
7000
F000
E000
E000
ENDCHAR
STARTCHAR 002D
ENCODING 45
SWIDTH 326 0
DWIDTH 27 0
BBX 19 3 4 21
BITMAP
FFFFE0
FFFFE0
FFFFE0
ENDCHAR
STARTCHAR 002E
ENCODING 46
SWIDTH 241 0
DWIDTH 20 0
BBX 6 8 7 -1
BITMAP
78
FC
FC
FC
FC
FC
FC
78
ENDCHAR
STARTCHAR 002F
ENCODING 47
SWIDTH 338 0
DWIDTH 28 0
BBX 26 59 1 0
BITMAP
000003C0
00000780
00000780
00000F80
00000F00
00000F00
00001F00
00001E00
00001E00
00003E00
00003C00
00003C00
00007800
00007800
0000F800
0000F000
0000F000
0001F000
0001E000
0001E000
0003C000
0003C000
0007C000
00078000
00078000
000F8000
000F0000
000F0000
001F0000
001E0000
001E0000
003C0000
003C0000
007C0000
00780000
00780000
00F80000
00F00000
00F00000
01E00000
01E00000
03E00000
03C00000
03C00000
07C00000
07800000
07800000
0F000000
0F000000
1F000000
1E000000
1E000000
3E000000
3C000000
3C000000
7C000000
78000000
78000000
F0000000
ENDCHAR
STARTCHAR 0030
ENCODING 48
SWIDTH 567 0
DWIDTH 47 0
BBX 37 61 5 -1
BITMAP
0003FE0000
001FFFC000
007FFFE000
00FFFFF800
01FC01FC00
03F0007E00
07C0003F00
0F80001F00
0F80000F80
1F000007C0
1E000007C0
3E000003C0
3E000003E0
3C000001E0
7C000001E0
7C000001F0
78000000F0
78000000F0
F8000000F0
F8000000F8
F8000000F8
F0000000F8
F000000078
F000000078
F000000078
F000000078
F000000078
F000000078
F000000078
F000000078
F000000078
F000000078
F000000078
F000000078
F000000078
F000000078
F000000078
F000000078
F000000078
F0000000F8
F8000000F8
F8000000F8
78000000F8
78000000F0
78000000F0
7C000001F0
7C000001F0
3C000001E0
3C000003E0
3E000003E0
1E000007C0
1F000007C0
0F80000F80
0780001F80
07C0003F00
03F0007E00
01FC01FC00
00FFFFF800
007FFFF000
001FFFC000
0003FE0000
ENDCHAR
STARTCHAR 0031
ENCODING 49
SWIDTH 567 0
DWIDTH 47 0
BBX 19 59 8 0
BITMAP
0001E0
0003E0
0007E0
001FE0
003EE0
007CE0
01F8E0
03F0E0
07C0E0
1F80E0
3F00E0
7E00E0
F801E0
7001E0
2001E0
0001E0
0001E0
0001E0
0001E0
0001E0
0001E0
0001E0
0001E0
0001E0
0001E0
0001E0
0001E0
0001E0
0001E0
0001E0
0001E0
0001E0
0001E0
0001E0
0001E0
0001E0
0001E0
0001E0
0001E0
0001E0
0001E0
0001E0
0001E0
0001E0
0001E0
0001E0
0001E0
0001E0
0001E0
0001E0
0001E0
0001E0
0001E0
0001E0
0001E0
0001E0
0001E0
0001E0
0001E0
ENDCHAR
STARTCHAR 0032
ENCODING 50
SWIDTH 567 0
DWIDTH 47 0
BBX 36 60 5 0
BITMAP
000FFC0000
007FFF8000
01FFFFE000
07FFFFF800
1FE003FC00
3F8000FE00
7E00003E00
3800001F00
1000001F00
0000000F80
0000000780
0000000780
0000000780
00000007C0
00000007C0
00000003C0
00000003C0
00000007C0
00000007C0
0000000780
0000000780
0000000780
0000000F80
0000000F00
0000001F00
0000001E00
0000003E00
0000003C00
0000007C00
000000F800
000000F000
000001F000
000003E000
000007C000
00000F8000
00001F8000
00003F0000
00003E0000
00007C0000
0000F80000
0001F00000
0003E00000
0007C00000
000F800000
001F000000
003E000000
007C000000
00F8000000
01F0000000
03E0000000
07C0000000
0F80000000
1F00000000
3E00000000
7C00000000
F800000000
FFFFFFFFF0
FFFFFFFFF0
FFFFFFFFF0
FFFFFFFFF0
ENDCHAR
STARTCHAR 0033
ENCODING 51
SWIDTH 567 0
DWIDTH 47 0
BBX 37 61 4 -1
BITMAP
0007FF0000
007FFFE000
01FFFFF800
0FFFDFFE00
1FE000FF00
7F80003F00
7C00000F80
78000007C0
20000007C0
00000003E0
00000003E0
00000001E0
00000001E0
00000001E0
00000001E0
00000001E0
00000001E0
00000001E0
00000003E0
00000003E0
00000007C0
00000007C0
0000000F80
0000001F00
0000007E00
000000FC00
00000FF000
007FFFC000
007FFE0000
007FFFC000
007FFFF800
000003FE00
0000007F80
0000001FC0
00000007C0
00000003E0
00000001F0
00000000F0
00000000F0
00000000F8
0000000078
0000000078
0000000078
0000000078
0000000078
0000000078
0000000078
00000000F8
00000000F8
00000000F0
00000001F0
00000001E0
00000003E0
00000007C0
C000000F80
F000003F80
FF0001FE00
FFFFFFFC00
3FFFFFF000
0FFFFFC000
007FFC0000
ENDCHAR
STARTCHAR 0034
ENCODING 52
SWIDTH 567 0
DWIDTH 47 0
BBX 44 59 2 0
BITMAP
0000000FC000
0000000FC000
0000001FC000
0000003FC000
0000003FC000
0000007BC000
000000F3C000
000000F3C000
000001E3C000
000003C3C000
000007C3C000
00000783C000
00000F03C000
00001F03C000
00001E03C000
00003C03C000
00007803C000
0000F803C000
0000F003C000
0001E003C000
0003E003C000
0003C003C000
00078003C000
000F8003C000
000F0003C000
001E0003C000
003C0003C000
007C0003C000
00780003C000
00F00003C000
01F00003C000
01E00003C000
03C00003C000
07800003C000
0F800003C000
0F000003C000
1E000003C000
3E000003C000
3C000003C000
78000003C000
F8000003C000
FFFFFFFFFFF0
FFFFFFFFFFF0
FFFFFFFFFFF0
00000003C000
00000003C000
00000003C000
00000003C000
00000003C000
00000003C000
00000003C000
00000003C000
00000003C000
00000003C000
00000003C000
00000003C000
00000003C000
00000003C000
00000003C000
ENDCHAR
STARTCHAR 0035
ENCODING 53
SWIDTH 567 0
DWIDTH 47 0
BBX 36 60 6 -1
BITMAP
0FFFFFFF00
0FFFFFFF00
0FFFFFFF00
1FFFFFFF00
1F00000000
1F00000000
1E00000000
1E00000000
1E00000000
1E00000000
1E00000000
1E00000000
1E00000000
1E00000000
1E00000000
3E00000000
3E00000000
3E00000000
3C00000000
3C00000000
3C00000000
3C00000000
3C00000000
3C00000000
3C3FF80000
3FFFFF8000
3FFFFFE000
7FFFFFF800
1C0003FC00
000000FE00
0000003F00
0000001F80
0000000FC0
00000007C0
00000003E0
00000003E0
00000001E0
00000001F0
00000001F0
00000000F0
00000000F0
00000000F0
00000000F0
00000000F0
00000001F0
00000001E0
00000001E0
00000001E0
00000003E0
00000007C0
00000007C0
0000000F80
0000001F00
C000003F00
F00000FE00
FE0007FC00
FFFFFFF000
7FFFFFE000
0FFFFF0000
00FFF00000
ENDCHAR
STARTCHAR 0036
ENCODING 54
SWIDTH 567 0
DWIDTH 47 0
BBX 38 61 5 -1
BITMAP
000007FE00
00007FFF80
0001FFFF80
0007FF9F80
001FE00000
003F800000
007E000000
00FC000000
01F0000000
01E0000000
03E0000000
07C0000000
0780000000
0F80000000
0F00000000
1F00000000
1E00000000
1E00000000
3C00000000
3C00000000
3C00000000
3C00000000
7800000000
7800000000
7800FF8000
7807FFF000
781FFFFC00
787FC3FF00
F0FC003F80
F1F0000FC0
F3C00007C0
F7800003E0
FF000001F0
FE000000F0
FC000000F0
FC000000F8
F800000078
F800000078
F800000078
F800000078
780000007C
780000007C
780000007C
780000007C
7800000078
7800000078
3C00000078
3C00000078
3E000000F8
1E000000F0
1F000000F0
0F000001F0
0F800003E0
07C00003C0
03E00007C0
01F8001F80
01FE007F00
007FFFFE00
003FFFF800
000FFFE000
0001FF0000
ENDCHAR
STARTCHAR 0037
ENCODING 55
SWIDTH 567 0
DWIDTH 47 0
BBX 38 59 4 0
BITMAP
FFFFFFFFFC
FFFFFFFFFC
FFFFFFFFFC
FFFFFFFFFC
000000007C
0000000078
00000000F8
00000000F0
00000000F0
00000001F0
00000001E0
00000003E0
00000003C0
00000007C0
0000000780
0000000F80
0000000F80
0000000F00
0000001F00
0000001E00
0000003E00
0000003C00
0000007C00
0000007C00
0000007800
000000F800
000000F000
000001F000
000001E000
000003E000
000003E000
000007C000
000007C000
0000078000
00000F8000
00000F0000
00001F0000
00001E0000
00003E0000
00003E0000
00003C0000
00007C0000
0000780000
0000F80000
0000F00000
0001F00000
0001F00000
0003E00000
0003E00000
0003C00000
0007C00000
0007800000
000F800000
000F800000
001F000000
001F000000
001E000000
003E000000
003C000000
ENDCHAR
STARTCHAR 0038
ENCODING 56
SWIDTH 567 0
DWIDTH 47 0
BBX 37 61 5 -1
BITMAP
0003FE0000
003FFFE000
00FFFFF800
01FFFFFC00
03F800FE00
07E0003F00
0F80000F80
1F00000780
1E000007C0
3E000003C0
3C000003E0
3C000001E0
3C000001E0
3C000001E0
3C000001E0
3C000001E0
3C000001E0
3C000003E0
3E000003C0
1E000003C0
1F00000780
0F80000F80
07C0001F00
03F0003E00
01F800FC00
00FE03F000
007FCFE000
001FFF8000
0007FE0000
000FFF8000
003FBFE000
00FE0FF800
03F801FC00
07E0007F00
0FC0003F80
1F00000FC0
3E000007E0
3C000003E0
7C000001F0
78000000F0
F8000000F0
F0000000F8
F000000078
F000000078
F000000078
F000000078
F000000078
F000000078
F0000000F8
F8000000F0
78000000F0
78000001F0
7C000003E0
3E000007E0
3F00000FC0
1FC0001F80
0FF000FF00
07FFFFFE00
01FFFFF800
007FFFE000
0007FF0000
ENDCHAR
STARTCHAR 0039
ENCODING 57
SWIDTH 567 0
DWIDTH 47 0
BBX 38 61 4 -1
BITMAP
0003FE0000
001FFFC000
007FFFF000
00FFFFF800
03F800FC00
07E0003E00
07C0001F00
0F80000F80
1F000007C0
1E000003C0
3E000003E0
3C000001E0
7C000001E0
78000000F0
78000000F0
7800000070
7800000078
7800000078
F800000078
F800000078
F800000078
7800000078
780000007C
780000007C
780000007C
78000000FC
7C000000FC
3C000001FC
3E000003FC
1F000007BC
1F00000F3C
0FC0003E78
07F000FC78
03FF0FF878
00FFFFE078
007FFF8078
0007FC0078
0000000078
0000000078
00000000F0
00000000F0
00000000F0
00000001F0
00000001E0
00000001E0
00000003E0
00000003C0
00000007C0
0000000780
0000000F80
0000001F00
0000003F00
0000007E00
000000FC00
000001F800
000007F000
00001FE000
0FC7FF8000
0FFFFF0000
0FFFF80000
03FF800000
ENDCHAR
STARTCHAR 003A
ENCODING 58
SWIDTH 241 0
DWIDTH 20 0
BBX 6 44 7 -1
BITMAP
78
FC
FC
FC
FC
FC
FC
78
00
00
00
00
00
00
00
00
00
00
00
00
00
00
00
00
00
00
00
00
00
00
00
00
00
00
00
00
78
FC
FC
FC
FC
FC
FC
78
ENDCHAR
STARTCHAR 003B
ENCODING 59
SWIDTH 241 0
DWIDTH 20 0
BBX 10 54 3 -11
BITMAP
0780
0FC0
0FC0
0FC0
0FC0
0FC0
0FC0
0780
0000
0000
0000
0000
0000
0000
0000
0000
0000
0000
0000
0000
0000
0000
0000
0000
0000
0000
0000
0000
0000
0000
0000
0000
0000
07C0
0FC0
0F80
0F80
0F80
0F80
0F00
1F00
1F00
1E00
1E00
3E00
3C00
3C00
3800
3800
7800
7000
7000
6000
E000
ENDCHAR
STARTCHAR 003C
ENCODING 60
SWIDTH 567 0
DWIDTH 47 0
BBX 39 39 4 10
BITMAP
0000000002
000000000E
000000003E
00000000FE
00000003F8
0000000FE0
0000003F80
000000FE00
000003F800
00000FE000
00003F8000
0000FE0000
0003F80000
000FE00000
003F800000
00FE000000
03F8000000
0FF0000000
3FC0000000
FF00000000
FC00000000
FF00000000
3FC0000000
0FF0000000
03FE000000
00FF800000
001FE00000
0007F80000
0001FF0000
00007FC000
00000FF000
000003FC00
000000FF80
0000003FE0
00000007F8
00000001FE
000000007E
000000001E
0000000006
ENDCHAR
STARTCHAR 003D
ENCODING 61
SWIDTH 567 0
DWIDTH 47 0
BBX 39 20 4 19
BITMAP
FFFFFFFFFE
FFFFFFFFFE
FFFFFFFFFE
0000000000
0000000000
0000000000
0000000000
0000000000
0000000000
0000000000
0000000000
0000000000
0000000000
0000000000
0000000000
0000000000
0000000000
FFFFFFFFFE
FFFFFFFFFE
FFFFFFFFFE
ENDCHAR
STARTCHAR 003E
ENCODING 62
SWIDTH 567 0
DWIDTH 47 0
BBX 39 39 4 10
BITMAP
8000000000
E000000000
F800000000
FE00000000
3F80000000
0FE0000000
03F8000000
00FE000000
003F800000
000FE00000
0003F80000
0000FE0000
00003F8000
00000FE000
000003F800
000000FE00
0000003F80
0000000FE0
00000003F8
00000000FE
000000003E
00000001FE
00000007F8
0000001FE0
000000FF80
000003FE00
00000FF000
00003FC000
0001FF0000
0007FC0000
001FE00000
007F800000
03FE000000
0FF8000000
3FE0000000
FF00000000
FC00000000
F000000000
C000000000
ENDCHAR
STARTCHAR 003F
ENCODING 63
SWIDTH 422 0
DWIDTH 35 0
BBX 30 61 2 -1
BITMAP
007FE000
07FFFC00
3FFFFF00
FFFFFF80
7E001FC0
700007E0
000001F0
000000F0
000000F8
00000078
00000078
0000003C
0000003C
0000003C
0000003C
0000003C
0000003C
0000003C
0000003C
00000078
00000078
000000F8
000000F0
000001E0
000003E0
00000FC0
00001F80
00003F00
00007C00
0000F800
0001F000
0003E000
0007C000
000F8000
000F0000
001E0000
001E0000
001C0000
003C0000
003C0000
00380000
00380000
00380000
00380000
00380000
00000000
00000000
00000000
00000000
00000000
00000000
00000000
00000000
003C0000
007E0000
007E0000
007E0000
007E0000
007E0000
007E0000
003C0000
ENDCHAR
STARTCHAR 0040
ENCODING 64
SWIDTH 893 0
DWIDTH 74 0
BBX 64 67 5 -8
BITMAP
0000000FFF800000
000000FFFFF80000
000007FFFFFF0000
00001FFFDFFFC000
00007FC0001FF000
0001FE000003F800
0003F0000000FE00
000FC00000003F00
001F800000001F80
003E0000000007C0
007C0000000003C0
00F80000000001E0
01F00000000001F0
03E00000000000F0
03C0000000000078
0780000000000078
07800003FF80003C
0F00001FFFF8003C
0E00007FFFFC001E
1E0001FE03FC001E
1C0003F0003C000E
3C0007E0003C000F
3C000F80003C000F
78000F00003C000F
78001F00003C000F
78001E00003C0007
70003C00003C0007
F0003C00003C0007
F0007C00007C0007
F000780000780007
F000780000780007
F000780000780007
E000780000780007
E000780000780007
E00078000078000F
E00078000078000F
E00078000078000F
E00078000078000F
E000780000F8000E
E000780000F8001E
F000780000F8001E
F0007C0001F8003C
F0003C0001FC003C
F0003E0003BC0078
F0001F00079E00F8
70001F801F1E01F0
78000FF0FE0FCFE0
780007FFFC07FFC0
780001FFF003FF80
3C00007F8000FC00
3C00000000000000
1E00000000000000
1E00000000000000
0F00000000000000
0F80000000000000
07C0000000000000
07C0000000000000
03F0000000000000
01F8000000000000
00FC000000000000
007F000000060000
001FC000003E0000
000FFC0003FE0000
0003FFFFFFFE0000
0000FFFFFFF80000
00001FFFFF800000
000001FFF0000000
ENDCHAR
STARTCHAR 0041
ENCODING 65
SWIDTH 604 0
DWIDTH 50 0
BBX 50 59 0 0
BITMAP
000000E0000000
000001E0000000
000001F0000000
000003F0000000
000003F0000000
000003F8000000
000007F8000000
000007FC000000
00000FBC000000
00000F3C000000
00000F3E000000
00001F1E000000
00001E1F000000
00003E0F000000
00003C0F000000
00003C0F800000
00007C07800000
00007807C00000
0000F807C00000
0000F003C00000
0000F003E00000
0001F001E00000
0001E001F00000
0003E001F00000
0003E000F00000
0003C000F80000
0007C000F80000
00078000780000
000F80007C0000
000F80003C0000
000F00003E0000
001F00003E0000
001E00001E0000
003E00001F0000
003E00001F0000
003FFFFFFF8000
007FFFFFFF8000
007FFFFFFF8000
00FFFFFFFFC000
00F8000007C000
01F0000003E000
01F0000003E000
01E0000001E000
03E0000001F000
03E0000001F000
07C0000000F800
07C0000000F800
07800000007800
0F800000007C00
0F000000007C00
1F000000003E00
1F000000003E00
1E000000001E00
3E000000001F00
3C000000001F00
7C000000000F80
7C000000000F80
78000000000780
F80000000007C0
ENDCHAR
STARTCHAR 0042
ENCODING 66
SWIDTH 628 0
DWIDTH 52 0
BBX 39 59 8 0
BITMAP
FFFFFF0000
FFFFFFF000
FFFFFFFE00
FFFFFFFF00
F800007FC0
F800000FE0
F8000007F0
F8000001F0
F8000000F8
F8000000F8
F800000078
F80000007C
F80000007C
F80000007C
F80000007C
F80000007C
F80000007C
F80000007C
F800000078
F800000078
F8000000F8
F8000001F0
F8000001E0
F8000007E0
F800001F80
F80000FF00
FFFFFFFC00
FFFFFFC000
FFFFFFF800
FFFFFFFF00
F800007FC0
F800000FE0
F8000003F0
F8000001F8
F8000000FC
F80000007C
F80000003E
F80000003E
F80000003E
F80000001E
F80000001E
F80000001E
F80000001E
F80000001E
F80000001E
F80000001E
F80000003E
F80000003E
F80000003C
F80000007C
F8000000F8
F8000001F8
F8000003F0
F800000FE0
F800003FC0
FFFFFFFF80
FFFFFFFE00
FFFFFFF800
FFFFFF8000
ENDCHAR
STARTCHAR 0043
ENCODING 67
SWIDTH 628 0
DWIDTH 52 0
BBX 44 61 5 -1
BITMAP
000001FFE000
00001FFFFF00
0000FFFFFFE0
0003FFFFFFF0
000FFC000FF0
001FE00001E0
003F80000020
007E00000000
00FC00000000
01F800000000
03F000000000
07E000000000
07C000000000
0F8000000000
0F8000000000
1F0000000000
1F0000000000
3E0000000000
3E0000000000
3C0000000000
7C0000000000
7C0000000000
7C0000000000
780000000000
780000000000
780000000000
F80000000000
F80000000000
F80000000000
F80000000000
F80000000000
F80000000000
F80000000000
F80000000000
F80000000000
780000000000
780000000000
780000000000
780000000000
7C0000000000
7C0000000000
3C0000000000
3E0000000000
3E0000000000
3E0000000000
1F0000000000
1F0000000000
0F8000000000
0FC000000000
07C000000000
03E000000000
03F000000000
01F800000000
00FE00000000
007F00000000
003FC0000040
001FFC0007C0
0007FFFFFFC0
0001FFFFFFC0
00007FFFFF00
000007FFE000
ENDCHAR
STARTCHAR 0044
ENCODING 68
SWIDTH 712 0
DWIDTH 59 0
BBX 46 59 8 0
BITMAP
FFFFFE000000
FFFFFFF00000
FFFFFFFE0000
FFFFFFFF8000
F80000FFE000
F800001FF000
F8000003F800
F8000001FC00
F80000007E00
F80000003F00
F80000001F80
F80000000FC0
F800000007C0
F800000007E0
F800000003E0
F800000001E0
F800000001F0
F800000001F0
F800000000F0
F800000000F8
F800000000F8
F800000000F8
F80000000078
F80000000078
F8000000007C
F8000000007C
F8000000007C
F8000000007C
F8000000007C
F8000000007C
F8000000007C
F8000000007C
F8000000007C
F8000000007C
F80000000078
F80000000078
F80000000078
F800000000F8
F800000000F8
F800000000F8
F800000000F0
F800000001F0
F800000001F0
F800000003E0
F800000003E0
F800000007C0
F800000007C0
F80000000F80
F80000001F00
F80000003F00
F80000007E00
F8000001FC00
F8000007F800
F800001FE000
F80001FFC000
FFFFFFFF0000
FFFFFFFC0000
FFFFFFE00000
FFFFFC000000
ENDCHAR
STARTCHAR 0045
ENCODING 69
SWIDTH 555 0
DWIDTH 46 0
BBX 33 59 8 0
BITMAP
FFFFFFFF80
FFFFFFFF80
FFFFFFFF80
FFFFFFFF80
F800000000
F800000000
F800000000
F800000000
F800000000
F800000000
F800000000
F800000000
F800000000
F800000000
F800000000
F800000000
F800000000
F800000000
F800000000
F800000000
F800000000
F800000000
F800000000
F800000000
F800000000
F800000000
FFFFFFFE00
FFFFFFFE00
FFFFFFFE00
FFFFFFFE00
F800000000
F800000000
F800000000
F800000000
F800000000
F800000000
F800000000
F800000000
F800000000
F800000000
F800000000
F800000000
F800000000
F800000000
F800000000
F800000000
F800000000
F800000000
F800000000
F800000000
F800000000
F800000000
F800000000
F800000000
F800000000
FFFFFFFF80
FFFFFFFF80
FFFFFFFF80
FFFFFFFF80
ENDCHAR
STARTCHAR 0046
ENCODING 70
SWIDTH 507 0
DWIDTH 42 0
BBX 33 59 8 0
BITMAP
FFFFFFFF80
FFFFFFFF80
FFFFFFFF80
FFFFFFFF80
F800000000
F800000000
F800000000
F800000000
F800000000
F800000000
F800000000
F800000000
F800000000
F800000000
F800000000
F800000000
F800000000
F800000000
F800000000
F800000000
F800000000
F800000000
F800000000
F800000000
F800000000
F800000000
F800000000
F800000000
F800000000
FFFFFFFF00
FFFFFFFF00
FFFFFFFF00
FFFFFFFF00
F800000000
F800000000
F800000000
F800000000
F800000000
F800000000
F800000000
F800000000
F800000000
F800000000
F800000000
F800000000
F800000000
F800000000
F800000000
F800000000
F800000000
F800000000
F800000000
F800000000
F800000000
F800000000
F800000000
F800000000
F800000000
F800000000
ENDCHAR
STARTCHAR 0047
ENCODING 71
SWIDTH 724 0
DWIDTH 60 0
BBX 49 61 5 -1
BITMAP
000000FFF80000
00000FFFFFC000
00007FFFFFF800
0001FFFFFFFF00
0007FE0003FE00
000FF000007E00
001FC000000C00
007F0000000000
00FC0000000000
01F80000000000
01F00000000000
03E00000000000
07C00000000000
07800000000000
0F800000000000
1F000000000000
1F000000000000
1E000000000000
3E000000000000
3C000000000000
3C000000000000
7C000000000000
7C000000000000
78000000000000
78000000000000
78000000000000
F8000000000000
F8000000000000
F8000000000000
F8000000000000
F800001FFFFF80
F800001FFFFF80
F800001FFFFF80
F800001FFFFF80
F8000000000F80
F8000000000F80
78000000000F80
78000000000F80
78000000000F80
7C000000000F80
7C000000000F80
7C000000000F80
3C000000000F80
3E000000000F80
3E000000000F80
1F000000000F80
1F000000000F80
0F800000000F80
0F800000000F80
07C00000000F80
03E00000000F80
03F00000000F80
01F80000000F80
00FE0000000F80
007F0000000F80
003FE000001F80
000FFC0001FF80
0007FFFFFFFF00
0001FFFFFFF800
00003FFFFFC000
000001FFF80000
ENDCHAR
STARTCHAR 0048
ENCODING 72
SWIDTH 724 0
DWIDTH 60 0
BBX 44 59 8 0
BITMAP
F800000001F0
F800000001F0
F800000001F0
F800000001F0
F800000001F0
F800000001F0
F800000001F0
F800000001F0
F800000001F0
F800000001F0
F800000001F0
F800000001F0
F800000001F0
F800000001F0
F800000001F0
F800000001F0
F800000001F0
F800000001F0
F800000001F0
F800000001F0
F800000001F0
F800000001F0
F800000001F0
F800000001F0
F800000001F0
F800000001F0
FFFFFFFFFFF0
FFFFFFFFFFF0
FFFFFFFFFFF0
FFFFFFFFFFF0
F800000001F0
F800000001F0
F800000001F0
F800000001F0
F800000001F0
F800000001F0
F800000001F0
F800000001F0
F800000001F0
F800000001F0
F800000001F0
F800000001F0
F800000001F0
F800000001F0
F800000001F0
F800000001F0
F800000001F0
F800000001F0
F800000001F0
F800000001F0
F800000001F0
F800000001F0
F800000001F0
F800000001F0
F800000001F0
F800000001F0
F800000001F0
F800000001F0
F800000001F0
ENDCHAR
STARTCHAR 0049
ENCODING 73
SWIDTH 253 0
DWIDTH 21 0
BBX 5 59 8 0
BITMAP
F8
F8
F8
F8
F8
F8
F8
F8
F8
F8
F8
F8
F8
F8
F8
F8
F8
F8
F8
F8
F8
F8
F8
F8
F8
F8
F8
F8
F8
F8
F8
F8
F8
F8
F8
F8
F8
F8
F8
F8
F8
F8
F8
F8
F8
F8
F8
F8
F8
F8
F8
F8
F8
F8
F8
F8
F8
F8
F8
ENDCHAR
STARTCHAR 004A
ENCODING 74
SWIDTH 253 0
DWIDTH 21 0
BBX 20 74 -7 -15
BITMAP
0000F0
0000F0
0000F0
0000F0
0000F0
0000F0
0000F0
0000F0
0000F0
0000F0
0000F0
0000F0
0000F0
0000F0
0000F0
0000F0
0000F0
0000F0
0000F0
0000F0
0000F0
0000F0
0000F0
0000F0
0000F0
0000F0
0000F0
0000F0
0000F0
0000F0
0000F0
0000F0
0000F0
0000F0
0000F0
0000F0
0000F0
0000F0
0000F0
0000F0
0000F0
0000F0
0000F0
0000F0
0000F0
0000F0
0000F0
0000F0
0000F0
0000F0
0000F0
0000F0
0000F0
0000F0
0000F0
0000F0
0000F0
0000F0
0000F0
0000F0
0000F0
0001F0
0001F0
0001E0
0001E0
0003E0
0003E0
0007C0
000FC0
003F80
FFFF00
FFFE00
FFF800
7FC000
ENDCHAR
STARTCHAR 004B
ENCODING 75
SWIDTH 579 0
DWIDTH 48 0
BBX 40 59 8 0
BITMAP
F00000003E
F00000007C
F0000000F8
F0000001F0
F0000003E0
F0000007C0
F000000F80
F000001F00
F000003E00
F000007C00
F00000F800
F00001F000
F00003E000
F00007C000
F0000F8000
F0001F0000
F0003E0000
F0007C0000
F000F80000
F001F00000
F003F00000
F003E00000
F007C00000
F00F800000
F01F000000
F03F000000
F07F000000
F0FF800000
F1F7C00000
F3C3E00000
F783E00000
FF01F00000
FE00F80000
FC00F80000
F8007C0000
F0003E0000
F0001F0000
F0001F0000
F0000F8000
F00007C000
F00003E000
F00003E000
F00001F000
F00000F800
F00000F800
F000007C00
F000003E00
F000001F00
F000001F00
F000000F80
F0000007C0
F0000007E0
F0000003E0
F0000001F0
F0000000F8
F0000000F8
F00000007C
F00000003E
F00000001F
ENDCHAR
STARTCHAR 004C
ENCODING 76
SWIDTH 519 0
DWIDTH 43 0
BBX 33 59 8 0
BITMAP
F800000000
F800000000
F800000000
F800000000
F800000000
F800000000
F800000000
F800000000
F800000000
F800000000
F800000000
F800000000
F800000000
F800000000
F800000000
F800000000
F800000000
F800000000
F800000000
F800000000
F800000000
F800000000
F800000000
F800000000
F800000000
F800000000
F800000000
F800000000
F800000000
F800000000
F800000000
F800000000
F800000000
F800000000
F800000000
F800000000
F800000000
F800000000
F800000000
F800000000
F800000000
F800000000
F800000000
F800000000
F800000000
F800000000
F800000000
F800000000
F800000000
F800000000
F800000000
F800000000
F800000000
F800000000
F800000000
FFFFFFFF80
FFFFFFFF80
FFFFFFFF80
FFFFFFFF80
ENDCHAR
STARTCHAR 004D
ENCODING 77
SWIDTH 869 0
DWIDTH 72 0
BBX 56 59 8 0
BITMAP
FE00000000007F
FE00000000007F
FF0000000000FF
FF0000000000FF
FF8000000000FF
F78000000001EF
F78000000001EF
F3C000000003CF
F3C000000003CF
F3E000000007CF
F1E0000000079F
F1F0000000079F
F0F00000000F1F
F0F00000000F1F
F0F80000001F1F
F0780000001E1F
F07C0000001E1F
F03C0000003C1F
F03C0000003C1F
F01E0000007C1F
F01E000000781F
F01F000000781F
F00F000000F01F
F00F000000F01F
F007800001E01F
F007800001E01F
F007C00001E01F
F003C00003C01F
F003C00003C01F
F001E00007801F
F001E00007801F
F001F00007801F
F000F0000F001F
F000F0000F001F
F00078001E001F
F00078001E001F
F0007C003E001F
F0003C003C001F
F0003E003C001F
F0001E0078001F
F0001E0078001F
F0000F00F0001F
F0000F00F0001F
F0000F80F0001F
F0000781E0001F
F0000781E0001F
F00003C3C0001F
F00003C3C0001F
F00003E3C0001F
F00001E780001F
F00001E780001F
F00000FF00001F
F00000FF00001F
F00000FF00001F
F000007E00001F
F000007E00001F
F000003C00001F
F000003C00001F
F000003C00001F
ENDCHAR
STARTCHAR 004E
ENCODING 78
SWIDTH 724 0
DWIDTH 60 0
BBX 44 59 8 0
BITMAP
F800000000F0
FC00000000F0
FC00000000F0
FE00000000F0
FF00000000F0
FF00000000F0
FF80000000F0
F7C0000000F0
F7C0000000F0
F3E0000000F0
F1F0000000F0
F1F0000000F0
F0F8000000F0
F07C000000F0
F03C000000F0
F03E000000F0
F01F000000F0
F00F000000F0
F00F800000F0
F007C00000F0
F003C00000F0
F003E00000F0
F001F00000F0
F000F00000F0
F000F80000F0
F0007C0000F0
F0003C0000F0
F0003E0000F0
F0001F0000F0
F0000F0000F0
F0000F8000F0
F00007C000F0
F00003C000F0
F00003E000F0
F00001F000F0
F00000F000F0
F00000F800F0
F000007C00F0
F000003C00F0
F000003E00F0
F000001F00F0
F000000F00F0
F000000F80F0
F0000007C0F0
F0000003C0F0
F0000003E0F0
F0000001F0F0
F0000000F0F0
F0000000F8F0
F00000007CF0
F00000003EF0
F00000003EF0
F00000001FF0
F00000000FF0
F00000000FF0
F000000007F0
F000000003F0
F000000003F0
F000000001F0
ENDCHAR
STARTCHAR 004F
ENCODING 79
SWIDTH 761 0
DWIDTH 63 0
BBX 53 61 5 -1
BITMAP
000007FF000000
00007FFFF00000
0001FFFFFC0000
0007FFFFFF0000
001FF800FFC000
003FC0001FE000
007F000007F000
00FC000001F800
01F8000000FC00
03F00000007E00
07E00000003F00
07C00000001F00
0F800000000F80
0F800000000F80
1F0000000007C0
1F0000000003C0
3E0000000003E0
3E0000000003E0
3C0000000001E0
7C0000000001F0
7C0000000001F0
7C0000000001F0
780000000000F0
780000000000F0
780000000000F0
F80000000000F8
F80000000000F8
F80000000000F8
F80000000000F8
F80000000000F8
F80000000000F8
F80000000000F8
F80000000000F8
F80000000000F8
F80000000000F8
F80000000000F8
780000000000F0
780000000000F0
780000000000F0
7C0000000001F0
7C0000000001F0
7C0000000001F0
3C0000000001E0
3E0000000003E0
3E0000000003E0
1E0000000003C0
1F0000000007C0
0F000000000780
0F800000000F80
07C00000001F00
07E00000003F00
03E00000003E00
01F8000000FC00
00FC000001F800
007E000003F000
003F80000FE000
001FF800FFC000
0007FFFFFF0000
0003FFFFFC0000
00007FFFF00000
000007FF000000
ENDCHAR
STARTCHAR 0050
ENCODING 80
SWIDTH 591 0
DWIDTH 49 0
BBX 36 59 8 0
BITMAP
FFFFFC0000
FFFFFFC000
FFFFFFF000
FFFFFFFC00
F80003FE00
F800007F00
F800001F80
F800000FC0
F8000007E0
F8000003E0
F8000001E0
F8000001F0
F8000001F0
F8000000F0
F8000000F0
F8000000F0
F8000000F0
F8000000F0
F8000000F0
F8000000F0
F8000000F0
F8000001F0
F8000001F0
F8000001E0
F8000003E0
F8000003C0
F8000007C0
F800000F80
F800003F00
F80000FE00
F8000FFC00
FFFFFFF000
FFFFFFC000
FFFFFE0000
FFFE000000
F800000000
F800000000
F800000000
F800000000
F800000000
F800000000
F800000000
F800000000
F800000000
F800000000
F800000000
F800000000
F800000000
F800000000
F800000000
F800000000
F800000000
F800000000
F800000000
F800000000
F800000000
F800000000
F800000000
F800000000
ENDCHAR
STARTCHAR 0051
ENCODING 81
SWIDTH 761 0
DWIDTH 63 0
BBX 53 74 5 -14
BITMAP
000007FF000000
00007FFFF00000
0001FFFFFC0000
0007FFFFFF0000
001FF800FFC000
003FC0001FE000
007F000007F000
00FC000001F800
01F8000000FC00
03F00000007E00
07E00000003F00
07C00000001F00
0F800000000F80
0F800000000F80
1F0000000007C0
1F0000000003C0
3E0000000003E0
3E0000000003E0
3C0000000001E0
7C0000000001F0
7C0000000001F0
7C0000000001F0
780000000000F0
780000000000F0
780000000000F0
F80000000000F8
F80000000000F8
F80000000000F8
F80000000000F8
F80000000000F8
F80000000000F8
F80000000000F8
F80000000000F8
F80000000000F8
F80000000000F8
F80000000000F8
780000000000F0
780000000000F0
780000000000F0
7C0000000001F0
7C0000000001F0
7C0000000001F0
3C0000000001E0
3E0000000003E0
3E0000000003E0
1E0000000003C0
1F0000000007C0
0F000000000780
0F800000000F80
07C00000001F00
07E00000003F00
03E00000003E00
01F8000000FC00
00FC000001F800
007E000003F000
003F80000FE000
001FF800FFC000
0007FFFFFF0000
0003FFFFFE0000
00007FFFF00000
000007FFC00000
00000003E00000
00000003F00000
00000001F80000
00000000FC0000
000000007E0000
000000003F0000
000000001F8000
000000000FC000
000000000FE000
0000000007F000
0000000003F800
0000000001FC00
0000000000FE00
ENDCHAR
STARTCHAR 0052
ENCODING 82
SWIDTH 591 0
DWIDTH 49 0
BBX 39 59 8 0
BITMAP
FFFFF80000
FFFFFF8000
FFFFFFF000
FFFFFFFC00
F00003FE00
F000007F00
F000001F80
F000000FC0
F0000007C0
F0000003E0
F0000003E0
F0000001E0
F0000001E0
F0000001F0
F0000001F0
F0000001F0
F0000001F0
F0000001F0
F0000001F0
F0000001F0
F0000001E0
F0000001E0
F0000003E0
F0000003C0
F0000007C0
F000000F80
F000001F80
F000003F00
F00000FE00
F00007FC00
FFFFFFF000
FFFFFFC000
FFFFFE0000
FFFFFF0000
F0000F0000
F0000F8000
F00007C000
F00007C000
F00003E000
F00001E000
F00001F000
F00000F800
F00000F800
F000007C00
F000003C00
F000003E00
F000001F00
F000001F00
F000000F80
F000000780
F0000007C0
F0000003E0
F0000003E0
F0000001F0
F0000000F0
F0000000F8
F00000007C
F00000007C
F00000003E
ENDCHAR
STARTCHAR 0053
ENCODING 83
SWIDTH 543 0
DWIDTH 45 0
BBX 37 61 4 -1
BITMAP
0001FFC000
001FFFFE00
007FFFFFC0
01FFFFFFE0
03FC001FE0
07E00001C0
0FC0000040
1F00000000
1F00000000
3E00000000
3C00000000
3C00000000
7C00000000
7C00000000
7C00000000
7C00000000
7C00000000
7C00000000
7C00000000
3C00000000
3E00000000
3E00000000
1F00000000
0FC0000000
0FE0000000
07F8000000
01FE000000
00FFC00000
003FF80000
000FFE0000
0003FFC000
00007FF000
00000FFC00
000003FE00
0000007F00
0000001F80
0000000FC0
00000007E0
00000003F0
00000001F0
00000000F0
00000000F8
00000000F8
00000000F8
00000000F8
00000000F8
00000000F8
00000000F8
00000000F8
00000000F0
00000001F0
00000003F0
00000003E0
00000007C0
8000001FC0
E000007F80
FF0001FF00
FFFFFFFC00
FFFFFFF800
1FFFFFC000
00FFFE0000
ENDCHAR
STARTCHAR 0054
ENCODING 84
SWIDTH 519 0
DWIDTH 43 0
BBX 43 59 0 0
BITMAP
FFFFFFFFFFE0
FFFFFFFFFFE0
FFFFFFFFFFE0
FFFFFFFFFFE0
00001F000000
00001F000000
00001F000000
00001F000000
00001F000000
00001F000000
00001F000000
00001F000000
00001F000000
00001F000000
00001F000000
00001F000000
00001F000000
00001F000000
00001F000000
00001F000000
00001F000000
00001F000000
00001F000000
00001F000000
00001F000000
00001F000000
00001F000000
00001F000000
00001F000000
00001F000000
00001F000000
00001F000000
00001F000000
00001F000000
00001F000000
00001F000000
00001F000000
00001F000000
00001F000000
00001F000000
00001F000000
00001F000000
00001F000000
00001F000000
00001F000000
00001F000000
00001F000000
00001F000000
00001F000000
00001F000000
00001F000000
00001F000000
00001F000000
00001F000000
00001F000000
00001F000000
00001F000000
00001F000000
00001F000000
ENDCHAR
STARTCHAR 0055
ENCODING 85
SWIDTH 724 0
DWIDTH 60 0
BBX 44 60 8 -1
BITMAP
F000000000F0
F000000000F0
F000000000F0
F000000000F0
F000000000F0
F000000000F0
F000000000F0
F000000000F0
F000000000F0
F000000000F0
F000000000F0
F000000000F0
F000000000F0
F000000000F0
F000000000F0
F000000000F0
F000000000F0
F000000000F0
F000000000F0
F000000000F0
F000000000F0
F000000000F0
F000000000F0
F000000000F0
F000000000F0
F000000000F0
F000000000F0
F000000000F0
F000000000F0
F000000000F0
F000000000F0
F000000000F0
F000000000F0
F000000000F0
F000000000F0
F000000000F0
F000000000F0
F000000000F0
F000000000F0
F000000000F0
F000000000F0
F000000000F0
F000000000F0
F000000000F0
F800000001F0
7800000001E0
7800000001E0
7C00000003E0
3C00000003C0
3E00000007C0
1F0000000F80
1F8000000F80
0FC000003F00
07E000007E00
03F80001FC00
01FE0007F800
00FFFFFFE000
003FFFFFC000
000FFFFE0000
0000FFE00000
ENDCHAR
STARTCHAR 0056
ENCODING 86
SWIDTH 579 0
DWIDTH 48 0
BBX 48 59 0 0
BITMAP
F8000000001F
78000000001E
78000000001E
7C000000003E
3C000000003C
3C000000007C
3E000000007C
1E0000000078
1F00000000F8
0F00000000F0
0F00000000F0
0F80000001F0
0780000001E0
0780000001E0
07C0000003E0
03C0000003C0
03E0000007C0
01E000000780
01E000000780
01F000000F80
00F000000F00
00F000000F00
00F800001F00
007800001E00
007C00003E00
003C00003C00
003C00003C00
003E00007C00
001E00007800
001E00007800
001F0000F800
000F0000F000
000F8000F000
00078001E000
00078001E000
0007C003E000
0003C003C000
0003C003C000
0003E007C000
0001E0078000
0001E0078000
0000F00F0000
0000F00F0000
0000F81F0000
0000781E0000
0000781E0000
00007C3E0000
00003C3C0000
00003C3C0000
00001E780000
00001E780000
00001E780000
00000FF00000
00000FF00000
00000FE00000
000007E00000
000007E00000
000003C00000
000003C00000
ENDCHAR
STARTCHAR 0057
ENCODING 87
SWIDTH 893 0
DWIDTH 74 0
BBX 70 59 2 0
BITMAP
F8000000F80000003C
F8000000FC0000007C
78000000FC00000078
78000001FC00000078
7C000001FC000000F8
3C000001FE000000F0
3C000001DE000000F0
3C000003CE000000F0
3E000003CF000001F0
1E000003CF000001E0
1E0000038F000001E0
1F00000787000001E0
0F00000787800003C0
0F00000787800003C0
0F00000F07800003C0
0F80000F03C00003C0
0780000F03C0000780
0780000E03C0000780
0780001E01C0000780
07C0001E01E0000F80
03C0001E01E0000F00
03C0003C01E0000F00
03E0003C00F0000F00
01E0003C00F0001E00
01E0003C00F0001E00
01E000780070001E00
01F000780078001E00
00F000780078003C00
00F000F00078003C00
00F000F0003C003C00
00F800F0003C007800
007800F0003C007800
007801E0001C007800
007C01E0001E007800
003C01E0001E00F000
003C03C0001E00F000
003C03C0000F00F000
003E03C0000F00F000
001E03C0000F01E000
001E0780000701E000
001E0780000781E000
000F0780000781C000
000F0700000783C000
000F0F000003C3C000
000F0F000003C3C000
00078F000003C78000
00078E000001C78000
00079E000001E78000
00079E000001E78000
0003DE000001EF0000
0003DC000000EF0000
0003FC000000FF0000
0001FC000000FE0000
0001F80000007E0000
0001F80000007E0000
0001F80000007E0000
0000F80000007C0000
0000F00000003C0000
0000F00000003C0000
ENDCHAR
STARTCHAR 0058
ENCODING 88
SWIDTH 543 0
DWIDTH 45 0
BBX 45 59 0 0
BITMAP
3E00000001E0
1E00000003E0
1F00000007C0
0F8000000780
078000000F80
07C000001F00
03E000001E00
01E000003E00
01F000003C00
00F800007800
00780000F800
007C0000F000
003C0001E000
001E0003E000
001F0003C000
000F00078000
0007800F8000
0007C00F0000
0003C01E0000
0003E03E0000
0001F03C0000
0000F0780000
0000F8F80000
00007CF00000
00003DE00000
00003FE00000
00001FC00000
00000F800000
00000F800000
00001FC00000
00001FE00000
00003FE00000
00007DF00000
000078F00000
0000F8780000
0001F07C0000
0001E03C0000
0003E03E0000
0007C01F0000
0007800F0000
000F800F8000
001F0007C000
001E0003C000
003E0003E000
007C0001F000
00780000F000
00F80000F800
00F000007C00
01E000003C00
03E000003E00
03C000001E00
078000001F00
0F8000000F80
0F0000000780
1F00000007C0
3E00000003E0
3C00000001E0
7C00000001F0
F800000000F8
ENDCHAR
STARTCHAR 0059
ENCODING 89
SWIDTH 531 0
DWIDTH 44 0
BBX 44 59 0 0
BITMAP
F800000001F0
7C00000001E0
7C00000003E0
3E00000003C0
3E00000007C0
1F0000000780
0F0000000F00
0F8000001F00
078000001E00
07C000003E00
03C000003C00
03E000007C00
01E000007800
01F00000F800
00F80000F000
00F80001F000
007C0001E000
003C0003C000
003E0003C000
001E00078000
001F000F8000
000F000F0000
000F801F0000
0007801E0000
0007C03E0000
0003C03C0000
0003E0780000
0001F0780000
0000F0F00000
0000F8F00000
000079E00000
00007DE00000
00003FC00000
00003FC00000
00001F800000
00001F800000
00000F000000
00000F000000
00000F000000
00000F000000
00000F000000
00000F000000
00000F000000
00000F000000
00000F000000
00000F000000
00000F000000
00000F000000
00000F000000
00000F000000
00000F000000
00000F000000
00000F000000
00000F000000
00000F000000
00000F000000
00000F000000
00000F000000
00000F000000
ENDCHAR
STARTCHAR 005A
ENCODING 90
SWIDTH 579 0
DWIDTH 48 0
BBX 42 59 3 0
BITMAP
3FFFFFFFFF80
3FFFFFFFFF80
3FFFFFFFFF80
3FFFFFFFFF00
000000001F00
000000003E00
000000007C00
000000007C00
00000000F800
00000001F000
00000001F000
00000003E000
00000007C000
00000007C000
0000000F8000
0000001F0000
0000001F0000
0000003E0000
0000007C0000
0000007C0000
000000F80000
000001F00000
000001F00000
000003E00000
000007C00000
000007C00000
00000F800000
00001F000000
00001F000000
00003E000000
00007C000000
00007C000000
0000F8000000
0001F0000000
0001F0000000
0003E0000000
0007C0000000
0007C0000000
000F80000000
001F00000000
001F00000000
003E00000000
007C00000000
007C00000000
00F800000000
01F000000000
01F000000000
03E000000000
07C000000000
07C000000000
0F8000000000
1F0000000000
1F0000000000
3E0000000000
7C0000000000
7FFFFFFFFFC0
FFFFFFFFFFC0
FFFFFFFFFFC0
FFFFFFFFFFC0
ENDCHAR
STARTCHAR 005B
ENCODING 91
SWIDTH 314 0
DWIDTH 26 0
BBX 17 72 7 -13
BITMAP
FFFF80
FFFF80
FFFF80
FFFF80
F00000
F00000
F00000
F00000
F00000
F00000
F00000
F00000
F00000
F00000
F00000
F00000
F00000
F00000
F00000
F00000
F00000
F00000
F00000
F00000
F00000
F00000
F00000
F00000
F00000
F00000
F00000
F00000
F00000
F00000
F00000
F00000
F00000
F00000
F00000
F00000
F00000
F00000
F00000
F00000
F00000
F00000
F00000
F00000
F00000
F00000
F00000
F00000
F00000
F00000
F00000
F00000
F00000
F00000
F00000
F00000
F00000
F00000
F00000
F00000
F00000
F00000
F00000
F00000
FFFF80
FFFF80
FFFF80
FFFF80
ENDCHAR
STARTCHAR 005C
ENCODING 92
SWIDTH 338 0
DWIDTH 28 0
BBX 26 59 1 0
BITMAP
F0000000
78000000
78000000
78000000
3C000000
3C000000
3E000000
1E000000
1E000000
0F000000
0F000000
0F000000
07800000
07800000
07C00000
03C00000
03C00000
03E00000
01E00000
01E00000
00F00000
00F00000
00F00000
00780000
00780000
007C0000
003C0000
003C0000
001E0000
001E0000
001E0000
000F0000
000F0000
000F8000
00078000
00078000
0003C000
0003C000
0003C000
0001E000
0001E000
0001F000
0000F000
0000F000
0000F800
00007800
00007800
00003C00
00003C00
00003E00
00001E00
00001E00
00001F00
00000F00
00000F00
00000780
00000780
00000780
000003C0
ENDCHAR
STARTCHAR 005D
ENCODING 93
SWIDTH 314 0
DWIDTH 26 0
BBX 17 72 2 -13
BITMAP
FFFF80
FFFF80
FFFF80
FFFF80
000780
000780
000780
000780
000780
000780
000780
000780
000780
000780
000780
000780
000780
000780
000780
000780
000780
000780
000780
000780
000780
000780
000780
000780
000780
000780
000780
000780
000780
000780
000780
000780
000780
000780
000780
000780
000780
000780
000780
000780
000780
000780
000780
000780
000780
000780
000780
000780
000780
000780
000780
000780
000780
000780
000780
000780
000780
000780
000780
000780
000780
000780
000780
000780
FFFF80
FFFF80
FFFF80
FFFF80
ENDCHAR
STARTCHAR 005E
ENCODING 94
SWIDTH 567 0
DWIDTH 47 0
BBX 39 37 4 22
BITMAP
0000380000
00007C0000
00007C0000
0000FE0000
0000FE0000
0001EF0000
0001EF0000
0003C78000
0003C78000
000783C000
000783C000
000F01E000
000F01E000
001E00F000
001E00F000
003C007800
003C007800
0078003C00
0078003C00
00F0001E00
00F0001E00
01E0000F00
01E0000F00
03C0000780
03C0000780
07800003C0
07800003C0
0F000001E0
0F000001E0
1E000000F0
1E000000F0
3C00000078
3C00000078
780000003C
780000003C
F00000001E
F00000001E
ENDCHAR
STARTCHAR 005F
ENCODING 95
SWIDTH 410 0
DWIDTH 34 0
BBX 34 3 0 -10
BITMAP
FFFFFFFFC0
FFFFFFFFC0
FFFFFFFFC0
ENDCHAR
STARTCHAR 0060
ENCODING 96
SWIDTH 579 0
DWIDTH 48 0
BBX 16 13 16 50
BITMAP
FC00
7E00
7E00
3F00
1F80
0FC0
07C0
03E0
01F0
0078
003C
001E
000F
ENDCHAR
STARTCHAR 0061
ENCODING 97
SWIDTH 531 0
DWIDTH 44 0
BBX 33 46 4 -1
BITMAP
0007FE0000
007FFFC000
03FFFFF000
0FFFDFF800
07F000FC00
0780003E00
0200001E00
0000001F00
0000000F00
0000000F00
0000000780
0000000780
0000000780
0000000780
0000000780
0000000780
0000000780
0000000780
0000000780
00007FFF80
001FFFFF80
00FFFFFF80
03FFFF8780
07FC000780
0FE0000780
1F00000780
3E00000780
7C00000780
7800000780
F800000780
F800000780
F000000780
F000000F80
F000000F80
F000000F80
F000001F80
F800003F80
7800003F80
7800007780
7C0000F780
3E0003E780
1F800FC380
1FFFFF8380
07FFFE0380
03FFF80380
007FC00000
ENDCHAR
STARTCHAR 0062
ENCODING 98
SWIDTH 591 0
DWIDTH 49 0
BBX 37 64 7 -1
BITMAP
F000000000
F000000000
F000000000
F000000000
F000000000
F000000000
F000000000
F000000000
F000000000
F000000000
F000000000
F000000000
F000000000
F000000000
F000000000
F000000000
F000000000
F000000000
F003FF0000
F01FFFE000
F07FFFF800
F0FFFFFC00
F1F800FE00
F3E0003F00
F780000F80
FF000007C0
FE000007C0
FE000003E0
FC000001E0
FC000001F0
FC000001F0
F8000000F0
F8000000F0
F8000000F8
F8000000F8
F800000078
F800000078
F000000078
F000000078
F000000078
F000000078
F000000078
F000000078
F000000078
F000000078
F000000078
F800000078
F8000000F8
F8000000F8
F8000000F0
F8000000F0
F8000001F0
FC000001E0
FC000003E0
FE000003E0
FE000007C0
FF00000F80
F780001F80
F3C0003F00
E1F800FE00
E0FFFFFC00
E07FFFF000
E01FFFE000
0003FE0000
ENDCHAR
STARTCHAR 0063
ENCODING 99
SWIDTH 471 0
DWIDTH 39 0
BBX 31 46 5 -1
BITMAP
0001FFC0
000FFFFC
003FFFFE
00FFFFFE
01FC003C
03F00000
07C00000
0F800000
1F000000
1E000000
3E000000
3C000000
7C000000
78000000
78000000
78000000
F8000000
F0000000
F0000000
F0000000
F0000000
F0000000
F0000000
F0000000
F0000000
F0000000
F0000000
F0000000
F0000000
F8000000
F8000000
78000000
78000000
7C000000
3C000000
3E000000
1E000000
1F000000
0F800000
07C00000
07F00002
01FC001E
00FFFFFE
007FFFFE
001FFFF8
0001FFC0
ENDCHAR
STARTCHAR 0064
ENCODING 100
SWIDTH 591 0
DWIDTH 49 0
BBX 37 64 5 -1
BITMAP
0000000078
0000000078
0000000078
0000000078
0000000078
0000000078
0000000078
0000000078
0000000078
0000000078
0000000078
0000000078
0000000078
0000000078
0000000078
0000000078
0000000078
0000000078
0003FE0078
003FFFC078
007FFFF078
01FFFFF878
03F800FC78
07E0003E78
0FC0000F78
0F80000778
1F000007F8
3E000003F8
3E000001F8
3C000001F8
7C000001F8
78000000F8
78000000F8
F8000000F8
F8000000F8
F0000000F8
F0000000F8
F000000078
F000000078
F000000078
F000000078
F000000078
F000000078
F000000078
F000000078
F0000000F8
F0000000F8
F0000000F8
F8000000F8
78000000F8
78000000F8
78000001F8
7C000001F8
3C000001F8
3E000003F8
1E000003F8
1F000007F8
0F80000F78
07E0003E78
03F800FC78
01FFFFF838
00FFFFF038
003FFFC038
0007FE0000
ENDCHAR
STARTCHAR 0065
ENCODING 101
SWIDTH 555 0
DWIDTH 46 0
BBX 36 46 5 -1
BITMAP
0001FF0000
000FFFE000
003FFFF000
00FFFFFC00
01FC00FE00
03F0003F00
07C0001F00
0F80000F80
0F000007C0
1F000003C0
3E000003E0
3C000001E0
3C000001E0
7C000001E0
78000001F0
78000000F0
F8000000F0
F8000000F0
F0000000F0
F0000000F0
FFFFFFFFF0
FFFFFFFFF0
FFFFFFFFF0
FFFFFFFFF0
F000000000
F000000000
F000000000
F000000000
F000000000
F800000000
7800000000
7800000000
7800000000
7C00000000
3C00000000
3E00000000
1F00000000
1F00000000
0F80000000
07C0000000
03F00000C0
01FC0007C0
00FFFFFFC0
003FFFFFC0
000FFFFE00
0001FFE000
ENDCHAR
STARTCHAR 0066
ENCODING 102
SWIDTH 302 0
DWIDTH 25 0
BBX 28 63 1 0
BITMAP
00007FC0
0003FFF0
0007FFF0
000FFFF0
001F8010
003E0000
003C0000
007C0000
00780000
00780000
00780000
00780000
00F80000
00F00000
00F00000
00F00000
00F00000
00F00000
00F00000
0FFFFE00
FFFFFE00
FFFFFE00
00F00000
00F00000
00F00000
00F00000
00F00000
00F00000
00F00000
00F00000
00F00000
00F00000
00F00000
00F00000
00F00000
00F00000
00F00000
00F00000
00F00000
00F00000
00F00000
00F00000
00F00000
00F00000
00F00000
00F00000
00F00000
00F00000
00F00000
00F00000
00F00000
00F00000
00F00000
00F00000
00F00000
00F00000
00F00000
00F00000
00F00000
00F00000
00F00000
00F00000
00F00000
ENDCHAR
STARTCHAR 0067
ENCODING 103
SWIDTH 519 0
DWIDTH 43 0
BBX 39 65 2 -20
BITMAP
0003FF0000
001FFFFFFE
007FFFFFFE
00FE03FFFE
01F8007C00
03E0003E00
03C0001F00
0780000F00
0F80000780
0F00000780
0F00000780
0F000003C0
1F000003C0
1E000003C0
1E000003C0
1E000003C0
1E000003C0
0F000003C0
0F00000780
0F00000780
0F80000780
0780000F00
07C0001F00
03E0003E00
01F0007C00
00FE03F800
007FFFF000
001FFFC000
003FFE0000
0078000000
00F0000000
01E0000000
01C0000000
03C0000000
03C0000000
0380000000
03C0000000
03C0000000
01F0000000
01FFFFF800
007FFFFF00
007FFFFFC0
01FFFFFFF0
07E0000FF0
1F800001F8
3E0000007C
3C0000007C
780000003C
780000003C
F00000003E
F00000001E
F00000003E
F00000003C
F00000003C
F00000003C
F00000007C
F800000078
78000000F8
7C000001F0
3F000007E0
1FC0003FC0
0FFE0FFF80
07FFFFFE00
01FFFFF000
001FFF0000
ENDCHAR
STARTCHAR 0068
ENCODING 104
SWIDTH 591 0
DWIDTH 49 0
BBX 35 63 7 0
BITMAP
F000000000
F000000000
F000000000
F000000000
F000000000
F000000000
F000000000
F000000000
F000000000
F000000000
F000000000
F000000000
F000000000
F000000000
F000000000
F000000000
F000000000
F000000000
F001FF8000
F01FFFF000
F07FFFFC00
F0FFFFFE00
F1F8007F00
F3E0001F00
F780000F80
FF000007C0
FE000003C0
FE000003C0
FC000003E0
FC000001E0
F8000001E0
F8000001E0
F8000001E0
F8000001E0
F8000001E0
F8000001E0
F0000001E0
F0000001E0
F0000001E0
F0000001E0
F0000001E0
F0000001E0
F0000001E0
F0000001E0
F0000001E0
F0000001E0
F0000001E0
F0000001E0
F0000001E0
F0000001E0
F0000001E0
F0000001E0
F0000001E0
F0000001E0
F0000001E0
F0000001E0
F0000001E0
F0000001E0
F0000001E0
F0000001E0
F0000001E0
F0000001E0
F0000001E0
ENDCHAR
STARTCHAR 0069
ENCODING 105
SWIDTH 229 0
DWIDTH 19 0
BBX 5 60 7 0
BITMAP
70
F8
F8
F8
F8
F8
F8
70
00
00
00
00
00
00
00
00
F0
F0
F0
F0
F0
F0
F0
F0
F0
F0
F0
F0
F0
F0
F0
F0
F0
F0
F0
F0
F0
F0
F0
F0
F0
F0
F0
F0
F0
F0
F0
F0
F0
F0
F0
F0
F0
F0
F0
F0
F0
F0
F0
F0
ENDCHAR
STARTCHAR 006A
ENCODING 106
SWIDTH 229 0
DWIDTH 19 0
BBX 16 80 -4 -20
BITMAP
000E
001F
001F
001F
001F
001F
001F
000E
0000
0000
0000
0000
0000
0000
0000
0000
001E
001E
001E
001E
001E
001E
001E
001E
001E
001E
001E
001E
001E
001E
001E
001E
001E
001E
001E
001E
001E
001E
001E
001E
001E
001E
001E
001E
001E
001E
001E
001E
001E
001E
001E
001E
001E
001E
001E
001E
001E
001E
001E
001E
001E
001E
001E
001E
001E
001E
001E
001E
001E
001E
001E
001E
001E
001E
003C
007C
FFF8
FFF0
FFE0
3F80
ENDCHAR
STARTCHAR 006B
ENCODING 107
SWIDTH 483 0
DWIDTH 40 0
BBX 33 63 7 0
BITMAP
F000000000
F000000000
F000000000
F000000000
F000000000
F000000000
F000000000
F000000000
F000000000
F000000000
F000000000
F000000000
F000000000
F000000000
F000000000
F000000000
F000000000
F000000000
F000000000
F000003E00
F000007C00
F00000F800
F00001F000
F00001E000
F00003C000
F00007C000
F0000F8000
F0001F0000
F0003E0000
F0007C0000
F000F80000
F001F00000
F003E00000
F007C00000
F007800000
F00F000000
F01E000000
F03E000000
F07E000000
F0FF000000
F1FF000000
F3EF800000
F7C7C00000
FF83C00000
FE03E00000
FC01F00000
F800F80000
F000780000
F0007C0000
F0003E0000
F0001F0000
F0000F0000
F0000F8000
F00007C000
F00003E000
F00001E000
F00001F000
F00000F800
F000007C00
F000003C00
F000003E00
F000001F00
F000000F80
ENDCHAR
STARTCHAR 006C
ENCODING 108
SWIDTH 229 0
DWIDTH 19 0
BBX 4 63 7 0
BITMAP
F0
F0
F0
F0
F0
F0
F0
F0
F0
F0
F0
F0
F0
F0
F0
F0
F0
F0
F0
F0
F0
F0
F0
F0
F0
F0
F0
F0
F0
F0
F0
F0
F0
F0
F0
F0
F0
F0
F0
F0
F0
F0
F0
F0
F0
F0
F0
F0
F0
F0
F0
F0
F0
F0
F0
F0
F0
F0
F0
F0
F0
F0
F0
ENDCHAR
STARTCHAR 006D
ENCODING 109
SWIDTH 881 0
DWIDTH 73 0
BBX 59 45 7 0
BITMAP
0007FC0000FF8000
F01FFF8003FFF000
F07FFFE00FFFFC00
F1FFFFF03FFFFE00
F3F003F87E003F00
F3C000F8F8001F80
F780007CF0000780
FF00003DE00007C0
FE00003FC00003C0
FC00001FC00003C0
FC00001F800001E0
FC00001F800001E0
F800000F800001E0
F800000F000001E0
F800000F000001E0
F800000F000001E0
F800000F000001E0
F000000F000001E0
F000000F000001E0
F000000F000001E0
F000000F000001E0
F000000F000001E0
F000000F000001E0
F000000F000001E0
F000000F000001E0
F000000F000001E0
F000000F000001E0
F000000F000001E0
F000000F000001E0
F000000F000001E0
F000000F000001E0
F000000F000001E0
F000000F000001E0
F000000F000001E0
F000000F000001E0
F000000F000001E0
F000000F000001E0
F000000F000001E0
F000000F000001E0
F000000F000001E0
F000000F000001E0
F000000F000001E0
F000000F000001E0
F000000F000001E0
F000000F000001E0
ENDCHAR
STARTCHAR 006E
ENCODING 110
SWIDTH 591 0
DWIDTH 49 0
BBX 35 45 7 0
BITMAP
0001FF8000
F01FFFF000
F07FFFFC00
F0FFFFFE00
F1F8007F00
F3E0001F00
F780000F80
FF000007C0
FE000003C0
FE000003C0
FC000003E0
FC000001E0
F8000001E0
F8000001E0
F8000001E0
F8000001E0
F8000001E0
F8000001E0
F0000001E0
F0000001E0
F0000001E0
F0000001E0
F0000001E0
F0000001E0
F0000001E0
F0000001E0
F0000001E0
F0000001E0
F0000001E0
F0000001E0
F0000001E0
F0000001E0
F0000001E0
F0000001E0
F0000001E0
F0000001E0
F0000001E0
F0000001E0
F0000001E0
F0000001E0
F0000001E0
F0000001E0
F0000001E0
F0000001E0
F0000001E0
ENDCHAR
STARTCHAR 006F
ENCODING 111
SWIDTH 591 0
DWIDTH 49 0
BBX 39 46 5 -1
BITMAP
0001FF0000
001FFFF000
007FFFFC00
00FFFFFE00
01FC007F00
03F0001F80
07C00007C0
0F800003E0
1F000001F0
1E000001F0
3E000000F8
3C00000078
7C00000078
780000007C
780000003C
780000003C
F80000003E
F00000003E
F00000001E
F00000001E
F00000001E
F00000001E
F00000001E
F00000001E
F00000001E
F00000001E
F00000001E
F00000001E
F00000003E
F80000003E
780000003C
780000003C
780000007C
3C0000007C
3C00000078
3E000000F8
1F000001F0
1F000001F0
0F800003E0
07C00007C0
03F0001F80
01FC007F00
00FFFFFE00
003FFFFC00
000FFFF000
0001FF0000
ENDCHAR
STARTCHAR 0070
ENCODING 112
SWIDTH 591 0
DWIDTH 49 0
BBX 37 65 7 -20
BITMAP
0003FF0000
F01FFFE000
F07FFFF800
F0FFFFFC00
F1F800FE00
F3E0003F00
F780000F80
FF000007C0
FE000007C0
FE000003E0
FC000001E0
FC000001F0
FC000001F0
F8000000F0
F8000000F0
F8000000F8
F8000000F8
F800000078
F000000078
F000000078
F000000078
F000000078
F000000078
F000000078
F000000078
F000000078
F000000078
F000000078
F800000078
F8000000F8
F8000000F8
F8000000F0
F8000000F0
FC000001F0
FC000001E0
FC000003E0
FE000003E0
FE000007C0
FF00000F80
F780001F80
F3E0003F00
F1F800FE00
F0FFFFFC00
F07FFFF000
F01FFFE000
F003FF0000
F000000000
F000000000
F000000000
F000000000
F000000000
F000000000
F000000000
F000000000
F000000000
F000000000
F000000000
F000000000
F000000000
F000000000
F000000000
F000000000
F000000000
F000000000
F000000000
ENDCHAR
STARTCHAR 0071
ENCODING 113
SWIDTH 591 0
DWIDTH 49 0
BBX 37 65 5 -20
BITMAP
0007FE0000
003FFFC078
007FFFF078
01FFFFF878
03F800FC78
07E0003E78
0FC0000F78
0F800007F8
1F000003F8
3E000003F8
3E000001F8
3C000001F8
7C000001F8
78000000F8
78000000F8
F8000000F8
F8000000F8
F0000000F8
F0000000F8
F000000078
F000000078
F000000078
F000000078
F000000078
F000000078
F000000078
F000000078
F0000000F8
F0000000F8
F0000000F8
F8000000F8
78000000F8
78000000F8
78000001F8
7C000001F8
3C000001F8
3E000003F8
1E000003F8
1F000007F8
0F80000F78
07E0003E78
03F800FC78
01FFFFF878
00FFFFF078
003FFFC078
0007FE0078
0000000078
0000000078
0000000078
0000000078
0000000078
0000000078
0000000078
0000000078
0000000078
0000000078
0000000078
0000000078
0000000078
0000000078
0000000078
0000000078
0000000078
0000000078
0000000078
ENDCHAR
STARTCHAR 0072
ENCODING 114
SWIDTH 386 0
DWIDTH 32 0
BBX 23 45 7 0
BITMAP
0007FE
F01FFE
F07FFE
F0FFFE
F1F800
F3E000
F3C000
F78000
F70000
FE0000
FE0000
FC0000
FC0000
F80000
F80000
F80000
F80000
F80000
F00000
F00000
F00000
F00000
F00000
F00000
F00000
F00000
F00000
F00000
F00000
F00000
F00000
F00000
F00000
F00000
F00000
F00000
F00000
F00000
F00000
F00000
F00000
F00000
F00000
F00000
F00000
ENDCHAR
STARTCHAR 0073
ENCODING 115
SWIDTH 471 0
DWIDTH 39 0
BBX 32 46 3 -1
BITMAP
000FFE00
00FFFFF0
03FFFFFE
07FFFFFE
0FE000FC
1F80001C
3E000000
3C000000
3C000000
3C000000
3C000000
3C000000
3C000000
3C000000
3E000000
1F000000
1F800000
0FC00000
07F00000
03FE0000
00FF8000
003FF000
000FFC00
0001FF80
00007FC0
00000FF0
000003F8
000000FC
0000007E
0000003E
0000001F
0000001F
0000000F
0000000F
0000000F
0000000F
0000000F
0000001E
0000003E
C000007E
F00000FC
FF0007F8
FFFFFFF0
7FFFFFC0
1FFFFF00
00FFF800
ENDCHAR
STARTCHAR 0074
ENCODING 116
SWIDTH 338 0
DWIDTH 28 0
BBX 25 56 1 -1
BITMAP
00600000
00E00000
00E00000
00E00000
00E00000
00E00000
01E00000
01E00000
01E00000
01E00000
03E00000
3FFFFF00
FFFFFF00
FFFFFF00
01E00000
01E00000
01E00000
01E00000
01E00000
01E00000
01E00000
01E00000
01E00000
01E00000
01E00000
01E00000
01E00000
01E00000
01E00000
01E00000
01E00000
01E00000
01E00000
01E00000
01E00000
01E00000
01E00000
01E00000
01E00000
01E00000
01E00000
01E00000
01E00000
01E00000
01E00000
01E00000
01E00000
01E00000
01F00000
01F00000
00F80000
00FC0000
007FFF80
003FFF80
001FFF80
0003FE00
ENDCHAR
STARTCHAR 0075
ENCODING 117
SWIDTH 591 0
DWIDTH 49 0
BBX 35 45 7 -1
BITMAP
F0000001E0
F0000001E0
F0000001E0
F0000001E0
F0000001E0
F0000001E0
F0000001E0
F0000001E0
F0000001E0
F0000001E0
F0000001E0
F0000001E0
F0000001E0
F0000001E0
F0000001E0
F0000001E0
F0000001E0
F0000001E0
F0000001E0
F0000001E0
F0000001E0
F0000001E0
F0000001E0
F0000001E0
F0000001E0
F0000001E0
F0000001E0
F0000001E0
F0000003E0
F0000003E0
F0000003E0
F0000003E0
F0000003E0
F0000007E0
F8000007E0
7800000FE0
7800000FE0
7C00001FE0
3E00003DE0
3F0000F9E0
1FC003F1E0
0FFFFFE1E0
07FFFFC1E0
01FFFF01E0
003FF00000
ENDCHAR
STARTCHAR 0076
ENCODING 118
SWIDTH 459 0
DWIDTH 38 0
BBX 38 44 0 0
BITMAP
F00000003C
7800000078
7800000078
7800000078
3C000000F0
3C000000F0
1E000001F0
1E000001E0
1E000001E0
0F000003C0
0F000003C0
0F000007C0
0780000780
0780000780
03C0000F00
03C0000F00
03C0000F00
01E0001E00
01E0001E00
00F0003E00
00F0003C00
00F0003C00
0078007800
0078007800
0078007800
003C00F000
003C00F000
001E01E000
001E01E000
001E01E000
000F03C000
000F03C000
0007038000
0007878000
0007878000
0003CF0000
0003CF0000
0003CF0000
0001CE0000
0001FE0000
0000FC0000
0000FC0000
0000FC0000
0000780000
ENDCHAR
STARTCHAR 0077
ENCODING 119
SWIDTH 724 0
DWIDTH 60 0
BBX 58 44 1 0
BITMAP
F800001E000003C0
7800001F00000780
7800001F00000780
7C00003F00000780
3C00003F80000F80
3C00003F80000F00
3C00007B80000F00
3E00007BC0000F00
1E00007BC0001E00
1E0000F3C0001E00
1E0000F1E0001E00
0F0000F1E0001E00
0F0001E1E0003C00
0F0001E0F0003C00
0F8001E0F0003C00
078003C0F0003C00
078003C078007800
078003C078007800
03C0078078007800
03C007803C00F000
03C007803C00F000
03C00F003C00F000
01E00F001E00F000
01E00F001E01E000
01E01E001E01E000
00F01E000F01E000
00F01E000F01E000
00F03C000F03C000
00F03C000703C000
00783C000783C000
0078780007838000
0078780007878000
0038780003C78000
003C700003C78000
003CF00003C70000
003CF00001CF0000
001CE00001EF0000
001CE00001EF0000
001FE00000EE0000
000FC00000FE0000
000FC00000FE0000
000FC000007C0000
000F8000007C0000
00078000007C0000
ENDCHAR
STARTCHAR 0078
ENCODING 120
SWIDTH 495 0
DWIDTH 41 0
BBX 35 44 3 0
BITMAP
F8000003C0
78000007C0
3C00000780
3E00000F00
1F00001F00
0F00003E00
0F80003C00
07C0007800
03C000F800
01E000F000
01F001E000
00F003E000
007803C000
007C078000
003E0F8000
001E0F0000
000F1E0000
000FBC0000
0007FC0000
0003F80000
0003F00000
0001F00000
0003F80000
0003F80000
0007BC0000
000FBE0000
001F1E0000
001E0F0000
003E0F8000
007C078000
007803C000
00F003E000
01F001F000
01E000F000
03C0007800
07C0007C00
0F80003C00
0F00001E00
1E00001F00
3E00000F80
3C00000780
78000007C0
F8000003E0
F0000001E0
ENDCHAR
STARTCHAR 0079
ENCODING 121
SWIDTH 459 0
DWIDTH 38 0
BBX 38 64 0 -20
BITMAP
F00000003C
7800000078
7800000078
7800000078
3C000000F0
3C000000F0
3E000001F0
1E000001E0
1E000001E0
0F000003C0
0F000003C0
0F000007C0
0780000780
0780000780
03C0000F00
03C0000F00
03C0000F00
01E0001E00
01E0001E00
01E0003E00
00F0003C00
00F0003C00
0078007800
0078007800
0078007800
003C00F000
003C00F000
001C01E000
001E01E000
001E01E000
000F03C000
000F03C000
000F03C000
0007878000
0007878000
0003870000
0003CF0000
0003CF0000
0001CE0000
0001FE0000
0001FC0000
0000FC0000
0000FC0000
0000780000
0000780000
0000F80000
0000F00000
0001F00000
0001E00000
0001E00000
0003E00000
0003C00000
0003C00000
0007800000
0007800000
000F800000
000F000000
001F000000
003E000000
007C000000
FFFC000000
FFF8000000
FFE0000000
7F80000000
ENDCHAR
STARTCHAR 007A
ENCODING 122
SWIDTH 459 0
DWIDTH 38 0
BBX 32 44 3 0
BITMAP
3FFFFFFE
3FFFFFFE
3FFFFFFE
3FFFFFFE
0000003C
00000078
000000F8
000000F0
000001E0
000003E0
000007C0
00000780
00000F80
00001F00
00001E00
00003E00
00007C00
00007800
0000F000
0001F000
0001E000
0003C000
0007C000
00078000
000F0000
001F0000
001E0000
003C0000
007C0000
00F80000
00F00000
01F00000
03E00000
03C00000
07800000
0F800000
0F000000
1E000000
3E000000
3C000000
7FFFFFFF
FFFFFFFF
FFFFFFFF
FFFFFFFF
ENDCHAR
STARTCHAR 007B
ENCODING 123
SWIDTH 350 0
DWIDTH 29 0
BBX 24 72 2 -13
BITMAP
00001F
0000FF
0003FF
0007FF
000FE0
001F80
001F00
003E00
003C00
003C00
003C00
003C00
003C00
003C00
003C00
003C00
003C00
003C00
003C00
003C00
003C00
003C00
003C00
003C00
003C00
003C00
003C00
003800
007800
007800
007800
00F000
01F000
0FE000
FF8000
FC0000
FF8000
1FC000
03E000
01F000
00F800
007800
007800
007800
003C00
003C00
003C00
003C00
003C00
003C00
003C00
003C00
003C00
003C00
003C00
003C00
003C00
003C00
003C00
003C00
003C00
003C00
003C00
003C00
003E00
001E00
001F00
000FE0
0007FF
0003FF
0001FF
00001F
ENDCHAR
STARTCHAR 007C
ENCODING 124
SWIDTH 543 0
DWIDTH 45 0
BBX 3 84 21 -21
BITMAP
E0
E0
E0
E0
E0
E0
E0
E0
E0
E0
E0
E0
E0
E0
E0
E0
E0
E0
E0
E0
E0
E0
E0
E0
E0
E0
E0
E0
E0
E0
E0
E0
E0
E0
E0
E0
E0
E0
E0
E0
E0
E0
E0
E0
E0
E0
E0
E0
E0
E0
E0
E0
E0
E0
E0
E0
E0
E0
E0
E0
E0
E0
E0
E0
E0
E0
E0
E0
E0
E0
E0
E0
E0
E0
E0
E0
E0
E0
E0
E0
E0
E0
E0
E0
ENDCHAR
STARTCHAR 007D
ENCODING 125
SWIDTH 350 0
DWIDTH 29 0
BBX 24 72 3 -13
BITMAP
F80000
FF0000
FFC000
FFE000
07F000
01F800
00F800
007C00
003C00
003C00
003C00
003C00
003C00
003C00
003C00
003C00
003C00
003C00
003C00
003C00
003C00
003C00
003C00
003C00
003C00
003C00
003C00
001C00
001E00
001E00
001E00
000F00
000F80
0007F0
0001FF
00003F
0001FF
0003F8
0007C0
000F80
001F00
001E00
001E00
001E00
003C00
003C00
003C00
003C00
003C00
003C00
003C00
003C00
003C00
003C00
003C00
003C00
003C00
003C00
003C00
003C00
003C00
003C00
003C00
003C00
007C00
007800
01F800
03F000
FFE000
FFC000
FF8000
F80000
ENDCHAR
STARTCHAR 007E
ENCODING 126
SWIDTH 567 0
DWIDTH 47 0
BBX 39 9 4 25
BITMAP
01FC000002
0FFF800006
1FFFE0000E
3F9FFC001E
7C01FF007C
F0007FF3F8
E0000FFFF0
C00003FFE0
8000007F00
ENDCHAR
STARTCHAR 00A0
ENCODING 160
SWIDTH 265 0
DWIDTH 22 0
BBX 0 0 0 0
BITMAP
ENDCHAR
STARTCHAR 00A1
ENCODING 161
SWIDTH 241 0
DWIDTH 20 0
BBX 6 60 7 -15
BITMAP
78
FC
FC
FC
FC
FC
FC
78
00
00
00
00
00
00
00
00
30
30
30
30
30
30
30
30
70
70
78
78
78
78
78
78
78
78
78
78
78
78
78
78
78
78
78
78
78
78
78
78
78
78
78
78
78
78
78
78
78
78
78
78
ENDCHAR
STARTCHAR 00A2
ENCODING 162
SWIDTH 567 0
DWIDTH 47 0
BBX 31 61 8 -1
BITMAP
0000F000
0000F000
0000F000
0000F000
0000F000
0000F000
0000F000
0001FF80
000FFFF8
003FFFFE
007FFFFE
01FC003C
03F00004
07E00000
07C00000
0F800000
0F000000
1E000000
1E000000
3C000000
3C000000
3C000000
78000000
78000000
78000000
78000000
78000000
78000000
70000000
F0000000
F0000000
F0000000
78000000
78000000
78000000
78000000
78000000
78000000
7C000000
3C000000
3C000000
3E000000
1E000000
1F000000
0F800000
0FC00000
07E00000
03F00002
01FC003E
00FFFFFE
003FFFFE
000FFFF8
0001FF80
0000F000
0000F000
0000F000
0000F000
0000F000
0000F000
0000F000
0000F000
ENDCHAR
STARTCHAR 00A3
ENCODING 163
SWIDTH 567 0
DWIDTH 47 0
BBX 40 60 3 0
BITMAP
00000FFE00
00007FFFE0
0000FFFFF8
0003FFFFFC
0007F001F8
0007C00018
000F800000
001F000000
001E000000
001E000000
003C000000
003C000000
003C000000
003C000000
003C000000
003C000000
007C000000
007C000000
007C000000
007C000000
007C000000
007C000000
007C000000
007C000000
007C000000
007C000000
007C000000
007C000000
007C000000
7FFFFFFC00
7FFFFFFC00
7FFFFFFC00
007C000000
007C000000
007C000000
007C000000
007C000000
007C000000
007C000000
007C000000
007C000000
007C000000
007C000000
007C000000
007C000000
0078000000
0078000000
0078000000
0078000000
00F8000000
00F0000000
01F0000000
01E0000000
03E0000000
07C0000000
1F80000000
7FFFFFFFFF
FFFFFFFFFF
FFFFFFFFFF
FFFFFFFFFF
ENDCHAR
STARTCHAR 00A4
ENCODING 164
SWIDTH 567 0
DWIDTH 47 0
BBX 37 37 5 11
BITMAP
2000000020
7000000070
F803FE00F8
7C1FFFC1F0
3E3FFFE3E0
1FFF07FFC0
0FF800FF80
07E0003F00
07C0001E00
0780000F00
0F00000780
0E00000780
1E000003C0
1C000001C0
3C000001C0
3C000001E0
3C000001E0
3C000001E0
38000001E0
38000001E0
3C000001E0
3C000001E0
3C000001C0
1C000001C0
1E000003C0
1E00000380
0F00000780
0780000F00
07C0001F00
07E0003F00
0FF800FF80
1FFF07FFC0
3E3FFFE3E0
7C1FFF81F0
F803FE00F8
7000000070
2000000020
ENDCHAR
STARTCHAR 00A5
ENCODING 165
SWIDTH 567 0
DWIDTH 47 0
BBX 43 59 2 0
BITMAP
F800000003E0
7800000003C0
7C00000007C0
3C0000000780
3E0000000F80
1E0000000F00
1F0000001F00
0F0000001E00
0F8000003E00
078000003C00
07C000007800
03E000007800
01E00000F000
01F00000F000
00F00001E000
00F80001E000
00780003C000
007C0007C000
003C00078000
003E000F8000
001E000F0000
001F001E0000
000F001E0000
000F803C0000
0007803C0000
0003C0780000
0003C0780000
0001E0F00000
0001F0F00000
0000F1E00000
0000F9E00000
00007BC00000
03FFFFFFF800
03FFFFFFF800
03FFFFFFF800
00001F000000
00001F000000
00001F000000
00001F000000
00001F000000
00001F000000
00001F000000
00001F000000
03FFFFFFF800
03FFFFFFF800
03FFFFFFF800
00001F000000
00001F000000
00001F000000
00001F000000
00001F000000
00001F000000
00001F000000
00001F000000
00001F000000
00001F000000
00001F000000
00001F000000
00001F000000
ENDCHAR
STARTCHAR 00A6
ENCODING 166
SWIDTH 543 0
DWIDTH 45 0
BBX 3 84 21 -21
BITMAP
E0
E0
E0
E0
E0
E0
E0
E0
E0
E0
E0
E0
E0
E0
E0
E0
E0
E0
E0
E0
E0
E0
E0
E0
E0
E0
E0
E0
E0
E0
E0
00
00
00
00
00
00
00
00
00
00
00
00
00
00
00
00
00
00
00
00
00
00
E0
E0
E0
E0
E0
E0
E0
E0
E0
E0
E0
E0
E0
E0
E0
E0
E0
E0
E0
E0
E0
E0
E0
E0
E0
E0
E0
E0
E0
E0
E0
ENDCHAR
STARTCHAR 00A7
ENCODING 167
SWIDTH 519 0
DWIDTH 43 0
BBX 32 63 5 0
BITMAP
000FFE00
00FFFFF0
03FFFFFE
07FF1FFE
0FC0007C
1F000004
1E000000
3E000000
3C000000
3C000000
3C000000
3C000000
3C000000
3E000000
1F000000
1F800000
0FE00000
07F80000
01FF0000
00FFE000
01FFFC00
07F7FF00
0F80FFC0
1F001FF0
1E0007F8
3C0001FC
3C00007C
7800003E
7800001E
7800001F
7800000F
7800000F
7800000F
7C00001F
3E00001E
1F00001E
1FC0003E
0FF0007C
03FC00F8
00FF81F0
003FF7E0
000FFFC0
0001FF00
00007FC0
00000FF0
000003F8
000000FC
0000007C
0000003E
0000001E
0000001E
0000001E
0000001E
0000001E
0000001E
0000003E
0000007C
E00000F8
FC0003F8
FFF1FFE0
7FFFFFC0
1FFFFF00
00FFF000
ENDCHAR
STARTCHAR 00A8
ENCODING 168
SWIDTH 579 0
DWIDTH 48 0
BBX 20 7 14 53
BITMAP
7000E0
F001F0
F801F0
F801F0
F801F0
F001F0
7000E0
ENDCHAR
STARTCHAR 00A9
ENCODING 169
SWIDTH 833 0
DWIDTH 69 0
BBX 61 61 4 -1
BITMAP
0000007FF0000000
000007FFFF000000
00003FFFFFE00000
0000FFFFFFF80000
0001FF0007FC0000
0007F80000FF0000
000FE000003F8000
003F8000000FC000
007E00000003F000
00FC00000001F800
01F800000000F800
01F0000000007C00
03E0000FF8003E00
07C0007FFF001F00
078001FFFF800F00
0F0003FFFF800780
1F0007F0070007C0
1E000FC0000003C0
3E001F00000003C0
3C001E00000001E0
3C003E00000001E0
78007C00000000F0
78007C00000000F0
78007800000000F0
7000F80000000070
F000F80000000078
F000F00000000078
F000F00000000078
F000F00000000078
F000F00000000078
F000F00000000078
F000F00000000078
F000F00000000078
F000F00000000078
F000F00000000078
F000F00000000078
7000F80000000070
78007800000000F0
78007800000000F0
78007C00000000F0
3C007C00000001E0
3C003E00000001E0
3E001F00000003E0
1E001F80000003C0
1F000FE0070007C0
0F0007FFFF000780
0F8003FFFF000F00
07C000FFFE001F00
03E0001FF0003E00
01F0000000007C00
01F800000000FC00
00FC00000001F800
007E00000003F000
003F8000000FE000
000FE000003F8000
0007F80000FF0000
0001FF0007FC0000
0000FFFFFFF80000
00003FFFFFE00000
000007FFFF000000
0000007FF0000000
ENDCHAR
STARTCHAR 00AA
ENCODING 170
SWIDTH 338 0
DWIDTH 28 0
BBX 21 27 3 33
BITMAP
01FE00
0FFF80
3FFFE0
3F87E0
1801F0
0000F0
000070
000078
000078
000078
000078
003FF8
03FFF8
1FFFF8
3FC078
7C0078
780078
F00078
F00078
F00078
F000F8
F001F8
7803F8
7E0FF8
3FFF78
1FFE78
07F038
ENDCHAR
STARTCHAR 00AB
ENCODING 171
SWIDTH 434 0
DWIDTH 36 0
BBX 30 33 3 5
BITMAP
000C0010
000E003C
001E003C
003C0078
007C00F0
007801E0
00F003E0
01E003C0
03E00780
07C00F80
07801F00
0F803E00
1F003E00
3E007C00
7C00F800
7C01F000
F801F000
7C01F000
7C00F800
3E007C00
1F003E00
0F803E00
07801F00
07C00F80
03E00780
01E003C0
00F003E0
007801E0
007800F0
003C0078
001E003C
000E003C
00040010
ENDCHAR
STARTCHAR 00AC
ENCODING 172
SWIDTH 567 0
DWIDTH 47 0
BBX 38 20 4 11
BITMAP
FFFFFFFFFC
FFFFFFFFFC
FFFFFFFFFC
000000003C
000000003C
000000003C
000000003C
000000003C
000000003C
000000003C
000000003C
000000003C
000000003C
000000003C
000000003C
000000003C
000000003C
000000003C
000000003C
000000003C
ENDCHAR
STARTCHAR 00AD
ENCODING 173
SWIDTH 326 0
DWIDTH 27 0
BBX 19 3 4 21
BITMAP
FFFFE0
FFFFE0
FFFFE0
ENDCHAR
STARTCHAR 00AE
ENCODING 174
SWIDTH 833 0
DWIDTH 69 0
BBX 61 61 4 -1
BITMAP
0000007FF0000000
000007FFFF000000
00003FFFFFE00000
0000FFFFFFF80000
0001FF0007FC0000
0007F80000FF0000
000FE000003F8000
003F8000000FC000
007E00000003F000
00FC00000001F800
01F800000000F800
01F0000000007C00
03E0000000003E00
07C007FFC0001F00
078007FFF8000F00
0F0007FFFC000780
1F000787FE0007C0
1E0007803F0003C0
3E0007800F8003C0
3C0007800F8001E0
3C000780078001E0
78000780078000F0
78000780078000F0
78000780078000F0
7000078007800070
F000078007800078
F00007800F800078
F00007800F000078
F00007801F000078
F00007807E000078
F00007FFFC000078
F00007FFF0000078
F00007FFF0000078
F0000780F0000078
F0000780F8000078
F000078078000078
700007807C000070
780007803E0000F0
780007801E0000F0
780007801F0000F0
3C0007800F0001E0
3C0007800F8001E0
3E00078007C003E0
1E00078007C003C0
1F00078003E007C0
0F00078001E00780
0F80078001F00F00
07C0078000F81F00
03E0000000003E00
01F0000000007C00
01F800000000FC00
00FC00000001F800
007E00000003F000
003F8000000FE000
000FE000003F8000
0007F80000FF0000
0001FF0007FC0000
0000FFFFFFF80000
00003FFFFFE00000
000007FFFF000000
0000007FF0000000
ENDCHAR
STARTCHAR 00AF
ENCODING 175
SWIDTH 507 0
DWIDTH 42 0
BBX 42 3 0 63
BITMAP
FFFFFFFFFFC0
FFFFFFFFFFC0
FFFFFFFFFFC0
ENDCHAR
STARTCHAR 00B0
ENCODING 176
SWIDTH 434 0
DWIDTH 36 0
BBX 24 24 6 36
BITMAP
00FF00
03FFC0
0FFFF0
1FC3F8
3F00FC
7C003C
78001E
F8001E
F0000F
F0000F
E0000F
E00007
E00007
E0000F
F0000F
F0000F
F8001E
78001E
7C003C
3F00FC
1FC3F8
0FFFF0
03FFC0
00FF00
ENDCHAR
STARTCHAR 00B1
ENCODING 177
SWIDTH 567 0
DWIDTH 47 0
BBX 39 49 4 0
BITMAP
0000380000
0000380000
0000380000
0000380000
0000380000
0000380000
0000380000
0000380000
0000380000
0000380000
0000380000
0000380000
0000380000
0000380000
0000380000
0000380000
0000380000
0000380000
FFFFFFFFFE
FFFFFFFFFE
FFFFFFFFFE
0000380000
0000380000
0000380000
0000380000
0000380000
0000380000
0000380000
0000380000
0000380000
0000380000
0000380000
0000380000
0000380000
0000380000
0000380000
0000380000
0000380000
0000380000
0000000000
0000000000
0000000000
0000000000
0000000000
0000000000
0000000000
FFFFFFFFFE
FFFFFFFFFE
FFFFFFFFFE
ENDCHAR
STARTCHAR 00B2
ENCODING 178
SWIDTH 338 0
DWIDTH 28 0
BBX 24 37 2 23
BITMAP
00FF00
07FFC0
1FFFF0
3FFFF8
7E00FC
38007C
10003C
00001E
00001E
00001E
00001E
00001E
00001E
00003C
00003C
00007C
000078
0000F0
0001F0
0003E0
0007C0
000780
000F00
001E00
003C00
007800
00F000
01E000
03C000
078000
1F0000
3E0000
7C0000
FFFFFF
FFFFFF
FFFFFF
FFFFFF
ENDCHAR
STARTCHAR 00B3
ENCODING 179
SWIDTH 338 0
DWIDTH 28 0
BBX 24 37 2 23
BITMAP
01FF00
0FFFE0
3FFFF0
7FFFF8
7C00FC
70003C
00003E
00001E
00001E
00001E
00001E
00001E
00003C
00003C
000078
0003F0
07FFE0
07FF80
07FFF0
001FF8
00007C
00003E
00001E
00000F
00000F
00000F
00000F
00000F
00000F
00001F
00001E
80003E
F000FC
FFDFF8
FFFFF0
3FFFC0
07FE00
ENDCHAR
STARTCHAR 00B4
ENCODING 180
SWIDTH 579 0
DWIDTH 48 0
BBX 16 13 16 50
BITMAP
007F
007E
00FC
01F8
01F0
03E0
07C0
0F80
1F00
1E00
3C00
7800
E000
ENDCHAR
STARTCHAR 00B5
ENCODING 181
SWIDTH 591 0
DWIDTH 49 0
BBX 35 64 7 -20
BITMAP
F0000001E0
F0000001E0
F0000001E0
F0000001E0
F0000001E0
F0000001E0
F0000001E0
F0000001E0
F0000001E0
F0000001E0
F0000001E0
F0000001E0
F0000001E0
F0000001E0
F0000001E0
F0000001E0
F0000001E0
F0000001E0
F0000001E0
F0000001E0
F0000001E0
F0000001E0
F0000001E0
F0000001E0
F0000001E0
F0000001E0
F0000001E0
F0000001E0
F0000003E0
F0000003E0
F0000003E0
F0000003E0
F8000003E0
F8000007E0
F8000007E0
F800000FE0
FC00000FE0
FC00001FE0
FE00003DE0
FF0000F9E0
FFC003F1E0
F7FFFFE1E0
F3FFFF81E0
F0FFFE01E0
F01FF00000
F000000000
F000000000
F000000000
F000000000
F000000000
F000000000
F000000000
F000000000
F000000000
F000000000
F000000000
F000000000
F000000000
F000000000
F000000000
F000000000
F000000000
F000000000
F000000000
ENDCHAR
STARTCHAR 00B6
ENCODING 182
SWIDTH 652 0
DWIDTH 54 0
BBX 40 74 5 -11
BITMAP
000FFFFFFF
007FFFFFFF
01FFFFFFFF
03FFFFFFFF
07FFFFC01F
0FFFFFC01F
1FFFFFC01F
3FFFFFC01F
3FFFFFC01F
7FFFFFC01F
7FFFFFC01F
7FFFFFC01F
FFFFFFC01F
FFFFFFC01F
FFFFFFC01F
FFFFFFC01F
FFFFFFC01F
FFFFFFC01F
FFFFFFC01F
FFFFFFC01F
FFFFFFC01F
FFFFFFC01F
FFFFFFC01F
FFFFFFC01F
FFFFFFC01F
FFFFFFC01F
FFFFFFC01F
FFFFFFC01F
FFFFFFC01F
7FFFFFC01F
7FFFFFC01F
7FFFFFC01F
3FFFFFC01F
3FFFFFC01F
1FFFFFC01F
1FFFFFC01F
0FFFFFC01F
07FFFFC01F
03FFFFC01F
00FFFFC01F
001FFBC01F
000003C01F
000003C01F
000003C01F
000003C01F
000003C01F
000003C01F
000003C01F
000003C01F
000003C01F
000003C01F
000003C01F
000003C01F
000003C01F
000003C01F
000003C01F
000003C01F
000003C01F
000003C01F
000003C01F
000003C01F
000003C01F
000003C01F
000003C01F
000003C01F
000003C01F
000003C01F
000003C01F
000003C01F
000003C01F
000003C01F
000003C01F
000003C01F
000003C01F
ENDCHAR
STARTCHAR 00B7
ENCODING 183
SWIDTH 241 0
DWIDTH 20 0
BBX 6 8 7 25
BITMAP
78
FC
FC
FC
FC
FC
FC
78
ENDCHAR
STARTCHAR 00B8
ENCODING 184
SWIDTH 205 0
DWIDTH 17 0
BBX 14 20 2 -20
BITMAP
03C0
0780
0700
0F00
0E00
1F80
1FE0
1FF0
01F8
0078
007C
003C
003C
003C
007C
00F8
FFF8
FFF0
FFC0
FF00
ENDCHAR
STARTCHAR 00B9
ENCODING 185
SWIDTH 338 0
DWIDTH 28 0
BBX 15 36 3 23
BITMAP
003E
007E
01FE
07FE
0FFE
3F9E
FF1E
7C1E
701E
201E
001E
001E
001E
001E
001E
001E
001E
001E
001E
001E
001E
001E
001E
001E
001E
001E
001E
001E
001E
001E
001E
001E
001E
001E
001E
001E
ENDCHAR
STARTCHAR 00BA
ENCODING 186
SWIDTH 362 0
DWIDTH 30 0
BBX 24 27 3 33
BITMAP
00FF00
03FFC0
0FFFF0
1FC3F8
3E007C
3C003C
78001E
70001E
F0000F
F0000F
F0000F
F0000F
F0000F
E0000F
E0000F
F0000F
F0000F
F0000F
F0000F
78001E
78001E
7C003C
3E007C
1F81F8
0FFFF0
07FFC0
00FF00
ENDCHAR
STARTCHAR 00BB
ENCODING 187
SWIDTH 434 0
DWIDTH 36 0
BBX 30 33 3 5
BITMAP
20008000
F001C000
F001E000
7800F000
3C00F800
1E007800
1F003C00
0F001E00
07801F00
07C00F80
03E00780
01E007C0
01F003E0
00F801F0
007C01F8
003E00F8
003E007C
003E00F8
007C00F8
00F801F0
01F003E0
01E007C0
03E00780
07C00F80
07801F00
0F001E00
1F003C00
1E007800
3C00F800
7800F000
F001E000
F001C000
2000C000
ENDCHAR
STARTCHAR 00BC
ENCODING 188
SWIDTH 736 0
DWIDTH 61 0
BBX 55 60 2 -1
BITMAP
003E000000F000
007E000000E000
01FE000001E000
07FE000003C000
0FFE000003C000
3F9E0000078000
FF1E0000078000
7C1E00000F0000
701E00000F0000
201E00001E0000
001E00001C0000
001E00003C0000
001E0000780000
001E0000780000
001E0000F00000
001E0000F00000
001E0001E00000
001E0001E00000
001E0003C00000
001E0003800000
001E0007800000
001E000F000000
001E000F000000
001E001E000000
001E001E000780
001E003C000780
001E0038000F80
001E0078001F80
001E0070003F80
001E00F0003F80
001E01E0007B80
001E01E000F380
001E03C000E380
001E03C001E380
001E078003C380
001E0700038380
00000F00078380
00000E000F0380
00001E001E0380
00003C001E0380
00003C003C0380
00007800780380
00007800700380
0000F000F00380
0000E001E00380
0001E001C00380
0001C003C00380
0003C007FFFFFE
00078007FFFFFE
00078007FFFFFE
000F0000000380
000F0000000380
001E0000000380
001C0000000380
003C0000000380
00780000000380
00780000000380
00F00000000380
00F00000000380
00000000000380
ENDCHAR
STARTCHAR 00BD
ENCODING 189
SWIDTH 736 0
DWIDTH 61 0
BBX 57 60 0 -1
BITMAP
003E000001E00000
007E000001C00000
01FE000003C00000
07FE000007800000
0FFE000007800000
3F9E00000F000000
FF1E00000F000000
7C1E00001E000000
701E00001E000000
201E00003C000000
001E000038000000
001E000078000000
001E0000F0000000
001E0000F0000000
001E0001E0000000
001E0001E0000000
001E0003C0000000
001E0003C0000000
001E000780000000
001E000700000000
001E000F00000000
001E001E00000000
001E001E00000000
001E003C007F8000
001E003C03FFE000
001E00780FFFF800
001E00701FFFFC00
001E00F03F007E00
001E00E01C003E00
001E01E008001E00
001E03C000000F00
001E03C000000F00
001E078000000F00
001E078000000F00
001E0F0000000F00
001E0E0000000F00
00001E0000001E00
00001C0000001E00
00003C0000003E00
0000780000003C00
0000780000007800
0000F0000000F800
0000F0000001F000
0001E0000003E000
0001C0000003C000
0003C00000078000
00038000000F0000
00078000001E0000
000F0000003C0000
000F000000780000
001E000000F00000
001E000001E00000
003C000003C00000
003800000F800000
007800001F000000
00F000003E000000
00F000007FFFFF80
01E000007FFFFF80
01E000007FFFFF80
000000007FFFFF80
ENDCHAR
STARTCHAR 00BE
ENCODING 190
SWIDTH 736 0
DWIDTH 61 0
BBX 59 61 2 -1
BITMAP
01FF000000000000
0FFFE0000003C000
3FFFF00000038000
7FFFF80000078000
7C00FC00000F0000
70003C00000F0000
00003E00001E0000
00001E00001E0000
00001E00003C0000
00001E00003C0000
00001E0000780000
00001E0000700000
00003C0000F00000
00003C0001E00000
0000780001E00000
0003F00003C00000
07FFE00003C00000
07FF800007800000
07FFF00007800000
001FF8000F000000
00007C000E000000
00003E001E000000
00001E003C000000
00000F003C000000
00000F0078000000
00000F0078007800
00000F00F0007800
00000F00E000F800
00000F01E001F800
00001F01C003F800
00001E03C003F800
80003E078007B800
F000FC07800F3800
FFDFF80F000E3800
FFFFF00F001E3800
3FFFC01E003C3800
07FE001C00383800
0000003C00783800
0000003800F03800
0000007801E03800
000000F001E03800
000000F003C03800
000001E007803800
000001E007003800
000003C00F003800
000003801E003800
000007801C003800
000007003C003800
00000F007FFFFFE0
00001E007FFFFFE0
00001E007FFFFFE0
00003C0000003800
00003C0000003800
0000780000003800
0000700000003800
0000F00000003800
0001E00000003800
0001E00000003800
0003C00000003800
0003C00000003800
0000000000003800
ENDCHAR
STARTCHAR 00BF
ENCODING 191
SWIDTH 422 0
DWIDTH 35 0
BBX 30 61 3 -16
BITMAP
0000F000
0001F800
0001F800
0001F800
0001F800
0001F800
0001F800
0000F000
00000000
00000000
00000000
00000000
00000000
00000000
00000000
00000000
00007000
00007000
00007000
00007000
00007000
0000F000
0000F000
0000E000
0001E000
0001E000
0003C000
0007C000
000F8000
001F0000
003E0000
007C0000
00F80000
01F00000
07E00000
0FC00000
1F000000
1E000000
3E000000
7C000000
78000000
78000000
F0000000
F0000000
F0000000
F0000000
F0000000
F0000000
F0000000
F0000000
70000000
78000000
78000000
3C000000
3E000000
1F000038
0FC001F8
07FFFFFC
03FFFFF0
00FFFF80
001FF800
ENDCHAR
STARTCHAR 00C0
ENCODING 192
SWIDTH 604 0
DWIDTH 50 0
BBX 50 77 0 0
BITMAP
0003F000000000
0001F800000000
0001F800000000
0000FC00000000
00007E00000000
00003F00000000
00001F00000000
00000F80000000
000007C0000000
000001E0000000
000000F0000000
00000078000000
0000003C000000
00000000000000
00000000000000
00000000000000
00000000000000
00000000000000
000000E0000000
000001E0000000
000001F0000000
000003F0000000
000003F0000000
000003F8000000
000007F8000000
000007FC000000
00000FBC000000
00000F3C000000
00000F3E000000
00001F1E000000
00001E1F000000
00003E0F000000
00003C0F000000
00003C0F800000
00007C07800000
00007807C00000
0000F807C00000
0000F003C00000
0000F003E00000
0001F001E00000
0001E001F00000
0003E001F00000
0003E000F00000
0003C000F80000
0007C000F80000
00078000780000
000F80007C0000
000F80003C0000
000F00003E0000
001F00003E0000
001E00001E0000
003E00001F0000
003E00001F0000
003FFFFFFF8000
007FFFFFFF8000
007FFFFFFF8000
00FFFFFFFFC000
00F8000007C000
01F0000003E000
01F0000003E000
01E0000001E000
03E0000001F000
03E0000001F000
07C0000000F800
07C0000000F800
07800000007800
0F800000007C00
0F000000007C00
1F000000003E00
1F000000003E00
1E000000001E00
3E000000001F00
3C000000001F00
7C000000000F80
7C000000000F80
78000000000780
F80000000007C0
ENDCHAR
STARTCHAR 00C1
ENCODING 193
SWIDTH 604 0
DWIDTH 50 0
BBX 50 77 0 0
BITMAP
00000003F80000
00000003F00000
00000007E00000
0000000FC00000
0000000F800000
0000001F000000
0000003E000000
0000007C000000
000000F8000000
000000F0000000
000001E0000000
000003C0000000
00000700000000
00000000000000
00000000000000
00000000000000
00000000000000
00000000000000
000000E0000000
000001E0000000
000001F0000000
000003F0000000
000003F0000000
000003F8000000
000007F8000000
000007FC000000
00000FBC000000
00000F3C000000
00000F3E000000
00001F1E000000
00001E1F000000
00003E0F000000
00003C0F000000
00003C0F800000
00007C07800000
00007807C00000
0000F807C00000
0000F003C00000
0000F003E00000
0001F001E00000
0001E001F00000
0003E001F00000
0003E000F00000
0003C000F80000
0007C000F80000
00078000780000
000F80007C0000
000F80003C0000
000F00003E0000
001F00003E0000
001E00001E0000
003E00001F0000
003E00001F0000
003FFFFFFF8000
007FFFFFFF8000
007FFFFFFF8000
00FFFFFFFFC000
00F8000007C000
01F0000003E000
01F0000003E000
01E0000001E000
03E0000001F000
03E0000001F000
07C0000000F800
07C0000000F800
07800000007800
0F800000007C00
0F000000007C00
1F000000003E00
1F000000003E00
1E000000001E00
3E000000001F00
3C000000001F00
7C000000000F80
7C000000000F80
78000000000780
F80000000007C0
ENDCHAR
STARTCHAR 00C2
ENCODING 194
SWIDTH 604 0
DWIDTH 50 0
BBX 50 77 0 0
BITMAP
000001E0000000
000003F0000000
000007F8000000
000007F8000000
00000FFC000000
00001F3E000000
00003E3F000000
00007C0F000000
00007807800000
0000F003C00000
0001E001E00000
0003C000F00000
00078000780000
00000000000000
00000000000000
00000000000000
00000000000000
00000000000000
000000E0000000
000001E0000000
000001F0000000
000003F0000000
000003F0000000
000003F8000000
000007F8000000
000007FC000000
00000FBC000000
00000F3C000000
00000F3E000000
00001F1E000000
00001E1F000000
00003E0F000000
00003C0F000000
00003C0F800000
00007C07800000
00007807C00000
0000F807C00000
0000F003C00000
0000F003E00000
0001F001E00000
0001E001F00000
0003E001F00000
0003E000F00000
0003C000F80000
0007C000F80000
00078000780000
000F80007C0000
000F80003C0000
000F00003E0000
001F00003E0000
001E00001E0000
003E00001F0000
003E00001F0000
003FFFFFFF8000
007FFFFFFF8000
007FFFFFFF8000
00FFFFFFFFC000
00F8000007C000
01F0000003E000
01F0000003E000
01E0000001E000
03E0000001F000
03E0000001F000
07C0000000F800
07C0000000F800
07800000007800
0F800000007C00
0F000000007C00
1F000000003E00
1F000000003E00
1E000000001E00
3E000000001F00
3C000000001F00
7C000000000F80
7C000000000F80
78000000000780
F80000000007C0
ENDCHAR
STARTCHAR 00C3
ENCODING 195
SWIDTH 604 0
DWIDTH 50 0
BBX 50 74 0 0
BITMAP
00007C00070000
0001FF000F0000
0003FF800E0000
0007E7C00E0000
000783F01E0000
000F00F83C0000
000E007EFC0000
000E003FF80000
000E001FF00000
000E0007C00000
00000000000000
00000000000000
00000000000000
00000000000000
00000000000000
000000E0000000
000001E0000000
000001F0000000
000003F0000000
000003F0000000
000003F8000000
000007F8000000
000007FC000000
00000FBC000000
00000F3C000000
00000F3E000000
00001F1E000000
00001E1F000000
00003E0F000000
00003C0F000000
00003C0F800000
00007C07800000
00007807C00000
0000F807C00000
0000F003C00000
0000F003E00000
0001F001E00000
0001E001F00000
0003E001F00000
0003E000F00000
0003C000F80000
0007C000F80000
00078000780000
000F80007C0000
000F80003C0000
000F00003E0000
001F00003E0000
001E00001E0000
003E00001F0000
003E00001F0000
003FFFFFFF8000
007FFFFFFF8000
007FFFFFFF8000
00FFFFFFFFC000
00F8000007C000
01F0000003E000
01F0000003E000
01E0000001E000
03E0000001F000
03E0000001F000
07C0000000F800
07C0000000F800
07800000007800
0F800000007C00
0F000000007C00
1F000000003E00
1F000000003E00
1E000000001E00
3E000000001F00
3C000000001F00
7C000000000F80
7C000000000F80
78000000000780
F80000000007C0
ENDCHAR
STARTCHAR 00C4
ENCODING 196
SWIDTH 604 0
DWIDTH 50 0
BBX 50 74 0 0
BITMAP
0000E001C00000
0001E003E00000
0001F003E00000
0001F003E00000
0001F003E00000
0001E003E00000
0000E001C00000
00000000000000
00000000000000
00000000000000
00000000000000
00000000000000
00000000000000
00000000000000
00000000000000
000000E0000000
000001E0000000
000001F0000000
000003F0000000
000003F0000000
000003F8000000
000007F8000000
000007FC000000
00000FBC000000
00000F3C000000
00000F3E000000
00001F1E000000
00001E1F000000
00003E0F000000
00003C0F000000
00003C0F800000
00007C07800000
00007807C00000
0000F807C00000
0000F003C00000
0000F003E00000
0001F001E00000
0001E001F00000
0003E001F00000
0003E000F00000
0003C000F80000
0007C000F80000
00078000780000
000F80007C0000
000F80003C0000
000F00003E0000
001F00003E0000
001E00001E0000
003E00001F0000
003E00001F0000
003FFFFFFF8000
007FFFFFFF8000
007FFFFFFF8000
00FFFFFFFFC000
00F8000007C000
01F0000003E000
01F0000003E000
01E0000001E000
03E0000001F000
03E0000001F000
07C0000000F800
07C0000000F800
07800000007800
0F800000007C00
0F000000007C00
1F000000003E00
1F000000003E00
1E000000001E00
3E000000001F00
3C000000001F00
7C000000000F80
7C000000000F80
78000000000780
F80000000007C0
ENDCHAR
STARTCHAR 00C5
ENCODING 197
SWIDTH 604 0
DWIDTH 50 0
BBX 50 73 0 0
BITMAP
000007F0000000
00001FFC000000
00003FFE000000
00007C0F000000
00007807800000
0000F003800000
0000F003C00000
0000E003C00000
0000E003C00000
0000E003C00000
0000F003800000
00007003800000
00007807800000
00003C1F000000
00003FFE000000
00000FFC000000
000003F0000000
000003F0000000
000003F0000000
000003F8000000
000007F8000000
000007FC000000
00000FBC000000
00000F3C000000
00000F3E000000
00001F1E000000
00001E1F000000
00003E0F000000
00003C0F000000
00003C0F800000
00007C07800000
00007807C00000
0000F807C00000
0000F003C00000
0000F003E00000
0001F001E00000
0001E001F00000
0003E001F00000
0003E000F00000
0003C000F80000
0007C000F80000
00078000780000
000F80007C0000
000F80003C0000
000F00003E0000
001F00003E0000
001E00001E0000
003E00001F0000
003E00001F0000
003FFFFFFF8000
007FFFFFFF8000
007FFFFFFF8000
00FFFFFFFFC000
00F8000007C000
01F0000003E000
01F0000003E000
01E0000001E000
03E0000001F000
03E0000001F000
07C0000000F800
07C0000000F800
07800000007800
0F800000007C00
0F000000007C00
1F000000003E00
1F000000003E00
1E000000001E00
3E000000001F00
3C000000001F00
7C000000000F80
7C000000000F80
78000000000780
F80000000007C0
ENDCHAR
STARTCHAR 00C6
ENCODING 198
SWIDTH 809 0
DWIDTH 67 0
BBX 62 59 0 0
BITMAP
0000003FFFFFFFFC
0000003FFFFFFFFC
0000007FFFFFFFFC
0000007FFFFFFFFC
000000F878000000
000000F078000000
000001F078000000
000001E078000000
000001E078000000
000003C078000000
000003C078000000
0000078078000000
0000078078000000
00000F0078000000
00000F0078000000
00001F0078000000
00001E0078000000
00001E0078000000
00003C0078000000
00003C0078000000
0000780078000000
0000780078000000
0000F00078000000
0000F00078000000
0001F00078000000
0001E00078000000
0003E0007FFFFFF0
0003C0007FFFFFF0
0003C0007FFFFFF0
000780007FFFFFF0
0007800078000000
000F000078000000
000F000078000000
001F000078000000
001FFFFFF8000000
003FFFFFF8000000
003FFFFFF8000000
003FFFFFF8000000
0078000078000000
0078000078000000
00F0000078000000
00F0000078000000
01F0000078000000
01E0000078000000
03E0000078000000
03C0000078000000
03C0000078000000
0780000078000000
0780000078000000
0F80000078000000
0F00000078000000
1F00000078000000
1E00000078000000
3E00000078000000
3C00000078000000
7C0000007FFFFFFC
7C0000007FFFFFFC
780000007FFFFFFC
F80000007FFFFFFC
ENDCHAR
STARTCHAR 00C7
ENCODING 199
SWIDTH 628 0
DWIDTH 52 0
BBX 44 80 5 -20
BITMAP
000001FFE000
00001FFFFF00
0000FFFFFFE0
0003FFFFFFF0
000FFC000FF0
001FE00001E0
003F80000020
007E00000000
00FC00000000
01F800000000
03F000000000
07E000000000
07C000000000
0F8000000000
0F8000000000
1F0000000000
1F0000000000
3E0000000000
3E0000000000
3C0000000000
7C0000000000
7C0000000000
7C0000000000
780000000000
780000000000
780000000000
F80000000000
F80000000000
F80000000000
F80000000000
F80000000000
F80000000000
F80000000000
F80000000000
F80000000000
780000000000
780000000000
780000000000
780000000000
7C0000000000
7C0000000000
3C0000000000
3E0000000000
3E0000000000
3E0000000000
1F0000000000
1F0000000000
0F8000000000
0FC000000000
07C000000000
03E000000000
03F000000000
01F800000000
00FE00000000
007F00000000
003FC0000040
001FFC0007C0
0007FFFFFFC0
0001FFFFFFC0
00007FFFFF00
000007FFE000
000001E00000
000001C00000
000003C00000
000003800000
000007E00000
000007F80000
000007FC0000
0000007E0000
0000001E0000
0000001F0000
0000000F0000
0000000F0000
0000000F0000
0000001F0000
0000003E0000
00003FFE0000
00003FFC0000
00003FF00000
00003FC00000
ENDCHAR
STARTCHAR 00C8
ENCODING 200
SWIDTH 555 0
DWIDTH 46 0
BBX 33 77 8 0
BITMAP
07E0000000
03F0000000
03F0000000
01F8000000
00FC000000
007E000000
003E000000
001F000000
000F800000
0003C00000
0001E00000
0000F00000
0000780000
0000000000
0000000000
0000000000
0000000000
0000000000
FFFFFFFF80
FFFFFFFF80
FFFFFFFF80
FFFFFFFF80
F800000000
F800000000
F800000000
F800000000
F800000000
F800000000
F800000000
F800000000
F800000000
F800000000
F800000000
F800000000
F800000000
F800000000
F800000000
F800000000
F800000000
F800000000
F800000000
F800000000
F800000000
F800000000
FFFFFFFE00
FFFFFFFE00
FFFFFFFE00
FFFFFFFE00
F800000000
F800000000
F800000000
F800000000
F800000000
F800000000
F800000000
F800000000
F800000000
F800000000
F800000000
F800000000
F800000000
F800000000
F800000000
F800000000
F800000000
F800000000
F800000000
F800000000
F800000000
F800000000
F800000000
F800000000
F800000000
FFFFFFFF80
FFFFFFFF80
FFFFFFFF80
FFFFFFFF80
ENDCHAR
STARTCHAR 00C9
ENCODING 201
SWIDTH 555 0
DWIDTH 46 0
BBX 33 77 8 0
BITMAP
00000FE000
00000FC000
00001F8000
00003F0000
00003E0000
00007C0000
0000F80000
0001F00000
0003E00000
0003C00000
0007800000
000F000000
001C000000
0000000000
0000000000
0000000000
0000000000
0000000000
FFFFFFFF80
FFFFFFFF80
FFFFFFFF80
FFFFFFFF80
F800000000
F800000000
F800000000
F800000000
F800000000
F800000000
F800000000
F800000000
F800000000
F800000000
F800000000
F800000000
F800000000
F800000000
F800000000
F800000000
F800000000
F800000000
F800000000
F800000000
F800000000
F800000000
FFFFFFFE00
FFFFFFFE00
FFFFFFFE00
FFFFFFFE00
F800000000
F800000000
F800000000
F800000000
F800000000
F800000000
F800000000
F800000000
F800000000
F800000000
F800000000
F800000000
F800000000
F800000000
F800000000
F800000000
F800000000
F800000000
F800000000
F800000000
F800000000
F800000000
F800000000
F800000000
F800000000
FFFFFFFF80
FFFFFFFF80
FFFFFFFF80
FFFFFFFF80
ENDCHAR
STARTCHAR 00CA
ENCODING 202
SWIDTH 555 0
DWIDTH 46 0
BBX 33 77 8 0
BITMAP
0001E00000
0003F00000
0007F80000
0007F80000
000FFC0000
001F3E0000
003E3F0000
007C0F0000
0078078000
00F003C000
01E001E000
03C000F000
0780007800
0000000000
0000000000
0000000000
0000000000
0000000000
FFFFFFFF80
FFFFFFFF80
FFFFFFFF80
FFFFFFFF80
F800000000
F800000000
F800000000
F800000000
F800000000
F800000000
F800000000
F800000000
F800000000
F800000000
F800000000
F800000000
F800000000
F800000000
F800000000
F800000000
F800000000
F800000000
F800000000
F800000000
F800000000
F800000000
FFFFFFFE00
FFFFFFFE00
FFFFFFFE00
FFFFFFFE00
F800000000
F800000000
F800000000
F800000000
F800000000
F800000000
F800000000
F800000000
F800000000
F800000000
F800000000
F800000000
F800000000
F800000000
F800000000
F800000000
F800000000
F800000000
F800000000
F800000000
F800000000
F800000000
F800000000
F800000000
F800000000
FFFFFFFF80
FFFFFFFF80
FFFFFFFF80
FFFFFFFF80
ENDCHAR
STARTCHAR 00CB
ENCODING 203
SWIDTH 555 0
DWIDTH 46 0
BBX 33 74 8 0
BITMAP
00E001C000
01E003E000
01F003E000
01F003E000
01F003E000
01E003E000
00E001C000
0000000000
0000000000
0000000000
0000000000
0000000000
0000000000
0000000000
0000000000
FFFFFFFF80
FFFFFFFF80
FFFFFFFF80
FFFFFFFF80
F800000000
F800000000
F800000000
F800000000
F800000000
F800000000
F800000000
F800000000
F800000000
F800000000
F800000000
F800000000
F800000000
F800000000
F800000000
F800000000
F800000000
F800000000
F800000000
F800000000
F800000000
F800000000
FFFFFFFE00
FFFFFFFE00
FFFFFFFE00
FFFFFFFE00
F800000000
F800000000
F800000000
F800000000
F800000000
F800000000
F800000000
F800000000
F800000000
F800000000
F800000000
F800000000
F800000000
F800000000
F800000000
F800000000
F800000000
F800000000
F800000000
F800000000
F800000000
F800000000
F800000000
F800000000
F800000000
FFFFFFFF80
FFFFFFFF80
FFFFFFFF80
FFFFFFFF80
ENDCHAR
STARTCHAR 00CC
ENCODING 204
SWIDTH 253 0
DWIDTH 21 0
BBX 16 77 -2 0
BITMAP
FC00
7E00
7E00
3F00
1F80
0FC0
07C0
03E0
01F0
0078
003C
001E
000F
0000
0000
0000
0000
0000
003E
003E
003E
003E
003E
003E
003E
003E
003E
003E
003E
003E
003E
003E
003E
003E
003E
003E
003E
003E
003E
003E
003E
003E
003E
003E
003E
003E
003E
003E
003E
003E
003E
003E
003E
003E
003E
003E
003E
003E
003E
003E
003E
003E
003E
003E
003E
003E
003E
003E
003E
003E
003E
003E
003E
003E
003E
003E
003E
ENDCHAR
STARTCHAR 00CD
ENCODING 205
SWIDTH 253 0
DWIDTH 21 0
BBX 16 77 8 0
BITMAP
007F
007E
00FC
01F8
01F0
03E0
07C0
0F80
1F00
1E00
3C00
7800
E000
0000
0000
0000
0000
0000
F800
F800
F800
F800
F800
F800
F800
F800
F800
F800
F800
F800
F800
F800
F800
F800
F800
F800
F800
F800
F800
F800
F800
F800
F800
F800
F800
F800
F800
F800
F800
F800
F800
F800
F800
F800
F800
F800
F800
F800
F800
F800
F800
F800
F800
F800
F800
F800
F800
F800
F800
F800
F800
F800
F800
F800
F800
F800
F800
ENDCHAR
STARTCHAR 00CE
ENCODING 206
SWIDTH 253 0
DWIDTH 21 0
BBX 24 77 -1 0
BITMAP
003C00
007E00
00FF00
00FF00
01FF80
03E7C0
07C7E0
0F81E0
0F00F0
1E0078
3C003C
78001E
F0000F
000000
000000
000000
000000
000000
007C00
007C00
007C00
007C00
007C00
007C00
007C00
007C00
007C00
007C00
007C00
007C00
007C00
007C00
007C00
007C00
007C00
007C00
007C00
007C00
007C00
007C00
007C00
007C00
007C00
007C00
007C00
007C00
007C00
007C00
007C00
007C00
007C00
007C00
007C00
007C00
007C00
007C00
007C00
007C00
007C00
007C00
007C00
007C00
007C00
007C00
007C00
007C00
007C00
007C00
007C00
007C00
007C00
007C00
007C00
007C00
007C00
007C00
007C00
ENDCHAR
STARTCHAR 00CF
ENCODING 207
SWIDTH 253 0
DWIDTH 21 0
BBX 20 74 1 0
BITMAP
7000E0
F001F0
F801F0
F801F0
F801F0
F001F0
7000E0
000000
000000
000000
000000
000000
000000
000000
000000
01F000
01F000
01F000
01F000
01F000
01F000
01F000
01F000
01F000
01F000
01F000
01F000
01F000
01F000
01F000
01F000
01F000
01F000
01F000
01F000
01F000
01F000
01F000
01F000
01F000
01F000
01F000
01F000
01F000
01F000
01F000
01F000
01F000
01F000
01F000
01F000
01F000
01F000
01F000
01F000
01F000
01F000
01F000
01F000
01F000
01F000
01F000
01F000
01F000
01F000
01F000
01F000
01F000
01F000
01F000
01F000
01F000
01F000
01F000
ENDCHAR
STARTCHAR 00D0
ENCODING 208
SWIDTH 712 0
DWIDTH 59 0
BBX 51 59 2 0
BITMAP
03FFFFF8000000
03FFFFFF800000
03FFFFFFF00000
03FFFFFFFC0000
03C00007FF0000
03C000007F8000
03C000001FE000
03C0000007F000
03C0000003F800
03C0000000F800
03C00000007C00
03C00000007E00
03C00000003E00
03C00000001F00
03C00000001F00
03C00000000F80
03C00000000F80
03C00000000780
03C000000007C0
03C000000007C0
03C000000003C0
03C000000003C0
03C000000003E0
03C000000003E0
03C000000003E0
03C000000003E0
03C000000003E0
03C000000003E0
FFFFFFE00003E0
FFFFFFE00003E0
FFFFFFE00003E0
FFFFFFE00003E0
03C000000003E0
03C000000003E0
03C000000003E0
03C000000003E0
03C000000003C0
03C000000003C0
03C000000007C0
03C000000007C0
03C000000007C0
03C00000000F80
03C00000000F80
03C00000000F00
03C00000001F00
03C00000001F00
03C00000003E00
03C00000007C00
03C0000000FC00
03C0000001F800
03C0000003F000
03C000000FE000
03C000001FC000
03C00000FF8000
03C00007FE0000
03FFFFFFFC0000
03FFFFFFE00000
03FFFFFF000000
03FFFFF0000000
ENDCHAR
STARTCHAR 00D1
ENCODING 209
SWIDTH 724 0
DWIDTH 60 0
BBX 44 74 8 0
BITMAP
0003E0003800
000FF8007800
001FFC007000
003F3E007000
003C1F80F000
007807C1E000
007003F7E000
007001FFC000
007000FF8000
0070003E0000
000000000000
000000000000
000000000000
000000000000
000000000000
F800000000F0
FC00000000F0
FC00000000F0
FE00000000F0
FF00000000F0
FF00000000F0
FF80000000F0
F7C0000000F0
F7C0000000F0
F3E0000000F0
F1F0000000F0
F1F0000000F0
F0F8000000F0
F07C000000F0
F03C000000F0
F03E000000F0
F01F000000F0
F00F000000F0
F00F800000F0
F007C00000F0
F003C00000F0
F003E00000F0
F001F00000F0
F000F00000F0
F000F80000F0
F0007C0000F0
F0003C0000F0
F0003E0000F0
F0001F0000F0
F0000F0000F0
F0000F8000F0
F00007C000F0
F00003C000F0
F00003E000F0
F00001F000F0
F00000F000F0
F00000F800F0
F000007C00F0
F000003C00F0
F000003E00F0
F000001F00F0
F000000F00F0
F000000F80F0
F0000007C0F0
F0000003C0F0
F0000003E0F0
F0000001F0F0
F0000000F0F0
F0000000F8F0
F00000007CF0
F00000003EF0
F00000003EF0
F00000001FF0
F00000000FF0
F00000000FF0
F000000007F0
F000000003F0
F000000003F0
F000000001F0
ENDCHAR
STARTCHAR 00D2
ENCODING 210
SWIDTH 761 0
DWIDTH 63 0
BBX 53 78 5 -1
BITMAP
0001F800000000
0000FC00000000
0000FC00000000
00007E00000000
00003F00000000
00001F80000000
00000F80000000
000007C0000000
000003E0000000
000000F0000000
00000078000000
0000003C000000
0000001E000000
00000000000000
00000000000000
00000000000000
00000000000000
000007FF000000
00007FFFF00000
0001FFFFFC0000
0007FFFFFF0000
001FF800FFC000
003FC0001FE000
007F000007F000
00FC000001F800
01F8000000FC00
03F00000007E00
07E00000003F00
07C00000001F00
0F800000000F80
0F800000000F80
1F0000000007C0
1F0000000003C0
3E0000000003E0
3E0000000003E0
3C0000000001E0
7C0000000001F0
7C0000000001F0
7C0000000001F0
780000000000F0
780000000000F0
780000000000F0
F80000000000F8
F80000000000F8
F80000000000F8
F80000000000F8
F80000000000F8
F80000000000F8
F80000000000F8
F80000000000F8
F80000000000F8
F80000000000F8
F80000000000F8
780000000000F0
780000000000F0
780000000000F0
7C0000000001F0
7C0000000001F0
7C0000000001F0
3C0000000001E0
3E0000000003E0
3E0000000003E0
1E0000000003C0
1F0000000007C0
0F000000000780
0F800000000F80
07C00000001F00
07E00000003F00
03E00000003E00
01F8000000FC00
00FC000001F800
007E000003F000
003F80000FE000
001FF800FFC000
0007FFFFFF0000
0003FFFFFC0000
00007FFFF00000
000007FF000000
ENDCHAR
STARTCHAR 00D3
ENCODING 211
SWIDTH 761 0
DWIDTH 63 0
BBX 53 78 5 -1
BITMAP
00000000FE0000
00000000FC0000
00000001F80000
00000003F00000
00000003E00000
00000007C00000
0000000F800000
0000001F000000
0000003E000000
0000003C000000
00000078000000
000000F0000000
000001C0000000
00000000000000
00000000000000
00000000000000
00000000000000
000007FF000000
00007FFFF00000
0001FFFFFC0000
0007FFFFFF0000
001FF800FFC000
003FC0001FE000
007F000007F000
00FC000001F800
01F8000000FC00
03F00000007E00
07E00000003F00
07C00000001F00
0F800000000F80
0F800000000F80
1F0000000007C0
1F0000000003C0
3E0000000003E0
3E0000000003E0
3C0000000001E0
7C0000000001F0
7C0000000001F0
7C0000000001F0
780000000000F0
780000000000F0
780000000000F0
F80000000000F8
F80000000000F8
F80000000000F8
F80000000000F8
F80000000000F8
F80000000000F8
F80000000000F8
F80000000000F8
F80000000000F8
F80000000000F8
F80000000000F8
780000000000F0
780000000000F0
780000000000F0
7C0000000001F0
7C0000000001F0
7C0000000001F0
3C0000000001E0
3E0000000003E0
3E0000000003E0
1E0000000003C0
1F0000000007C0
0F000000000780
0F800000000F80
07C00000001F00
07E00000003F00
03E00000003E00
01F8000000FC00
00FC000001F800
007E000003F000
003F80000FE000
001FF800FFC000
0007FFFFFF0000
0003FFFFFC0000
00007FFFF00000
000007FF000000
ENDCHAR
STARTCHAR 00D4
ENCODING 212
SWIDTH 761 0
DWIDTH 63 0
BBX 53 78 5 -1
BITMAP
00000078000000
000000FC000000
000001FE000000
000001FE000000
000003FF000000
000007CF800000
00000F8FC00000
00001F03C00000
00001E01E00000
00003C00F00000
00007800780000
0000F0003C0000
0001E0001E0000
00000000000000
00000000000000
00000000000000
00000000000000
000007FF000000
00007FFFF00000
0001FFFFFC0000
0007FFFFFF0000
001FF800FFC000
003FC0001FE000
007F000007F000
00FC000001F800
01F8000000FC00
03F00000007E00
07E00000003F00
07C00000001F00
0F800000000F80
0F800000000F80
1F0000000007C0
1F0000000003C0
3E0000000003E0
3E0000000003E0
3C0000000001E0
7C0000000001F0
7C0000000001F0
7C0000000001F0
780000000000F0
780000000000F0
780000000000F0
F80000000000F8
F80000000000F8
F80000000000F8
F80000000000F8
F80000000000F8
F80000000000F8
F80000000000F8
F80000000000F8
F80000000000F8
F80000000000F8
F80000000000F8
780000000000F0
780000000000F0
780000000000F0
7C0000000001F0
7C0000000001F0
7C0000000001F0
3C0000000001E0
3E0000000003E0
3E0000000003E0
1E0000000003C0
1F0000000007C0
0F000000000780
0F800000000F80
07C00000001F00
07E00000003F00
03E00000003E00
01F8000000FC00
00FC000001F800
007E000003F000
003F80000FE000
001FF800FFC000
0007FFFFFF0000
0003FFFFFC0000
00007FFFF00000
000007FF000000
ENDCHAR
STARTCHAR 00D5
ENCODING 213
SWIDTH 761 0
DWIDTH 63 0
BBX 53 75 5 -1
BITMAP
00003E00038000
0000FF80078000
0001FFC0070000
0003F3E0070000
0003C1F80F0000
0007807C1E0000
0007003F7E0000
0007001FFC0000
0007000FF80000
00070003E00000
00000000000000
00000000000000
00000000000000
00000000000000
000007FF000000
00007FFFF00000
0001FFFFFC0000
0007FFFFFF0000
001FF800FFC000
003FC0001FE000
007F000007F000
00FC000001F800
01F8000000FC00
03F00000007E00
07E00000003F00
07C00000001F00
0F800000000F80
0F800000000F80
1F0000000007C0
1F0000000003C0
3E0000000003E0
3E0000000003E0
3C0000000001E0
7C0000000001F0
7C0000000001F0
7C0000000001F0
780000000000F0
780000000000F0
780000000000F0
F80000000000F8
F80000000000F8
F80000000000F8
F80000000000F8
F80000000000F8
F80000000000F8
F80000000000F8
F80000000000F8
F80000000000F8
F80000000000F8
F80000000000F8
780000000000F0
780000000000F0
780000000000F0
7C0000000001F0
7C0000000001F0
7C0000000001F0
3C0000000001E0
3E0000000003E0
3E0000000003E0
1E0000000003C0
1F0000000007C0
0F000000000780
0F800000000F80
07C00000001F00
07E00000003F00
03E00000003E00
01F8000000FC00
00FC000001F800
007E000003F000
003F80000FE000
001FF800FFC000
0007FFFFFF0000
0003FFFFFC0000
00007FFFF00000
000007FF000000
ENDCHAR
STARTCHAR 00D6
ENCODING 214
SWIDTH 761 0
DWIDTH 63 0
BBX 53 75 5 -1
BITMAP
00003800700000
00007800F80000
00007C00F80000
00007C00F80000
00007C00F80000
00007800F80000
00003800700000
00000000000000
00000000000000
00000000000000
00000000000000
00000000000000
00000000000000
00000000000000
000007FF000000
00007FFFF00000
0001FFFFFC0000
0007FFFFFF0000
001FF800FFC000
003FC0001FE000
007F000007F000
00FC000001F800
01F8000000FC00
03F00000007E00
07E00000003F00
07C00000001F00
0F800000000F80
0F800000000F80
1F0000000007C0
1F0000000003C0
3E0000000003E0
3E0000000003E0
3C0000000001E0
7C0000000001F0
7C0000000001F0
7C0000000001F0
780000000000F0
780000000000F0
780000000000F0
F80000000000F8
F80000000000F8
F80000000000F8
F80000000000F8
F80000000000F8
F80000000000F8
F80000000000F8
F80000000000F8
F80000000000F8
F80000000000F8
F80000000000F8
780000000000F0
780000000000F0
780000000000F0
7C0000000001F0
7C0000000001F0
7C0000000001F0
3C0000000001E0
3E0000000003E0
3E0000000003E0
1E0000000003C0
1F0000000007C0
0F000000000780
0F800000000F80
07C00000001F00
07E00000003F00
03E00000003E00
01F8000000FC00
00FC000001F800
007E000003F000
003F80000FE000
001FF800FFC000
0007FFFFFF0000
0003FFFFFC0000
00007FFFF00000
000007FF000000
ENDCHAR
STARTCHAR 00D7
ENCODING 215
SWIDTH 567 0
DWIDTH 47 0
BBX 37 37 5 11
BITMAP
6000000030
F000000078
F8000000F8
7C000001F0
3E000003E0
1F000007C0
0F80000F80
07C0001F00
03E0003E00
01F0007C00
00F800F800
007C01F000
003E03E000
001F07C000
000F8F8000
0007DF0000
0003FE0000
0001FC0000
0000F80000
0001FC0000
0003FE0000
0007DF0000
000F8F8000
001F07C000
003E03E000
007C01F000
00F800F800
01F0007C00
03E0003E00
07C0001F00
0F80000F80
1F000007C0
3E000003E0
7C000001F0
F8000000F8
F000000078
6000000030
ENDCHAR
STARTCHAR 00D8
ENCODING 216
SWIDTH 761 0
DWIDTH 63 0
BBX 53 62 5 -1
BITMAP
00000000000300
000007FF000780
00007FFFF00780
0001FFFFFC0F80
0007FFFFFF1F00
001FF800FFDE00
003FC0001FFE00
007F000007FC00
00FC000001F800
01F8000000FC00
03F0000001FE00
07E0000003FF00
07C0000003DF00
0F80000007CF80
0F8000000F8780
1F0000001F07C0
1F0000001E03C0
3E0000003E03E0
3E0000007C03E0
3C0000007801E0
7C000000F801E0
7C000001F001F0
7C000001E001F0
78000003C000F0
78000007C000F0
7800000F8000F0
F800000F0000F8
F800001F0000F8
F800003E0000F8
F800003C0000F8
F80000780000F8
F80000F80000F8
F80001F00000F8
F80001E00000F8
F80003E00000F8
F80007C00000F8
F80007800000F8
78000F000000F0
78001F000000F0
78003E000000F0
7C003C000001F0
7C007C000001F0
7C00F8000001F0
3C00F0000001E0
3E01F0000003E0
3E03E0000003E0
1E03C0000003C0
1F0780000007C0
0F0F8000000780
0F9F0000000F80
07DE0000001F00
07FE0000003F00
03FC0000003E00
01F8000000FC00
00FC000001F800
01FE000003F000
03FF80000FE000
03DFF800FFC000
07C7FFFFFF0000
0F83FFFFFC0000
07007FFFF00000
020007FF000000
ENDCHAR
STARTCHAR 00D9
ENCODING 217
SWIDTH 724 0
DWIDTH 60 0
BBX 44 78 8 -1
BITMAP
003F00000000
001F80000000
001F80000000
000FC0000000
0007E0000000
0003F0000000
0001F0000000
0000F8000000
00007C000000
00001E000000
00000F000000
000007800000
000003C00000
000000000000
000000000000
000000000000
000000000000
000000000000
F000000000F0
F000000000F0
F000000000F0
F000000000F0
F000000000F0
F000000000F0
F000000000F0
F000000000F0
F000000000F0
F000000000F0
F000000000F0
F000000000F0
F000000000F0
F000000000F0
F000000000F0
F000000000F0
F000000000F0
F000000000F0
F000000000F0
F000000000F0
F000000000F0
F000000000F0
F000000000F0
F000000000F0
F000000000F0
F000000000F0
F000000000F0
F000000000F0
F000000000F0
F000000000F0
F000000000F0
F000000000F0
F000000000F0
F000000000F0
F000000000F0
F000000000F0
F000000000F0
F000000000F0
F000000000F0
F000000000F0
F000000000F0
F000000000F0
F000000000F0
F000000000F0
F800000001F0
7800000001E0
7800000001E0
7C00000003E0
3C00000003C0
3E00000007C0
1F0000000F80
1F8000000F80
0FC000003F00
07E000007E00
03F80001FC00
01FE0007F800
00FFFFFFE000
003FFFFFC000
000FFFFE0000
0000FFE00000
ENDCHAR
STARTCHAR 00DA
ENCODING 218
SWIDTH 724 0
DWIDTH 60 0
BBX 44 78 8 -1
BITMAP
0000001FC000
0000001F8000
0000003F0000
0000007E0000
0000007C0000
000000F80000
000001F00000
000003E00000
000007C00000
000007800000
00000F000000
00001E000000
000038000000
000000000000
000000000000
000000000000
000000000000
000000000000
F000000000F0
F000000000F0
F000000000F0
F000000000F0
F000000000F0
F000000000F0
F000000000F0
F000000000F0
F000000000F0
F000000000F0
F000000000F0
F000000000F0
F000000000F0
F000000000F0
F000000000F0
F000000000F0
F000000000F0
F000000000F0
F000000000F0
F000000000F0
F000000000F0
F000000000F0
F000000000F0
F000000000F0
F000000000F0
F000000000F0
F000000000F0
F000000000F0
F000000000F0
F000000000F0
F000000000F0
F000000000F0
F000000000F0
F000000000F0
F000000000F0
F000000000F0
F000000000F0
F000000000F0
F000000000F0
F000000000F0
F000000000F0
F000000000F0
F000000000F0
F000000000F0
F800000001F0
7800000001E0
7800000001E0
7C00000003E0
3C00000003C0
3E00000007C0
1F0000000F80
1F8000000F80
0FC000003F00
07E000007E00
03F80001FC00
01FE0007F800
00FFFFFFE000
003FFFFFC000
000FFFFE0000
0000FFE00000
ENDCHAR
STARTCHAR 00DB
ENCODING 219
SWIDTH 724 0
DWIDTH 60 0
BBX 44 78 8 -1
BITMAP
00000F000000
00001F800000
00003FC00000
00003FC00000
00007FE00000
0000F9F00000
0001F1F80000
0003E0780000
0003C03C0000
0007801E0000
000F000F0000
001E00078000
003C0003C000
000000000000
000000000000
000000000000
000000000000
000000000000
F000000000F0
F000000000F0
F000000000F0
F000000000F0
F000000000F0
F000000000F0
F000000000F0
F000000000F0
F000000000F0
F000000000F0
F000000000F0
F000000000F0
F000000000F0
F000000000F0
F000000000F0
F000000000F0
F000000000F0
F000000000F0
F000000000F0
F000000000F0
F000000000F0
F000000000F0
F000000000F0
F000000000F0
F000000000F0
F000000000F0
F000000000F0
F000000000F0
F000000000F0
F000000000F0
F000000000F0
F000000000F0
F000000000F0
F000000000F0
F000000000F0
F000000000F0
F000000000F0
F000000000F0
F000000000F0
F000000000F0
F000000000F0
F000000000F0
F000000000F0
F000000000F0
F800000001F0
7800000001E0
7800000001E0
7C00000003E0
3C00000003C0
3E00000007C0
1F0000000F80
1F8000000F80
0FC000003F00
07E000007E00
03F80001FC00
01FE0007F800
00FFFFFFE000
003FFFFFC000
000FFFFE0000
0000FFE00000
ENDCHAR
STARTCHAR 00DC
ENCODING 220
SWIDTH 724 0
DWIDTH 60 0
BBX 44 75 8 -1
BITMAP
0007000E0000
000F001F0000
000F801F0000
000F801F0000
000F801F0000
000F001F0000
0007000E0000
000000000000
000000000000
000000000000
000000000000
000000000000
000000000000
000000000000
000000000000
F000000000F0
F000000000F0
F000000000F0
F000000000F0
F000000000F0
F000000000F0
F000000000F0
F000000000F0
F000000000F0
F000000000F0
F000000000F0
F000000000F0
F000000000F0
F000000000F0
F000000000F0
F000000000F0
F000000000F0
F000000000F0
F000000000F0
F000000000F0
F000000000F0
F000000000F0
F000000000F0
F000000000F0
F000000000F0
F000000000F0
F000000000F0
F000000000F0
F000000000F0
F000000000F0
F000000000F0
F000000000F0
F000000000F0
F000000000F0
F000000000F0
F000000000F0
F000000000F0
F000000000F0
F000000000F0
F000000000F0
F000000000F0
F000000000F0
F000000000F0
F000000000F0
F800000001F0
7800000001E0
7800000001E0
7C00000003E0
3C00000003C0
3E00000007C0
1F0000000F80
1F8000000F80
0FC000003F00
07E000007E00
03F80001FC00
01FE0007F800
00FFFFFFE000
003FFFFFC000
000FFFFE0000
0000FFE00000
ENDCHAR
STARTCHAR 00DD
ENCODING 221
SWIDTH 531 0
DWIDTH 44 0
BBX 44 77 0 0
BITMAP
0000001FC000
0000001F8000
0000003F0000
0000007E0000
0000007C0000
000000F80000
000001F00000
000003E00000
000007C00000
000007800000
00000F000000
00001E000000
000038000000
000000000000
000000000000
000000000000
000000000000
000000000000
F800000001F0
7C00000001E0
7C00000003E0
3E00000003C0
3E00000007C0
1F0000000780
0F0000000F00
0F8000001F00
078000001E00
07C000003E00
03C000003C00
03E000007C00
01E000007800
01F00000F800
00F80000F000
00F80001F000
007C0001E000
003C0003C000
003E0003C000
001E00078000
001F000F8000
000F000F0000
000F801F0000
0007801E0000
0007C03E0000
0003C03C0000
0003E0780000
0001F0780000
0000F0F00000
0000F8F00000
000079E00000
00007DE00000
00003FC00000
00003FC00000
00001F800000
00001F800000
00000F000000
00000F000000
00000F000000
00000F000000
00000F000000
00000F000000
00000F000000
00000F000000
00000F000000
00000F000000
00000F000000
00000F000000
00000F000000
00000F000000
00000F000000
00000F000000
00000F000000
00000F000000
00000F000000
00000F000000
00000F000000
00000F000000
00000F000000
ENDCHAR
STARTCHAR 00DE
ENCODING 222
SWIDTH 591 0
DWIDTH 49 0
BBX 36 59 8 0
BITMAP
F800000000
F800000000
F800000000
F800000000
F800000000
F800000000
F800000000
F800000000
F800000000
F800000000
F800000000
FFFFFC0000
FFFFFFC000
FFFFFFF000
FFFFFFFC00
F80003FE00
F800007F00
F800001F80
F800000FC0
F8000007E0
F8000003E0
F8000001E0
F8000001F0
F8000001F0
F8000000F0
F8000000F0
F8000000F0
F8000000F0
F8000000F0
F8000000F0
F8000000F0
F8000000F0
F8000001F0
F8000001F0
F8000001E0
F8000003E0
F8000003C0
F8000007C0
F800000F80
F800003F00
F80000FE00
F8000FFC00
FFFFFFF000
FFFFFFC000
FFFFFE0000
FFFE000000
F800000000
F800000000
F800000000
F800000000
F800000000
F800000000
F800000000
F800000000
F800000000
F800000000
F800000000
F800000000
F800000000
ENDCHAR
STARTCHAR 00DF
ENCODING 223
SWIDTH 579 0
DWIDTH 48 0
BBX 37 64 7 -1
BITMAP
001FFC0000
00FFFF8000
03FFFFE000
07FFFFF000
0FE001F800
1F80007C00
3E00003E00
3C00001E00
7C00001E00
7800001F00
7800000F00
7800000F00
F000001F00
F000001E00
F000001E00
F000003E00
F000003C00
F000007C00
F00000F800
F00003F000
F00007E000
F0000FC000
F0001F8000
F0003F0000
F0003E0000
F0007C0000
F000780000
F000F80000
F000F00000
F000F00000
F000780000
F000780000
F0007C0000
F0003E0000
F0003F0000
F0001F8000
F0000FE000
F00007F000
F00001F800
F00000FE00
F000007F00
F000001F80
F000000FC0
F0000007E0
F0000003E0
F0000001F0
F0000000F0
F0000000F0
F0000000F8
F000000078
F000000078
F000000078
F000000078
F000000078
F000000078
F0000000F0
F0000000F0
F0100001F0
F01C0003E0
F01F8007C0
F01FFFFF80
F00FFFFF00
F003FFFE00
00003FF000
ENDCHAR
STARTCHAR 00E0
ENCODING 224
SWIDTH 531 0
DWIDTH 44 0
BBX 33 64 4 -1
BITMAP
03F0000000
01F8000000
01F8000000
00FC000000
007E000000
003F000000
001F000000
000F800000
0007C00000
0001E00000
0000F00000
0000780000
00003C0000
0000000000
0000000000
0000000000
0000000000
0000000000
0007FE0000
007FFFC000
03FFFFF000
0FFFDFF800
07F000FC00
0780003E00
0200001E00
0000001F00
0000000F00
0000000F00
0000000780
0000000780
0000000780
0000000780
0000000780
0000000780
0000000780
0000000780
0000000780
00007FFF80
001FFFFF80
00FFFFFF80
03FFFF8780
07FC000780
0FE0000780
1F00000780
3E00000780
7C00000780
7800000780
F800000780
F800000780
F000000780
F000000F80
F000000F80
F000000F80
F000001F80
F800003F80
7800003F80
7800007780
7C0000F780
3E0003E780
1F800FC380
1FFFFF8380
07FFFE0380
03FFF80380
007FC00000
ENDCHAR
STARTCHAR 00E1
ENCODING 225
SWIDTH 531 0
DWIDTH 44 0
BBX 33 64 4 -1
BITMAP
000003F800
000003F000
000007E000
00000FC000
00000F8000
00001F0000
00003E0000
00007C0000
0000F80000
0000F00000
0001E00000
0003C00000
0007000000
0000000000
0000000000
0000000000
0000000000
0000000000
0007FE0000
007FFFC000
03FFFFF000
0FFFDFF800
07F000FC00
0780003E00
0200001E00
0000001F00
0000000F00
0000000F00
0000000780
0000000780
0000000780
0000000780
0000000780
0000000780
0000000780
0000000780
0000000780
00007FFF80
001FFFFF80
00FFFFFF80
03FFFF8780
07FC000780
0FE0000780
1F00000780
3E00000780
7C00000780
7800000780
F800000780
F800000780
F000000780
F000000F80
F000000F80
F000000F80
F000001F80
F800003F80
7800003F80
7800007780
7C0000F780
3E0003E780
1F800FC380
1FFFFF8380
07FFFE0380
03FFF80380
007FC00000
ENDCHAR
STARTCHAR 00E2
ENCODING 226
SWIDTH 531 0
DWIDTH 44 0
BBX 33 64 4 -1
BITMAP
0000F00000
0001F80000
0003FC0000
0003FC0000
0007FE0000
000F9F0000
001F1F8000
003E078000
003C03C000
007801E000
00F000F000
01E0007800
03C0003C00
0000000000
0000000000
0000000000
0000000000
0000000000
0007FE0000
007FFFC000
03FFFFF000
0FFFDFF800
07F000FC00
0780003E00
0200001E00
0000001F00
0000000F00
0000000F00
0000000780
0000000780
0000000780
0000000780
0000000780
0000000780
0000000780
0000000780
0000000780
00007FFF80
001FFFFF80
00FFFFFF80
03FFFF8780
07FC000780
0FE0000780
1F00000780
3E00000780
7C00000780
7800000780
F800000780
F800000780
F000000780
F000000F80
F000000F80
F000000F80
F000001F80
F800003F80
7800003F80
7800007780
7C0000F780
3E0003E780
1F800FC380
1FFFFF8380
07FFFE0380
03FFF80380
007FC00000
ENDCHAR
STARTCHAR 00E3
ENCODING 227
SWIDTH 531 0
DWIDTH 44 0
BBX 33 61 4 -1
BITMAP
003E000380
00FF800780
01FFC00700
03F3E00700
03C1F80F00
07807C1E00
07003F7E00
07001FFC00
07000FF800
070003E000
0000000000
0000000000
0000000000
0000000000
0000000000
0007FE0000
007FFFC000
03FFFFF000
0FFFDFF800
07F000FC00
0780003E00
0200001E00
0000001F00
0000000F00
0000000F00
0000000780
0000000780
0000000780
0000000780
0000000780
0000000780
0000000780
0000000780
0000000780
00007FFF80
001FFFFF80
00FFFFFF80
03FFFF8780
07FC000780
0FE0000780
1F00000780
3E00000780
7C00000780
7800000780
F800000780
F800000780
F000000780
F000000F80
F000000F80
F000000F80
F000001F80
F800003F80
7800003F80
7800007780
7C0000F780
3E0003E780
1F800FC380
1FFFFF8380
07FFFE0380
03FFF80380
007FC00000
ENDCHAR
STARTCHAR 00E4
ENCODING 228
SWIDTH 531 0
DWIDTH 44 0
BBX 33 61 4 -1
BITMAP
007000E000
00F001F000
00F801F000
00F801F000
00F801F000
00F001F000
007000E000
0000000000
0000000000
0000000000
0000000000
0000000000
0000000000
0000000000
0000000000
0007FE0000
007FFFC000
03FFFFF000
0FFFDFF800
07F000FC00
0780003E00
0200001E00
0000001F00
0000000F00
0000000F00
0000000780
0000000780
0000000780
0000000780
0000000780
0000000780
0000000780
0000000780
0000000780
00007FFF80
001FFFFF80
00FFFFFF80
03FFFF8780
07FC000780
0FE0000780
1F00000780
3E00000780
7C00000780
7800000780
F800000780
F800000780
F000000780
F000000F80
F000000F80
F000000F80
F000001F80
F800003F80
7800003F80
7800007780
7C0000F780
3E0003E780
1F800FC380
1FFFFF8380
07FFFE0380
03FFF80380
007FC00000
ENDCHAR
STARTCHAR 00E5
ENCODING 229
SWIDTH 531 0
DWIDTH 44 0
BBX 33 68 4 -1
BITMAP
0001F80000
0007FE0000
001FFF0000
003E0F8000
003C03C000
007801C000
007801C000
007001E000
007001E000
007001E000
007801E000
007801C000
003C03C000
003E078000
001FFF0000
0007FE0000
0001F80000
0000000000
0000000000
0000000000
0000000000
0000000000
0007FE0000
007FFFC000
03FFFFF000
0FFFDFF800
07F000FC00
0780003E00
0200001E00
0000001F00
0000000F00
0000000F00
0000000780
0000000780
0000000780
0000000780
0000000780
0000000780
0000000780
0000000780
0000000780
00007FFF80
001FFFFF80
00FFFFFF80
03FFFF8780
07FC000780
0FE0000780
1F00000780
3E00000780
7C00000780
7800000780
F800000780
F800000780
F000000780
F000000F80
F000000F80
F000000F80
F000001F80
F800003F80
7800003F80
7800007780
7C0000F780
3E0003E780
1F800FC380
1FFFFF8380
07FFFE0380
03FFF80380
007FC00000
ENDCHAR
STARTCHAR 00E6
ENCODING 230
SWIDTH 845 0
DWIDTH 70 0
BBX 61 46 4 -1
BITMAP
0007FE00007FC000
007FFF8003FFF000
03FFFFE00FFFFC00
0FFFFFF01FFFFE00
07E001F83F003F00
0700007C7C001F80
0400003CF80007C0
0000003EF00007C0
0000001FF00003E0
0000001FE00001E0
0000000FE00001F0
0000000FC00000F0
0000000FC00000F0
0000000FC00000F0
0000000F800000F8
0000000F80000078
0000000F80000078
0000000F80000078
0000000F80000078
00007FFF80000078
001FFFFFFFFFFFF8
00FFFFFFFFFFFFF8
03FFFF0FFFFFFFF8
07FC000FFFFFFFF8
0FC0000F00000000
1F00000F00000000
3E00000F00000000
7C00000F00000000
7800000F80000000
F800000F80000000
F800000F80000000
F000000F80000000
F000001F80000000
F000001FC0000000
F000001FC0000000
F000003FC0000000
F800003DE0000000
F8000079F0000000
780000F0F0000000
7C0001F0F8000000
3E0007E07E000060
3F801FC03F8003E0
1FFFFF801FFFFFE0
0FFFFE000FFFFFE0
03FFF80003FFFF00
007FC000003FF000
ENDCHAR
STARTCHAR 00E7
ENCODING 231
SWIDTH 471 0
DWIDTH 39 0
BBX 31 65 5 -20
BITMAP
0001FFC0
000FFFFC
003FFFFE
00FFFFFE
01FC003C
03F00000
07C00000
0F800000
1F000000
1E000000
3E000000
3C000000
7C000000
78000000
78000000
78000000
F8000000
F0000000
F0000000
F0000000
F0000000
F0000000
F0000000
F0000000
F0000000
F0000000
F0000000
F0000000
F0000000
F8000000
F8000000
78000000
78000000
7C000000
3C000000
3E000000
1E000000
1F000000
0F800000
07C00000
07F00002
01FC001E
00FFFFFE
007FFFFE
001FFFF8
0001FFC0
0001E000
0001C000
0003C000
00038000
0007E000
0007F800
0007FC00
00007E00
00001E00
00001F00
00000F00
00000F00
00000F00
00001F00
00003E00
003FFE00
003FFC00
003FF000
003FC000
ENDCHAR
STARTCHAR 00E8
ENCODING 232
SWIDTH 555 0
DWIDTH 46 0
BBX 36 64 5 -1
BITMAP
01F8000000
00FC000000
00FC000000
007E000000
003F000000
001F800000
000F800000
0007C00000
0003E00000
0000F00000
0000780000
00003C0000
00001E0000
0000000000
0000000000
0000000000
0000000000
0000000000
0001FF0000
000FFFE000
003FFFF000
00FFFFFC00
01FC00FE00
03F0003F00
07C0001F00
0F80000F80
0F000007C0
1F000003C0
3E000003E0
3C000001E0
3C000001E0
7C000001E0
78000001F0
78000000F0
F8000000F0
F8000000F0
F0000000F0
F0000000F0
FFFFFFFFF0
FFFFFFFFF0
FFFFFFFFF0
FFFFFFFFF0
F000000000
F000000000
F000000000
F000000000
F000000000
F800000000
7800000000
7800000000
7800000000
7C00000000
3C00000000
3E00000000
1F00000000
1F00000000
0F80000000
07C0000000
03F00000C0
01FC0007C0
00FFFFFFC0
003FFFFFC0
000FFFFE00
0001FFE000
ENDCHAR
STARTCHAR 00E9
ENCODING 233
SWIDTH 555 0
DWIDTH 46 0
BBX 36 64 5 -1
BITMAP
000003F800
000003F000
000007E000
00000FC000
00000F8000
00001F0000
00003E0000
00007C0000
0000F80000
0000F00000
0001E00000
0003C00000
0007000000
0000000000
0000000000
0000000000
0000000000
0000000000
0001FF0000
000FFFE000
003FFFF000
00FFFFFC00
01FC00FE00
03F0003F00
07C0001F00
0F80000F80
0F000007C0
1F000003C0
3E000003E0
3C000001E0
3C000001E0
7C000001E0
78000001F0
78000000F0
F8000000F0
F8000000F0
F0000000F0
F0000000F0
FFFFFFFFF0
FFFFFFFFF0
FFFFFFFFF0
FFFFFFFFF0
F000000000
F000000000
F000000000
F000000000
F000000000
F800000000
7800000000
7800000000
7800000000
7C00000000
3C00000000
3E00000000
1F00000000
1F00000000
0F80000000
07C0000000
03F00000C0
01FC0007C0
00FFFFFFC0
003FFFFFC0
000FFFFE00
0001FFE000
ENDCHAR
STARTCHAR 00EA
ENCODING 234
SWIDTH 555 0
DWIDTH 46 0
BBX 36 64 5 -1
BITMAP
0000780000
0000FC0000
0001FE0000
0001FE0000
0003FF0000
0007CF8000
000F8FC000
001F03C000
001E01E000
003C00F000
0078007800
00F0003C00
01E0001E00
0000000000
0000000000
0000000000
0000000000
0000000000
0001FF0000
000FFFE000
003FFFF000
00FFFFFC00
01FC00FE00
03F0003F00
07C0001F00
0F80000F80
0F000007C0
1F000003C0
3E000003E0
3C000001E0
3C000001E0
7C000001E0
78000001F0
78000000F0
F8000000F0
F8000000F0
F0000000F0
F0000000F0
FFFFFFFFF0
FFFFFFFFF0
FFFFFFFFF0
FFFFFFFFF0
F000000000
F000000000
F000000000
F000000000
F000000000
F800000000
7800000000
7800000000
7800000000
7C00000000
3C00000000
3E00000000
1F00000000
1F00000000
0F80000000
07C0000000
03F00000C0
01FC0007C0
00FFFFFFC0
003FFFFFC0
000FFFFE00
0001FFE000
ENDCHAR
STARTCHAR 00EB
ENCODING 235
SWIDTH 555 0
DWIDTH 46 0
BBX 36 61 5 -1
BITMAP
0038007000
007800F800
007C00F800
007C00F800
007C00F800
007800F800
0038007000
0000000000
0000000000
0000000000
0000000000
0000000000
0000000000
0000000000
0000000000
0001FF0000
000FFFE000
003FFFF000
00FFFFFC00
01FC00FE00
03F0003F00
07C0001F00
0F80000F80
0F000007C0
1F000003C0
3E000003E0
3C000001E0
3C000001E0
7C000001E0
78000001F0
78000000F0
F8000000F0
F8000000F0
F0000000F0
F0000000F0
FFFFFFFFF0
FFFFFFFFF0
FFFFFFFFF0
FFFFFFFFF0
F000000000
F000000000
F000000000
F000000000
F000000000
F800000000
7800000000
7800000000
7800000000
7C00000000
3C00000000
3E00000000
1F00000000
1F00000000
0F80000000
07C0000000
03F00000C0
01FC0007C0
00FFFFFFC0
003FFFFFC0
000FFFFE00
0001FFE000
ENDCHAR
STARTCHAR 00EC
ENCODING 236
SWIDTH 229 0
DWIDTH 19 0
BBX 16 63 -1 0
BITMAP
FC00
7E00
7E00
3F00
1F80
0FC0
07C0
03E0
01F0
0078
003C
001E
000F
0000
0000
0000
0000
0000
0000
00F0
00F0
00F0
00F0
00F0
00F0
00F0
00F0
00F0
00F0
00F0
00F0
00F0
00F0
00F0
00F0
00F0
00F0
00F0
00F0
00F0
00F0
00F0
00F0
00F0
00F0
00F0
00F0
00F0
00F0
00F0
00F0
00F0
00F0
00F0
00F0
00F0
00F0
00F0
00F0
00F0
00F0
00F0
00F0
ENDCHAR
STARTCHAR 00ED
ENCODING 237
SWIDTH 229 0
DWIDTH 19 0
BBX 16 63 4 0
BITMAP
007F
007E
00FC
01F8
01F0
03E0
07C0
0F80
1F00
1E00
3C00
7800
E000
0000
0000
0000
0000
0000
0000
1E00
1E00
1E00
1E00
1E00
1E00
1E00
1E00
1E00
1E00
1E00
1E00
1E00
1E00
1E00
1E00
1E00
1E00
1E00
1E00
1E00
1E00
1E00
1E00
1E00
1E00
1E00
1E00
1E00
1E00
1E00
1E00
1E00
1E00
1E00
1E00
1E00
1E00
1E00
1E00
1E00
1E00
1E00
1E00
ENDCHAR
STARTCHAR 00EE
ENCODING 238
SWIDTH 229 0
DWIDTH 19 0
BBX 24 63 -2 0
BITMAP
003C00
007E00
00FF00
00FF00
01FF80
03E7C0
07C7E0
0F81E0
0F00F0
1E0078
3C003C
78001E
F0000F
000000
000000
000000
000000
000000
000000
007800
007800
007800
007800
007800
007800
007800
007800
007800
007800
007800
007800
007800
007800
007800
007800
007800
007800
007800
007800
007800
007800
007800
007800
007800
007800
007800
007800
007800
007800
007800
007800
007800
007800
007800
007800
007800
007800
007800
007800
007800
007800
007800
007800
ENDCHAR
STARTCHAR 00EF
ENCODING 239
SWIDTH 229 0
DWIDTH 19 0
BBX 20 60 0 0
BITMAP
7000E0
F001F0
F801F0
F801F0
F801F0
F001F0
7000E0
000000
000000
000000
000000
000000
000000
000000
000000
000000
01E000
01E000
01E000
01E000
01E000
01E000
01E000
01E000
01E000
01E000
01E000
01E000
01E000
01E000
01E000
01E000
01E000
01E000
01E000
01E000
01E000
01E000
01E000
01E000
01E000
01E000
01E000
01E000
01E000
01E000
01E000
01E000
01E000
01E000
01E000
01E000
01E000
01E000
01E000
01E000
01E000
01E000
01E000
01E000
ENDCHAR
STARTCHAR 00F0
ENCODING 240
SWIDTH 579 0
DWIDTH 48 0
BBX 38 64 5 -1
BITMAP
000C000000
000F000380
001F800F80
001FE01FC0
0007F87F80
0001FDFE00
0000FFF800
00003FE000
00003FC000
0000FFE000
0001FFE000
0007F1F000
001FE0F800
007F807C00
007E003E00
0038003E00
0030001F00
0000000F00
0000000F80
0000000780
00000003C0
00000003C0
00000001E0
00000001E0
0003FF01F0
001FFFE0F0
007FFFF8F0
01FFFFFEF0
03F8007F78
07E0000FF8
0F800007F8
1F000003F8
3E000001FC
3C000000FC
7C0000007C
780000007C
780000007C
F80000003C
F80000003C
F00000003C
F00000003C
F00000003C
F00000003C
F00000003C
F00000003C
F00000003C
F00000007C
F00000007C
F000000078
F800000078
78000000F8
78000000F8
7C000000F0
7C000001F0
3E000001E0
3E000003E0
1F000007C0
0F80000F80
07E0003F80
03F800FF00
01FFFFFC00
00FFFFF800
001FFFE000
0003FF0000
ENDCHAR
STARTCHAR 00F1
ENCODING 241
SWIDTH 591 0
DWIDTH 49 0
BBX 35 60 7 0
BITMAP
003E000380
00FF800780
01FFC00700
03F3E00700
03C1F80F00
07807C1E00
07003F7E00
07001FFC00
07000FF800
070003E000
0000000000
0000000000
0000000000
0000000000
0000000000
0001FF8000
F01FFFF000
F07FFFFC00
F0FFFFFE00
F1F8007F00
F3E0001F00
F780000F80
FF000007C0
FE000003C0
FE000003C0
FC000003E0
FC000001E0
F8000001E0
F8000001E0
F8000001E0
F8000001E0
F8000001E0
F8000001E0
F0000001E0
F0000001E0
F0000001E0
F0000001E0
F0000001E0
F0000001E0
F0000001E0
F0000001E0
F0000001E0
F0000001E0
F0000001E0
F0000001E0
F0000001E0
F0000001E0
F0000001E0
F0000001E0
F0000001E0
F0000001E0
F0000001E0
F0000001E0
F0000001E0
F0000001E0
F0000001E0
F0000001E0
F0000001E0
F0000001E0
F0000001E0
ENDCHAR
STARTCHAR 00F2
ENCODING 242
SWIDTH 591 0
DWIDTH 49 0
BBX 39 64 5 -1
BITMAP
007E000000
003F000000
003F000000
001F800000
000FC00000
0007E00000
0003E00000
0001F00000
0000F80000
00003C0000
00001E0000
00000F0000
0000078000
0000000000
0000000000
0000000000
0000000000
0000000000
0001FF0000
001FFFF000
007FFFFC00
00FFFFFE00
01FC007F00
03F0001F80
07C00007C0
0F800003E0
1F000001F0
1E000001F0
3E000000F8
3C00000078
7C00000078
780000007C
780000003C
780000003C
F80000003E
F00000003E
F00000001E
F00000001E
F00000001E
F00000001E
F00000001E
F00000001E
F00000001E
F00000001E
F00000001E
F00000001E
F00000003E
F80000003E
780000003C
780000003C
780000007C
3C0000007C
3C00000078
3E000000F8
1F000001F0
1F000001F0
0F800003E0
07C00007C0
03F0001F80
01FC007F00
00FFFFFE00
003FFFFC00
000FFFF000
0001FF0000
ENDCHAR
STARTCHAR 00F3
ENCODING 243
SWIDTH 591 0
DWIDTH 49 0
BBX 39 64 5 -1
BITMAP
000000FE00
000000FC00
000001F800
000003F000
000003E000
000007C000
00000F8000
00001F0000
00003E0000
00003C0000
0000780000
0000F00000
0001C00000
0000000000
0000000000
0000000000
0000000000
0000000000
0001FF0000
001FFFF000
007FFFFC00
00FFFFFE00
01FC007F00
03F0001F80
07C00007C0
0F800003E0
1F000001F0
1E000001F0
3E000000F8
3C00000078
7C00000078
780000007C
780000003C
780000003C
F80000003E
F00000003E
F00000001E
F00000001E
F00000001E
F00000001E
F00000001E
F00000001E
F00000001E
F00000001E
F00000001E
F00000001E
F00000003E
F80000003E
780000003C
780000003C
780000007C
3C0000007C
3C00000078
3E000000F8
1F000001F0
1F000001F0
0F800003E0
07C00007C0
03F0001F80
01FC007F00
00FFFFFE00
003FFFFC00
000FFFF000
0001FF0000
ENDCHAR
STARTCHAR 00F4
ENCODING 244
SWIDTH 591 0
DWIDTH 49 0
BBX 39 64 5 -1
BITMAP
0000780000
0000FC0000
0001FE0000
0001FE0000
0003FF0000
0007CF8000
000F8FC000
001F03C000
001E01E000
003C00F000
0078007800
00F0003C00
01E0001E00
0000000000
0000000000
0000000000
0000000000
0000000000
0001FF0000
001FFFF000
007FFFFC00
00FFFFFE00
01FC007F00
03F0001F80
07C00007C0
0F800003E0
1F000001F0
1E000001F0
3E000000F8
3C00000078
7C00000078
780000007C
780000003C
780000003C
F80000003E
F00000003E
F00000001E
F00000001E
F00000001E
F00000001E
F00000001E
F00000001E
F00000001E
F00000001E
F00000001E
F00000001E
F00000003E
F80000003E
780000003C
780000003C
780000007C
3C0000007C
3C00000078
3E000000F8
1F000001F0
1F000001F0
0F800003E0
07C00007C0
03F0001F80
01FC007F00
00FFFFFE00
003FFFFC00
000FFFF000
0001FF0000
ENDCHAR
STARTCHAR 00F5
ENCODING 245
SWIDTH 591 0
DWIDTH 49 0
BBX 39 61 5 -1
BITMAP
001F0001C0
007FC003C0
00FFE00380
01F9F00380
01E0FC0780
03C03E0F00
03801FBF00
03800FFE00
038007FC00
038001F000
0000000000
0000000000
0000000000
0000000000
0000000000
0001FF0000
001FFFF000
007FFFFC00
00FFFFFE00
01FC007F00
03F0001F80
07C00007C0
0F800003E0
1F000001F0
1E000001F0
3E000000F8
3C00000078
7C00000078
780000007C
780000003C
780000003C
F80000003E
F00000003E
F00000001E
F00000001E
F00000001E
F00000001E
F00000001E
F00000001E
F00000001E
F00000001E
F00000001E
F00000001E
F00000003E
F80000003E
780000003C
780000003C
780000007C
3C0000007C
3C00000078
3E000000F8
1F000001F0
1F000001F0
0F800003E0
07C00007C0
03F0001F80
01FC007F00
00FFFFFE00
003FFFFC00
000FFFF000
0001FF0000
ENDCHAR
STARTCHAR 00F6
ENCODING 246
SWIDTH 591 0
DWIDTH 49 0
BBX 39 61 5 -1
BITMAP
0038007000
007800F800
007C00F800
007C00F800
007C00F800
007800F800
0038007000
0000000000
0000000000
0000000000
0000000000
0000000000
0000000000
0000000000
0000000000
0001FF0000
001FFFF000
007FFFFC00
00FFFFFE00
01FC007F00
03F0001F80
07C00007C0
0F800003E0
1F000001F0
1E000001F0
3E000000F8
3C00000078
7C00000078
780000007C
780000003C
780000003C
F80000003E
F00000003E
F00000001E
F00000001E
F00000001E
F00000001E
F00000001E
F00000001E
F00000001E
F00000001E
F00000001E
F00000001E
F00000003E
F80000003E
780000003C
780000003C
780000007C
3C0000007C
3C00000078
3E000000F8
1F000001F0
1F000001F0
0F800003E0
07C00007C0
03F0001F80
01FC007F00
00FFFFFE00
003FFFFC00
000FFFF000
0001FF0000
ENDCHAR
STARTCHAR 00F7
ENCODING 247
SWIDTH 567 0
DWIDTH 47 0
BBX 39 37 4 11
BITMAP
0000380000
00007C0000
0000FE0000
0000FE0000
0000FE0000
0000FE0000
00007C0000
0000380000
0000000000
0000000000
0000000000
0000000000
0000000000
0000000000
0000000000
0000000000
0000000000
FFFFFFFFFE
FFFFFFFFFE
FFFFFFFFFE
0000000000
0000000000
0000000000
0000000000
0000000000
0000000000
0000000000
0000000000
0000000000
0000380000
00007C0000
0000FE0000
0000FE0000
0000FE0000
0000FE0000
00007C0000
0000380000
ENDCHAR
STARTCHAR 00F8
ENCODING 248
SWIDTH 591 0
DWIDTH 49 0
BBX 39 46 5 -1
BITMAP
0001FF001C
001FFFE03E
007FFFF87C
00FFFFFEF8
01FC007FF0
03F0001FF0
07C0000FE0
0F800007E0
1F000007F0
1E00000FF0
3E00001FF8
3C00003E78
7C00007C78
7800007C7C
780000F83C
780001F03C
F80003E03E
F00003C03E
F00007C01E
F0000F801E
F0001F001E
F0001E001E
F0003E001E
F0007C001E
F000F8001E
F001F0001E
F001E0001E
F003E0001E
F007C0003E
F80F80003E
780F00003C
781F00003C
783E00007C
3C7C00007C
3CF8000078
3EF00000F8
1FF00001F0
1FE00001F0
0FC00003E0
07C00007C0
0FF0001F80
1FFC007F00
3EFFFFFE00
3C3FFFFC00
7C0FFFF000
1801FF0000
ENDCHAR
STARTCHAR 00F9
ENCODING 249
SWIDTH 591 0
DWIDTH 49 0
BBX 35 64 7 -1
BITMAP
07E0000000
03F0000000
03F0000000
01F8000000
00FC000000
007E000000
003E000000
001F000000
000F800000
0003C00000
0001E00000
0000F00000
0000780000
0000000000
0000000000
0000000000
0000000000
0000000000
0000000000
F0000001E0
F0000001E0
F0000001E0
F0000001E0
F0000001E0
F0000001E0
F0000001E0
F0000001E0
F0000001E0
F0000001E0
F0000001E0
F0000001E0
F0000001E0
F0000001E0
F0000001E0
F0000001E0
F0000001E0
F0000001E0
F0000001E0
F0000001E0
F0000001E0
F0000001E0
F0000001E0
F0000001E0
F0000001E0
F0000001E0
F0000001E0
F0000001E0
F0000003E0
F0000003E0
F0000003E0
F0000003E0
F0000003E0
F0000007E0
F8000007E0
7800000FE0
7800000FE0
7C00001FE0
3E00003DE0
3F0000F9E0
1FC003F1E0
0FFFFFE1E0
07FFFFC1E0
01FFFF01E0
003FF00000
ENDCHAR
STARTCHAR 00FA
ENCODING 250
SWIDTH 591 0
DWIDTH 49 0
BBX 35 64 7 -1
BITMAP
000003F800
000003F000
000007E000
00000FC000
00000F8000
00001F0000
00003E0000
00007C0000
0000F80000
0000F00000
0001E00000
0003C00000
0007000000
0000000000
0000000000
0000000000
0000000000
0000000000
0000000000
F0000001E0
F0000001E0
F0000001E0
F0000001E0
F0000001E0
F0000001E0
F0000001E0
F0000001E0
F0000001E0
F0000001E0
F0000001E0
F0000001E0
F0000001E0
F0000001E0
F0000001E0
F0000001E0
F0000001E0
F0000001E0
F0000001E0
F0000001E0
F0000001E0
F0000001E0
F0000001E0
F0000001E0
F0000001E0
F0000001E0
F0000001E0
F0000001E0
F0000003E0
F0000003E0
F0000003E0
F0000003E0
F0000003E0
F0000007E0
F8000007E0
7800000FE0
7800000FE0
7C00001FE0
3E00003DE0
3F0000F9E0
1FC003F1E0
0FFFFFE1E0
07FFFFC1E0
01FFFF01E0
003FF00000
ENDCHAR
STARTCHAR 00FB
ENCODING 251
SWIDTH 591 0
DWIDTH 49 0
BBX 35 64 7 -1
BITMAP
0000F00000
0001F80000
0003FC0000
0003FC0000
0007FE0000
000F9F0000
001F1F8000
003E078000
003C03C000
007801E000
00F000F000
01E0007800
03C0003C00
0000000000
0000000000
0000000000
0000000000
0000000000
0000000000
F0000001E0
F0000001E0
F0000001E0
F0000001E0
F0000001E0
F0000001E0
F0000001E0
F0000001E0
F0000001E0
F0000001E0
F0000001E0
F0000001E0
F0000001E0
F0000001E0
F0000001E0
F0000001E0
F0000001E0
F0000001E0
F0000001E0
F0000001E0
F0000001E0
F0000001E0
F0000001E0
F0000001E0
F0000001E0
F0000001E0
F0000001E0
F0000001E0
F0000003E0
F0000003E0
F0000003E0
F0000003E0
F0000003E0
F0000007E0
F8000007E0
7800000FE0
7800000FE0
7C00001FE0
3E00003DE0
3F0000F9E0
1FC003F1E0
0FFFFFE1E0
07FFFFC1E0
01FFFF01E0
003FF00000
ENDCHAR
STARTCHAR 00FC
ENCODING 252
SWIDTH 591 0
DWIDTH 49 0
BBX 35 61 7 -1
BITMAP
007000E000
00F001F000
00F801F000
00F801F000
00F801F000
00F001F000
007000E000
0000000000
0000000000
0000000000
0000000000
0000000000
0000000000
0000000000
0000000000
0000000000
F0000001E0
F0000001E0
F0000001E0
F0000001E0
F0000001E0
F0000001E0
F0000001E0
F0000001E0
F0000001E0
F0000001E0
F0000001E0
F0000001E0
F0000001E0
F0000001E0
F0000001E0
F0000001E0
F0000001E0
F0000001E0
F0000001E0
F0000001E0
F0000001E0
F0000001E0
F0000001E0
F0000001E0
F0000001E0
F0000001E0
F0000001E0
F0000001E0
F0000003E0
F0000003E0
F0000003E0
F0000003E0
F0000003E0
F0000007E0
F8000007E0
7800000FE0
7800000FE0
7C00001FE0
3E00003DE0
3F0000F9E0
1FC003F1E0
0FFFFFE1E0
07FFFFC1E0
01FFFF01E0
003FF00000
ENDCHAR
STARTCHAR 00FD
ENCODING 253
SWIDTH 459 0
DWIDTH 38 0
BBX 38 83 0 -20
BITMAP
000000FE00
000000FC00
000001F800
000003F000
000003E000
000007C000
00000F8000
00001F0000
00003E0000
00003C0000
0000780000
0000F00000
0001C00000
0000000000
0000000000
0000000000
0000000000
0000000000
0000000000
F00000003C
7800000078
7800000078
7800000078
3C000000F0
3C000000F0
3E000001F0
1E000001E0
1E000001E0
0F000003C0
0F000003C0
0F000007C0
0780000780
0780000780
03C0000F00
03C0000F00
03C0000F00
01E0001E00
01E0001E00
01E0003E00
00F0003C00
00F0003C00
0078007800
0078007800
0078007800
003C00F000
003C00F000
001C01E000
001E01E000
001E01E000
000F03C000
000F03C000
000F03C000
0007878000
0007878000
0003870000
0003CF0000
0003CF0000
0001CE0000
0001FE0000
0001FC0000
0000FC0000
0000FC0000
0000780000
0000780000
0000F80000
0000F00000
0001F00000
0001E00000
0001E00000
0003E00000
0003C00000
0003C00000
0007800000
0007800000
000F800000
000F000000
001F000000
003E000000
007C000000
FFFC000000
FFF8000000
FFE0000000
7F80000000
ENDCHAR
STARTCHAR 00FE
ENCODING 254
SWIDTH 591 0
DWIDTH 49 0
BBX 37 83 7 -20
BITMAP
F000000000
F000000000
F000000000
F000000000
F000000000
F000000000
F000000000
F000000000
F000000000
F000000000
F000000000
F000000000
F000000000
F000000000
F000000000
F000000000
F000000000
F000000000
F003FF0000
F01FFFE000
F07FFFF800
F0FFFFFC00
F1F800FE00
F3E0003F00
F780000F80
FF000007C0
FE000007C0
FE000003E0
FC000001E0
FC000001F0
FC000001F0
F8000000F0
F8000000F0
F8000000F8
F8000000F8
F800000078
F000000078
F000000078
F000000078
F000000078
F000000078
F000000078
F000000078
F000000078
F000000078
F000000078
F800000078
F8000000F8
F8000000F8
F8000000F0
F8000000F0
FC000001F0
FC000001E0
FC000003E0
FE000003E0
FE000007C0
FF00000F80
F780001F80
F3E0003F00
F1F800FE00
F0FFFFFC00
F07FFFF000
F01FFFE000
F003FF0000
F000000000
F000000000
F000000000
F000000000
F000000000
F000000000
F000000000
F000000000
F000000000
F000000000
F000000000
F000000000
F000000000
F000000000
F000000000
F000000000
F000000000
F000000000
F000000000
ENDCHAR
STARTCHAR 00FF
ENCODING 255
SWIDTH 459 0
DWIDTH 38 0
BBX 38 80 0 -20
BITMAP
0038007000
007800F800
007C00F800
007C00F800
007C00F800
007800F800
0038007000
0000000000
0000000000
0000000000
0000000000
0000000000
0000000000
0000000000
0000000000
0000000000
F00000003C
7800000078
7800000078
7800000078
3C000000F0
3C000000F0
3E000001F0
1E000001E0
1E000001E0
0F000003C0
0F000003C0
0F000007C0
0780000780
0780000780
03C0000F00
03C0000F00
03C0000F00
01E0001E00
01E0001E00
01E0003E00
00F0003C00
00F0003C00
0078007800
0078007800
0078007800
003C00F000
003C00F000
001C01E000
001E01E000
001E01E000
000F03C000
000F03C000
000F03C000
0007878000
0007878000
0003870000
0003CF0000
0003CF0000
0001CE0000
0001FE0000
0001FC0000
0000FC0000
0000FC0000
0000780000
0000780000
0000F80000
0000F00000
0001F00000
0001E00000
0001E00000
0003E00000
0003C00000
0003C00000
0007800000
0007800000
000F800000
000F000000
001F000000
003E000000
007C000000
FFFC000000
FFF8000000
FFE0000000
7F80000000
ENDCHAR
STARTCHAR 0100
ENCODING 256
SWIDTH 604 0
DWIDTH 50 0
BBX 50 68 0 0
BITMAP
0003FFFFF00000
0003FFFFF00000
0003FFFFF00000
00000000000000
00000000000000
00000000000000
00000000000000
00000000000000
00000000000000
000000E0000000
000001E0000000
000001F0000000
000003F0000000
000003F0000000
000003F8000000
000007F8000000
000007FC000000
00000FBC000000
00000F3C000000
00000F3E000000
00001F1E000000
00001E1F000000
00003E0F000000
00003C0F000000
00003C0F800000
00007C07800000
00007807C00000
0000F807C00000
0000F003C00000
0000F003E00000
0001F001E00000
0001E001F00000
0003E001F00000
0003E000F00000
0003C000F80000
0007C000F80000
00078000780000
000F80007C0000
000F80003C0000
000F00003E0000
001F00003E0000
001E00001E0000
003E00001F0000
003E00001F0000
003FFFFFFF8000
007FFFFFFF8000
007FFFFFFF8000
00FFFFFFFFC000
00F8000007C000
01F0000003E000
01F0000003E000
01E0000001E000
03E0000001F000
03E0000001F000
07C0000000F800
07C0000000F800
07800000007800
0F800000007C00
0F000000007C00
1F000000003E00
1F000000003E00
1E000000001E00
3E000000001F00
3C000000001F00
7C000000000F80
7C000000000F80
78000000000780
F80000000007C0
ENDCHAR
STARTCHAR 0101
ENCODING 257
SWIDTH 531 0
DWIDTH 44 0
BBX 33 55 4 -1
BITMAP
01FFFFF800
01FFFFF800
01FFFFF800
0000000000
0000000000
0000000000
0000000000
0000000000
0000000000
0007FE0000
007FFFC000
03FFFFF000
0FFFDFF800
07F000FC00
0780003E00
0200001E00
0000001F00
0000000F00
0000000F00
0000000780
0000000780
0000000780
0000000780
0000000780
0000000780
0000000780
0000000780
0000000780
00007FFF80
001FFFFF80
00FFFFFF80
03FFFF8780
07FC000780
0FE0000780
1F00000780
3E00000780
7C00000780
7800000780
F800000780
F800000780
F000000780
F000000F80
F000000F80
F000000F80
F000001F80
F800003F80
7800003F80
7800007780
7C0000F780
3E0003E780
1F800FC380
1FFFFF8380
07FFFE0380
03FFF80380
007FC00000
ENDCHAR
STARTCHAR 0102
ENCODING 258
SWIDTH 604 0
DWIDTH 50 0
BBX 50 74 0 0
BITMAP
00038000700000
00038000F00000
0003C000F00000
0003C000E00000
0001E001E00000
0001F003C00000
0000FF3FC00000
00007FFF800000
00003FFE000000
000007F8000000
00000000000000
00000000000000
00000000000000
00000000000000
00000000000000
000000E0000000
000001E0000000
000001F0000000
000003F0000000
000003F0000000
000003F8000000
000007F8000000
000007FC000000
00000FBC000000
00000F3C000000
00000F3E000000
00001F1E000000
00001E1F000000
00003E0F000000
00003C0F000000
00003C0F800000
00007C07800000
00007807C00000
0000F807C00000
0000F003C00000
0000F003E00000
0001F001E00000
0001E001F00000
0003E001F00000
0003E000F00000
0003C000F80000
0007C000F80000
00078000780000
000F80007C0000
000F80003C0000
000F00003E0000
001F00003E0000
001E00001E0000
003E00001F0000
003E00001F0000
003FFFFFFF8000
007FFFFFFF8000
007FFFFFFF8000
00FFFFFFFFC000
00F8000007C000
01F0000003E000
01F0000003E000
01E0000001E000
03E0000001F000
03E0000001F000
07C0000000F800
07C0000000F800
07800000007800
0F800000007C00
0F000000007C00
1F000000003E00
1F000000003E00
1E000000001E00
3E000000001F00
3C000000001F00
7C000000000F80
7C000000000F80
78000000000780
F80000000007C0
ENDCHAR
STARTCHAR 0103
ENCODING 259
SWIDTH 531 0
DWIDTH 44 0
BBX 33 61 4 -1
BITMAP
00E0001C00
00E0003C00
00F0003C00
00F0003800
0078007800
007C00F000
003FCFF000
001FFFE000
000FFF8000
0001FE0000
0000000000
0000000000
0000000000
0000000000
0000000000
0007FE0000
007FFFC000
03FFFFF000
0FFFDFF800
07F000FC00
0780003E00
0200001E00
0000001F00
0000000F00
0000000F00
0000000780
0000000780
0000000780
0000000780
0000000780
0000000780
0000000780
0000000780
0000000780
00007FFF80
001FFFFF80
00FFFFFF80
03FFFF8780
07FC000780
0FE0000780
1F00000780
3E00000780
7C00000780
7800000780
F800000780
F800000780
F000000780
F000000F80
F000000F80
F000000F80
F000001F80
F800003F80
7800003F80
7800007780
7C0000F780
3E0003E780
1F800FC380
1FFFFF8380
07FFFE0380
03FFF80380
007FC00000
ENDCHAR
STARTCHAR 0104
ENCODING 260
SWIDTH 604 0
DWIDTH 50 0
BBX 50 77 0 -18
BITMAP
000000E0000000
000001E0000000
000001F0000000
000003F0000000
000003F0000000
000003F8000000
000007F8000000
000007FC000000
00000FBC000000
00000F3C000000
00000F3E000000
00001F1E000000
00001E1F000000
00003E0F000000
00003C0F000000
00003C0F800000
00007C07800000
00007807C00000
0000F807C00000
0000F003C00000
0000F003E00000
0001F001E00000
0001E001F00000
0003E001F00000
0003E000F00000
0003C000F80000
0007C000F80000
00078000780000
000F80007C0000
000F80003C0000
000F00003E0000
001F00003E0000
001E00001E0000
003E00001F0000
003E00001F0000
003FFFFFFF8000
007FFFFFFF8000
007FFFFFFF8000
00FFFFFFFFC000
00F8000007C000
01F0000003E000
01F0000003E000
01E0000001E000
03E0000001F000
03E0000001F000
07C0000000F800
07C0000000F800
07800000007800
0F800000007C00
0F000000007C00
1F000000003E00
1F000000003E00
1E000000001E00
3E000000001F00
3C000000001F00
7C000000000F80
7C000000000F80
78000000000780
F80000000007C0
00000000000E00
00000000001C00
00000000003C00
00000000007800
0000000000F000
0000000000F000
0000000001E000
0000000001E000
0000000001E000
0000000001E000
0000000003E000
0000000003E000
0000000001E000
0000000001F000
0000000001FFC0
0000000000FFC0
00000000007FC0
00000000001F80
ENDCHAR
STARTCHAR 0105
ENCODING 261
SWIDTH 531 0
DWIDTH 44 0
BBX 35 63 4 -18
BITMAP
0007FE0000
007FFFC000
03FFFFF000
0FFFDFF800
07F000FC00
0780003E00
0200001E00
0000001F00
0000000F00
0000000F00
0000000780
0000000780
0000000780
0000000780
0000000780
0000000780
0000000780
0000000780
0000000780
00007FFF80
001FFFFF80
00FFFFFF80
03FFFF8780
07FC000780
0FE0000780
1F00000780
3E00000780
7C00000780
7800000780
F800000780
F800000780
F000000780
F000000F80
F000000F80
F000000F80
F000001F80
F800003F80
7800003F80
7800007780
7C0000F780
3E0003E380
1F800FC380
1FFFFF8380
07FFFE0380
03FFF80380
007FC00780
0000000F00
0000001E00
0000003C00
0000007800
0000007000
000000F000
000000F000
000000E000
000001E000
000001E000
000001E000
000001F000
000000F800
000000FFE0
0000007FE0
0000003FE0
0000000FC0
ENDCHAR
STARTCHAR 0106
ENCODING 262
SWIDTH 628 0
DWIDTH 52 0
BBX 44 78 5 -1
BITMAP
00000001FC00
00000001F800
00000003F000
00000007E000
00000007C000
0000000F8000
0000001F0000
0000003E0000
0000007C0000
000000780000
000000F00000
000001E00000
000003800000
000000000000
000000000000
000000000000
000000000000
000001FFE000
00001FFFFF00
0000FFFFFFE0
0003FFFFFFF0
000FFC000FF0
001FE00001E0
003F80000020
007E00000000
00FC00000000
01F800000000
03F000000000
07E000000000
07C000000000
0F8000000000
0F8000000000
1F0000000000
1F0000000000
3E0000000000
3E0000000000
3C0000000000
7C0000000000
7C0000000000
7C0000000000
780000000000
780000000000
780000000000
F80000000000
F80000000000
F80000000000
F80000000000
F80000000000
F80000000000
F80000000000
F80000000000
F80000000000
780000000000
780000000000
780000000000
780000000000
7C0000000000
7C0000000000
3C0000000000
3E0000000000
3E0000000000
3E0000000000
1F0000000000
1F0000000000
0F8000000000
0FC000000000
07C000000000
03E000000000
03F000000000
01F800000000
00FE00000000
007F00000000
003FC0000040
001FFC0007C0
0007FFFFFFC0
0001FFFFFFC0
00007FFFFF00
000007FFE000
ENDCHAR
STARTCHAR 0107
ENCODING 263
SWIDTH 471 0
DWIDTH 39 0
BBX 31 64 5 -1
BITMAP
000003F8
000003F0
000007E0
00000FC0
00000F80
00001F00
00003E00
00007C00
0000F800
0000F000
0001E000
0003C000
00070000
00000000
00000000
00000000
00000000
00000000
0001FFC0
000FFFFC
003FFFFE
00FFFFFE
01FC003C
03F00000
07C00000
0F800000
1F000000
1E000000
3E000000
3C000000
7C000000
78000000
78000000
78000000
F8000000
F0000000
F0000000
F0000000
F0000000
F0000000
F0000000
F0000000
F0000000
F0000000
F0000000
F0000000
F0000000
F8000000
F8000000
78000000
78000000
7C000000
3C000000
3E000000
1E000000
1F000000
0F800000
07C00000
07F00002
01FC001E
00FFFFFE
007FFFFE
001FFFF8
0001FFC0
ENDCHAR
STARTCHAR 0108
ENCODING 264
SWIDTH 628 0
DWIDTH 52 0
BBX 44 78 5 -1
BITMAP
000000F00000
000001F80000
000003FC0000
000003FC0000
000007FE0000
00000F9F0000
00001F1F8000
00003E078000
00003C03C000
00007801E000
0000F000F000
0001E0007800
0003C0003C00
000000000000
000000000000
000000000000
000000000000
000001FFE000
00001FFFFF00
0000FFFFFFE0
0003FFFFFFF0
000FFC000FF0
001FE00001E0
003F80000020
007E00000000
00FC00000000
01F800000000
03F000000000
07E000000000
07C000000000
0F8000000000
0F8000000000
1F0000000000
1F0000000000
3E0000000000
3E0000000000
3C0000000000
7C0000000000
7C0000000000
7C0000000000
780000000000
780000000000
780000000000
F80000000000
F80000000000
F80000000000
F80000000000
F80000000000
F80000000000
F80000000000
F80000000000
F80000000000
780000000000
780000000000
780000000000
780000000000
7C0000000000
7C0000000000
3C0000000000
3E0000000000
3E0000000000
3E0000000000
1F0000000000
1F0000000000
0F8000000000
0FC000000000
07C000000000
03E000000000
03F000000000
01F800000000
00FE00000000
007F00000000
003FC0000040
001FFC0007C0
0007FFFFFFC0
0001FFFFFFC0
00007FFFFF00
000007FFE000
ENDCHAR
STARTCHAR 0109
ENCODING 265
SWIDTH 471 0
DWIDTH 39 0
BBX 31 64 5 -1
BITMAP
00007800
0000FC00
0001FE00
0001FE00
0003FF00
0007CF80
000F8FC0
001F03C0
001E01E0
003C00F0
00780078
00F0003C
01E0001E
00000000
00000000
00000000
00000000
00000000
0001FFC0
000FFFFC
003FFFFE
00FFFFFE
01FC003C
03F00000
07C00000
0F800000
1F000000
1E000000
3E000000
3C000000
7C000000
78000000
78000000
78000000
F8000000
F0000000
F0000000
F0000000
F0000000
F0000000
F0000000
F0000000
F0000000
F0000000
F0000000
F0000000
F0000000
F8000000
F8000000
78000000
78000000
7C000000
3C000000
3E000000
1E000000
1F000000
0F800000
07C00000
07F00002
01FC001E
00FFFFFE
007FFFFE
001FFFF8
0001FFC0
ENDCHAR
STARTCHAR 010A
ENCODING 266
SWIDTH 628 0
DWIDTH 52 0
BBX 44 75 5 -1
BITMAP
000000700000
000000780000
000000F80000
000000FC0000
000000FC0000
000000F80000
000000780000
000000700000
000000000000
000000000000
000000000000
000000000000
000000000000
000000000000
000001FFE000
00001FFFFF00
0000FFFFFFE0
0003FFFFFFF0
000FFC000FF0
001FE00001E0
003F80000020
007E00000000
00FC00000000
01F800000000
03F000000000
07E000000000
07C000000000
0F8000000000
0F8000000000
1F0000000000
1F0000000000
3E0000000000
3E0000000000
3C0000000000
7C0000000000
7C0000000000
7C0000000000
780000000000
780000000000
780000000000
F80000000000
F80000000000
F80000000000
F80000000000
F80000000000
F80000000000
F80000000000
F80000000000
F80000000000
780000000000
780000000000
780000000000
780000000000
7C0000000000
7C0000000000
3C0000000000
3E0000000000
3E0000000000
3E0000000000
1F0000000000
1F0000000000
0F8000000000
0FC000000000
07C000000000
03E000000000
03F000000000
01F800000000
00FE00000000
007F00000000
003FC0000040
001FFC0007C0
0007FFFFFFC0
0001FFFFFFC0
00007FFFFF00
000007FFE000
ENDCHAR
STARTCHAR 010B
ENCODING 267
SWIDTH 471 0
DWIDTH 39 0
BBX 31 61 5 -1
BITMAP
00007000
00007800
0000F800
0000FC00
0000FC00
0000F800
00007800
00007000
00000000
00000000
00000000
00000000
00000000
00000000
00000000
0001FFC0
000FFFFC
003FFFFE
00FFFFFE
01FC003C
03F00000
07C00000
0F800000
1F000000
1E000000
3E000000
3C000000
7C000000
78000000
78000000
78000000
F8000000
F0000000
F0000000
F0000000
F0000000
F0000000
F0000000
F0000000
F0000000
F0000000
F0000000
F0000000
F0000000
F8000000
F8000000
78000000
78000000
7C000000
3C000000
3E000000
1E000000
1F000000
0F800000
07C00000
07F00002
01FC001E
00FFFFFE
007FFFFE
001FFFF8
0001FFC0
ENDCHAR
STARTCHAR 010C
ENCODING 268
SWIDTH 628 0
DWIDTH 52 0
BBX 44 78 5 -1
BITMAP
0003C0003C00
0001E0007800
0000F000F000
00007801E000
00003C03C000
00003E078000
00001F0F8000
00000F9F0000
000007FE0000
000003FC0000
000003FC0000
000001F80000
000000F00000
000000000000
000000000000
000000000000
000000000000
000001FFE000
00001FFFFF00
0000FFFFFFE0
0003FFFFFFF0
000FFC000FF0
001FE00001E0
003F80000020
007E00000000
00FC00000000
01F800000000
03F000000000
07E000000000
07C000000000
0F8000000000
0F8000000000
1F0000000000
1F0000000000
3E0000000000
3E0000000000
3C0000000000
7C0000000000
7C0000000000
7C0000000000
780000000000
780000000000
780000000000
F80000000000
F80000000000
F80000000000
F80000000000
F80000000000
F80000000000
F80000000000
F80000000000
F80000000000
780000000000
780000000000
780000000000
780000000000
7C0000000000
7C0000000000
3C0000000000
3E0000000000
3E0000000000
3E0000000000
1F0000000000
1F0000000000
0F8000000000
0FC000000000
07C000000000
03E000000000
03F000000000
01F800000000
00FE00000000
007F00000000
003FC0000040
001FFC0007C0
0007FFFFFFC0
0001FFFFFFC0
00007FFFFF00
000007FFE000
ENDCHAR
STARTCHAR 010D
ENCODING 269
SWIDTH 471 0
DWIDTH 39 0
BBX 31 64 5 -1
BITMAP
01E0001E
00F0003C
00780078
003C00F0
001E01E0
001F03C0
000F87C0
0007CF80
0003FF00
0001FE00
0001FE00
0000FC00
00007800
00000000
00000000
00000000
00000000
00000000
0001FFC0
000FFFFC
003FFFFE
00FFFFFE
01FC003C
03F00000
07C00000
0F800000
1F000000
1E000000
3E000000
3C000000
7C000000
78000000
78000000
78000000
F8000000
F0000000
F0000000
F0000000
F0000000
F0000000
F0000000
F0000000
F0000000
F0000000
F0000000
F0000000
F0000000
F8000000
F8000000
78000000
78000000
7C000000
3C000000
3E000000
1E000000
1F000000
0F800000
07C00000
07F00002
01FC001E
00FFFFFE
007FFFFE
001FFFF8
0001FFC0
ENDCHAR
STARTCHAR 010E
ENCODING 270
SWIDTH 712 0
DWIDTH 59 0
BBX 46 77 8 0
BITMAP
01E0001E0000
00F0003C0000
007800780000
003C00F00000
001E01E00000
001F03C00000
000F87C00000
0007CF800000
0003FF000000
0001FE000000
0001FE000000
0000FC000000
000078000000
000000000000
000000000000
000000000000
000000000000
000000000000
FFFFFE000000
FFFFFFF00000
FFFFFFFE0000
FFFFFFFF8000
F80000FFE000
F800001FF000
F8000003F800
F8000001FC00
F80000007E00
F80000003F00
F80000001F80
F80000000FC0
F800000007C0
F800000007E0
F800000003E0
F800000001E0
F800000001F0
F800000001F0
F800000000F0
F800000000F8
F800000000F8
F800000000F8
F80000000078
F80000000078
F8000000007C
F8000000007C
F8000000007C
F8000000007C
F8000000007C
F8000000007C
F8000000007C
F8000000007C
F8000000007C
F8000000007C
F80000000078
F80000000078
F80000000078
F800000000F8
F800000000F8
F800000000F8
F800000000F0
F800000001F0
F800000001F0
F800000003E0
F800000003E0
F800000007C0
F800000007C0
F80000000F80
F80000001F00
F80000003F00
F80000007E00
F8000001FC00
F8000007F800
F800001FE000
F80001FFC000
FFFFFFFF0000
FFFFFFFC0000
FFFFFFE00000
FFFFFC000000
ENDCHAR
STARTCHAR 010F
ENCODING 271
SWIDTH 591 0
DWIDTH 49 0
BBX 50 64 5 -1
BITMAP
000000007807C0
000000007807C0
00000000780780
00000000780780
00000000780F80
00000000780F00
00000000780F00
00000000780E00
00000000781E00
00000000781C00
00000000781C00
00000000783800
00000000783000
00000000780000
00000000780000
00000000780000
00000000780000
00000000780000
0003FE00780000
003FFFC0780000
007FFFF0780000
01FFFFF8780000
03F800FC780000
07E0003E780000
0FC0000F780000
0F800007780000
1F000007F80000
3E000003F80000
3E000001F80000
3C000001F80000
7C000001F80000
78000000F80000
78000000F80000
F8000000F80000
F8000000F80000
F0000000F80000
F0000000F80000
F0000000780000
F0000000780000
F0000000780000
F0000000780000
F0000000780000
F0000000780000
F0000000780000
F0000000780000
F0000000F80000
F0000000F80000
F0000000F80000
F8000000F80000
78000000F80000
78000000F80000
78000001F80000
7C000001F80000
3C000001F80000
3E000003F80000
1E000003F80000
1F000007F80000
0F80000F780000
07E0003E780000
03F800FC780000
01FFFFF8380000
00FFFFF0380000
003FFFC0380000
0007FE00000000
ENDCHAR
STARTCHAR 0110
ENCODING 272
SWIDTH 712 0
DWIDTH 59 0
BBX 51 59 2 0
BITMAP
03FFFFF8000000
03FFFFFF800000
03FFFFFFF00000
03FFFFFFFC0000
03C00007FF0000
03C000007F8000
03C000001FE000
03C0000007F000
03C0000003F800
03C0000000F800
03C00000007C00
03C00000007E00
03C00000003E00
03C00000001F00
03C00000001F00
03C00000000F80
03C00000000F80
03C00000000780
03C000000007C0
03C000000007C0
03C000000003C0
03C000000003C0
03C000000003E0
03C000000003E0
03C000000003E0
03C000000003E0
03C000000003E0
03C000000003E0
FFFFFFE00003E0
FFFFFFE00003E0
FFFFFFE00003E0
FFFFFFE00003E0
03C000000003E0
03C000000003E0
03C000000003E0
03C000000003E0
03C000000003C0
03C000000003C0
03C000000007C0
03C000000007C0
03C000000007C0
03C00000000F80
03C00000000F80
03C00000000F00
03C00000001F00
03C00000001F00
03C00000003E00
03C00000007C00
03C0000000FC00
03C0000001F800
03C0000003F000
03C000000FE000
03C000001FC000
03C00000FF8000
03C00007FE0000
03FFFFFFFC0000
03FFFFFFE00000
03FFFFFF000000
03FFFFF0000000
ENDCHAR
STARTCHAR 0111
ENCODING 273
SWIDTH 591 0
DWIDTH 49 0
BBX 43 64 5 -1
BITMAP
000000007800
000000007800
000000007800
000000007800
000000007800
000000007800
000000007800
000000007800
0003FFFFFFE0
0003FFFFFFE0
0003FFFFFFE0
000000007800
000000007800
000000007800
000000007800
000000007800
000000007800
000000007800
0003FE007800
003FFFC07800
007FFFF07800
01FFFFF87800
03F800FC7800
07E0003E7800
0FC0000F7800
0F8000077800
1F000007F800
3E000003F800
3E000001F800
3C000001F800
7C000001F800
78000000F800
78000000F800
F8000000F800
F8000000F800
F0000000F800
F0000000F800
F00000007800
F00000007800
F00000007800
F00000007800
F00000007800
F00000007800
F00000007800
F00000007800
F0000000F800
F0000000F800
F0000000F800
F8000000F800
78000000F800
78000000F800
78000001F800
7C000001F800
3C000001F800
3E000003F800
1E000003F800
1F000007F800
0F80000F7800
07E0003E7800
03F800FC7800
01FFFFF83800
00FFFFF03800
003FFFC03800
0007FE000000
ENDCHAR
STARTCHAR 0112
ENCODING 274
SWIDTH 555 0
DWIDTH 46 0
BBX 33 68 8 0
BITMAP
07FFFFE000
07FFFFE000
07FFFFE000
0000000000
0000000000
0000000000
0000000000
0000000000
0000000000
FFFFFFFF80
FFFFFFFF80
FFFFFFFF80
FFFFFFFF80
F800000000
F800000000
F800000000
F800000000
F800000000
F800000000
F800000000
F800000000
F800000000
F800000000
F800000000
F800000000
F800000000
F800000000
F800000000
F800000000
F800000000
F800000000
F800000000
F800000000
F800000000
F800000000
FFFFFFFE00
FFFFFFFE00
FFFFFFFE00
FFFFFFFE00
F800000000
F800000000
F800000000
F800000000
F800000000
F800000000
F800000000
F800000000
F800000000
F800000000
F800000000
F800000000
F800000000
F800000000
F800000000
F800000000
F800000000
F800000000
F800000000
F800000000
F800000000
F800000000
F800000000
F800000000
F800000000
FFFFFFFF80
FFFFFFFF80
FFFFFFFF80
FFFFFFFF80
ENDCHAR
STARTCHAR 0113
ENCODING 275
SWIDTH 555 0
DWIDTH 46 0
BBX 36 55 5 -1
BITMAP
00FFFFFC00
00FFFFFC00
00FFFFFC00
0000000000
0000000000
0000000000
0000000000
0000000000
0000000000
0001FF0000
000FFFE000
003FFFF000
00FFFFFC00
01FC00FE00
03F0003F00
07C0001F00
0F80000F80
0F000007C0
1F000003C0
3E000003E0
3C000001E0
3C000001E0
7C000001E0
78000001F0
78000000F0
F8000000F0
F8000000F0
F0000000F0
F0000000F0
FFFFFFFFF0
FFFFFFFFF0
FFFFFFFFF0
FFFFFFFFF0
F000000000
F000000000
F000000000
F000000000
F000000000
F800000000
7800000000
7800000000
7800000000
7C00000000
3C00000000
3E00000000
1F00000000
1F00000000
0F80000000
07C0000000
03F00000C0
01FC0007C0
00FFFFFFC0
003FFFFFC0
000FFFFE00
0001FFE000
ENDCHAR
STARTCHAR 0114
ENCODING 276
SWIDTH 555 0
DWIDTH 46 0
BBX 33 74 8 0
BITMAP
070000E000
070001E000
078001E000
078001C000
03C003C000
03E0078000
01FE7F8000
00FFFF0000
007FFC0000
000FF00000
0000000000
0000000000
0000000000
0000000000
0000000000
FFFFFFFF80
FFFFFFFF80
FFFFFFFF80
FFFFFFFF80
F800000000
F800000000
F800000000
F800000000
F800000000
F800000000
F800000000
F800000000
F800000000
F800000000
F800000000
F800000000
F800000000
F800000000
F800000000
F800000000
F800000000
F800000000
F800000000
F800000000
F800000000
F800000000
FFFFFFFE00
FFFFFFFE00
FFFFFFFE00
FFFFFFFE00
F800000000
F800000000
F800000000
F800000000
F800000000
F800000000
F800000000
F800000000
F800000000
F800000000
F800000000
F800000000
F800000000
F800000000
F800000000
F800000000
F800000000
F800000000
F800000000
F800000000
F800000000
F800000000
F800000000
F800000000
F800000000
FFFFFFFF80
FFFFFFFF80
FFFFFFFF80
FFFFFFFF80
ENDCHAR
STARTCHAR 0115
ENCODING 277
SWIDTH 555 0
DWIDTH 46 0
BBX 36 61 5 -1
BITMAP
00E0001C00
00E0003C00
00F0003C00
00F0003800
0078007800
007C00F000
003FCFF000
001FFFE000
000FFF8000
0001FE0000
0000000000
0000000000
0000000000
0000000000
0000000000
0001FF0000
000FFFE000
003FFFF000
00FFFFFC00
01FC00FE00
03F0003F00
07C0001F00
0F80000F80
0F000007C0
1F000003C0
3E000003E0
3C000001E0
3C000001E0
7C000001E0
78000001F0
78000000F0
F8000000F0
F8000000F0
F0000000F0
F0000000F0
FFFFFFFFF0
FFFFFFFFF0
FFFFFFFFF0
FFFFFFFFF0
F000000000
F000000000
F000000000
F000000000
F000000000
F800000000
7800000000
7800000000
7800000000
7C00000000
3C00000000
3E00000000
1F00000000
1F00000000
0F80000000
07C0000000
03F00000C0
01FC0007C0
00FFFFFFC0
003FFFFFC0
000FFFFE00
0001FFE000
ENDCHAR
STARTCHAR 0116
ENCODING 278
SWIDTH 555 0
DWIDTH 46 0
BBX 33 73 8 0
BITMAP
0001C00000
0001E00000
0003E00000
0003F00000
0003F00000
0003E00000
0001E00000
0001C00000
0000000000
0000000000
0000000000
0000000000
0000000000
0000000000
FFFFFFFF80
FFFFFFFF80
FFFFFFFF80
FFFFFFFF80
F800000000
F800000000
F800000000
F800000000
F800000000
F800000000
F800000000
F800000000
F800000000
F800000000
F800000000
F800000000
F800000000
F800000000
F800000000
F800000000
F800000000
F800000000
F800000000
F800000000
F800000000
F800000000
FFFFFFFE00
FFFFFFFE00
FFFFFFFE00
FFFFFFFE00
F800000000
F800000000
F800000000
F800000000
F800000000
F800000000
F800000000
F800000000
F800000000
F800000000
F800000000
F800000000
F800000000
F800000000
F800000000
F800000000
F800000000
F800000000
F800000000
F800000000
F800000000
F800000000
F800000000
F800000000
F800000000
FFFFFFFF80
FFFFFFFF80
FFFFFFFF80
FFFFFFFF80
ENDCHAR
STARTCHAR 0117
ENCODING 279
SWIDTH 555 0
DWIDTH 46 0
BBX 36 61 5 -1
BITMAP
0000700000
0000780000
0000F80000
0000FC0000
0000FC0000
0000F80000
0000780000
0000700000
0000000000
0000000000
0000000000
0000000000
0000000000
0000000000
0000000000
0001FF0000
000FFFE000
003FFFF000
00FFFFFC00
01FC00FE00
03F0003F00
07C0001F00
0F80000F80
0F000007C0
1F000003C0
3E000003E0
3C000001E0
3C000001E0
7C000001E0
78000001F0
78000000F0
F8000000F0
F8000000F0
F0000000F0
F0000000F0
FFFFFFFFF0
FFFFFFFFF0
FFFFFFFFF0
FFFFFFFFF0
F000000000
F000000000
F000000000
F000000000
F000000000
F800000000
7800000000
7800000000
7800000000
7C00000000
3C00000000
3E00000000
1F00000000
1F00000000
0F80000000
07C0000000
03F00000C0
01FC0007C0
00FFFFFFC0
003FFFFFC0
000FFFFE00
0001FFE000
ENDCHAR
STARTCHAR 0118
ENCODING 280
SWIDTH 555 0
DWIDTH 46 0
BBX 33 77 8 -18
BITMAP
FFFFFFFF80
FFFFFFFF80
FFFFFFFF80
FFFFFFFF80
F800000000
F800000000
F800000000
F800000000
F800000000
F800000000
F800000000
F800000000
F800000000
F800000000
F800000000
F800000000
F800000000
F800000000
F800000000
F800000000
F800000000
F800000000
F800000000
F800000000
F800000000
F800000000
FFFFFFFE00
FFFFFFFE00
FFFFFFFE00
FFFFFFFE00
F800000000
F800000000
F800000000
F800000000
F800000000
F800000000
F800000000
F800000000
F800000000
F800000000
F800000000
F800000000
F800000000
F800000000
F800000000
F800000000
F800000000
F800000000
F800000000
F800000000
F800000000
F800000000
F800000000
F800000000
F800000000
FFFFFFFF80
FFFFFFFF80
FFFFFFFF80
FFFFFFFF80
000000E000
000001C000
000003C000
0000078000
00000F0000
00000F0000
00001E0000
00001E0000
00001E0000
00001E0000
00003E0000
00003E0000
00001E0000
00001F0000
00001FFC00
00000FFC00
000007FC00
000001F800
ENDCHAR
STARTCHAR 0119
ENCODING 281
SWIDTH 555 0
DWIDTH 46 0
BBX 36 61 5 -16
BITMAP
0001FF0000
000FFFE000
003FFFF000
00FFFFFC00
01FC00FE00
03F0003F00
07C0001F00
0F80000F80
0F000007C0
1F000003C0
3E000003E0
3C000001E0
3C000001E0
7C000001E0
78000001F0
78000000F0
F8000000F0
F8000000F0
F0000000F0
F0000000F0
FFFFFFFFF0
FFFFFFFFF0
FFFFFFFFF0
FFFFFFFFF0
F000000000
F000000000
F000000000
F000000000
F000000000
F800000000
7800000000
7800000000
7800000000
7C00000000
3C00000000
3E00000000
1F00000000
1F00000000
0F80000000
07C0000000
03F00000C0
01FC0007C0
00FFFFFFC0
003FFFFFC0
000FFFFE00
0001FFF800
000000F000
000001E000
000001E000
000003C000
000003C000
000003C000
000003C000
000007C000
000007C000
000003C000
000003E000
000003FF80
000001FF80
000000FF80
0000003F00
ENDCHAR
STARTCHAR 011A
ENCODING 282
SWIDTH 555 0
DWIDTH 46 0
BBX 33 77 8 0
BITMAP
0F0000F000
078001E000
03C003C000
01E0078000
00F00F0000
00F81E0000
007C3E0000
003E7C0000
001FF80000
000FF00000
000FF00000
0007E00000
0003C00000
0000000000
0000000000
0000000000
0000000000
0000000000
FFFFFFFF80
FFFFFFFF80
FFFFFFFF80
FFFFFFFF80
F800000000
F800000000
F800000000
F800000000
F800000000
F800000000
F800000000
F800000000
F800000000
F800000000
F800000000
F800000000
F800000000
F800000000
F800000000
F800000000
F800000000
F800000000
F800000000
F800000000
F800000000
F800000000
FFFFFFFE00
FFFFFFFE00
FFFFFFFE00
FFFFFFFE00
F800000000
F800000000
F800000000
F800000000
F800000000
F800000000
F800000000
F800000000
F800000000
F800000000
F800000000
F800000000
F800000000
F800000000
F800000000
F800000000
F800000000
F800000000
F800000000
F800000000
F800000000
F800000000
F800000000
F800000000
F800000000
FFFFFFFF80
FFFFFFFF80
FFFFFFFF80
FFFFFFFF80
ENDCHAR
STARTCHAR 011B
ENCODING 283
SWIDTH 555 0
DWIDTH 46 0
BBX 36 64 5 -1
BITMAP
03C0003C00
01E0007800
00F000F000
007801E000
003C03C000
003E078000
001F0F8000
000F9F0000
0007FE0000
0003FC0000
0003FC0000
0001F80000
0000F00000
0000000000
0000000000
0000000000
0000000000
0000000000
0001FF0000
000FFFE000
003FFFF000
00FFFFFC00
01FC00FE00
03F0003F00
07C0001F00
0F80000F80
0F000007C0
1F000003C0
3E000003E0
3C000001E0
3C000001E0
7C000001E0
78000001F0
78000000F0
F8000000F0
F8000000F0
F0000000F0
F0000000F0
FFFFFFFFF0
FFFFFFFFF0
FFFFFFFFF0
FFFFFFFFF0
F000000000
F000000000
F000000000
F000000000
F000000000
F800000000
7800000000
7800000000
7800000000
7C00000000
3C00000000
3E00000000
1F00000000
1F00000000
0F80000000
07C0000000
03F00000C0
01FC0007C0
00FFFFFFC0
003FFFFFC0
000FFFFE00
0001FFE000
ENDCHAR
STARTCHAR 011C
ENCODING 284
SWIDTH 724 0
DWIDTH 60 0
BBX 49 78 5 -1
BITMAP
0000003C000000
0000007E000000
000000FF000000
000000FF000000
000001FF800000
000003E7C00000
000007C7E00000
00000F81E00000
00000F00F00000
00001E00780000
00003C003C0000
000078001E0000
0000F0000F0000
00000000000000
00000000000000
00000000000000
00000000000000
000000FFF80000
00000FFFFFC000
00007FFFFFF800
0001FFFFFFFF00
0007FE0003FE00
000FF000007E00
001FC000000C00
007F0000000000
00FC0000000000
01F80000000000
01F00000000000
03E00000000000
07C00000000000
07800000000000
0F800000000000
1F000000000000
1F000000000000
1E000000000000
3E000000000000
3C000000000000
3C000000000000
7C000000000000
7C000000000000
78000000000000
78000000000000
78000000000000
F8000000000000
F8000000000000
F8000000000000
F8000000000000
F800001FFFFF80
F800001FFFFF80
F800001FFFFF80
F800001FFFFF80
F8000000000F80
F8000000000F80
78000000000F80
78000000000F80
78000000000F80
7C000000000F80
7C000000000F80
7C000000000F80
3C000000000F80
3E000000000F80
3E000000000F80
1F000000000F80
1F000000000F80
0F800000000F80
0F800000000F80
07C00000000F80
03E00000000F80
03F00000000F80
01F80000000F80
00FE0000000F80
007F0000000F80
003FE000001F80
000FFC0001FF80
0007FFFFFFFF00
0001FFFFFFF800
00003FFFFFC000
000001FFF80000
ENDCHAR
STARTCHAR 011D
ENCODING 285
SWIDTH 519 0
DWIDTH 43 0
BBX 39 83 2 -20
BITMAP
0000780000
0000FC0000
0001FE0000
0001FE0000
0003FF0000
0007CF8000
000F8FC000
001F03C000
001E01E000
003C00F000
0078007800
00F0003C00
01E0001E00
0000000000
0000000000
0000000000
0000000000
0000000000
0003FF0000
001FFFFFFE
007FFFFFFE
00FE03FFFE
01F8007C00
03E0003E00
03C0001F00
0780000F00
0F80000780
0F00000780
0F00000780
0F000003C0
1F000003C0
1E000003C0
1E000003C0
1E000003C0
1E000003C0
0F000003C0
0F00000780
0F00000780
0F80000780
0780000F00
07C0001F00
03E0003E00
01F0007C00
00FE03F800
007FFFF000
001FFFC000
003FFE0000
0078000000
00F0000000
01E0000000
01C0000000
03C0000000
03C0000000
0380000000
03C0000000
03C0000000
01F0000000
01FFFFF800
007FFFFF00
007FFFFFC0
01FFFFFFF0
07E0000FF0
1F800001F8
3E0000007C
3C0000007C
780000003C
780000003C
F00000003E
F00000001E
F00000003E
F00000003C
F00000003C
F00000003C
F00000007C
F800000078
78000000F8
7C000001F0
3F000007E0
1FC0003FC0
0FFE0FFF80
07FFFFFE00
01FFFFF000
001FFF0000
ENDCHAR
STARTCHAR 011E
ENCODING 286
SWIDTH 724 0
DWIDTH 60 0
BBX 49 75 5 -1
BITMAP
000070000E0000
000070001E0000
000078001E0000
000078001C0000
00003C003C0000
00003E00780000
00001FE7F80000
00000FFFF00000
000007FFC00000
000000FF000000
00000000000000
00000000000000
00000000000000
00000000000000
000000FFF80000
00000FFFFFC000
00007FFFFFF800
0001FFFFFFFF00
0007FE0003FE00
000FF000007E00
001FC000000C00
007F0000000000
00FC0000000000
01F80000000000
01F00000000000
03E00000000000
07C00000000000
07800000000000
0F800000000000
1F000000000000
1F000000000000
1E000000000000
3E000000000000
3C000000000000
3C000000000000
7C000000000000
7C000000000000
78000000000000
78000000000000
78000000000000
F8000000000000
F8000000000000
F8000000000000
F8000000000000
F800001FFFFF80
F800001FFFFF80
F800001FFFFF80
F800001FFFFF80
F8000000000F80
F8000000000F80
78000000000F80
78000000000F80
78000000000F80
7C000000000F80
7C000000000F80
7C000000000F80
3C000000000F80
3E000000000F80
3E000000000F80
1F000000000F80
1F000000000F80
0F800000000F80
0F800000000F80
07C00000000F80
03E00000000F80
03F00000000F80
01F80000000F80
00FE0000000F80
007F0000000F80
003FE000001F80
000FFC0001FF80
0007FFFFFFFF00
0001FFFFFFF800
00003FFFFFC000
000001FFF80000
ENDCHAR
STARTCHAR 011F
ENCODING 287
SWIDTH 519 0
DWIDTH 43 0
BBX 39 80 2 -20
BITMAP
00E0001C00
00E0003C00
00F0003C00
00F0003800
0078007800
007C00F000
003FCFF000
001FFFE000
000FFF8000
0001FE0000
0000000000
0000000000
0000000000
0000000000
0000000000
0003FF0000
001FFFFFFE
007FFFFFFE
00FE03FFFE
01F8007C00
03E0003E00
03C0001F00
0780000F00
0F80000780
0F00000780
0F00000780
0F000003C0
1F000003C0
1E000003C0
1E000003C0
1E000003C0
1E000003C0
0F000003C0
0F00000780
0F00000780
0F80000780
0780000F00
07C0001F00
03E0003E00
01F0007C00
00FE03F800
007FFFF000
001FFFC000
003FFE0000
0078000000
00F0000000
01E0000000
01C0000000
03C0000000
03C0000000
0380000000
03C0000000
03C0000000
01F0000000
01FFFFF800
007FFFFF00
007FFFFFC0
01FFFFFFF0
07E0000FF0
1F800001F8
3E0000007C
3C0000007C
780000003C
780000003C
F00000003E
F00000001E
F00000003E
F00000003C
F00000003C
F00000003C
F00000007C
F800000078
78000000F8
7C000001F0
3F000007E0
1FC0003FC0
0FFE0FFF80
07FFFFFE00
01FFFFF000
001FFF0000
ENDCHAR
STARTCHAR 0120
ENCODING 288
SWIDTH 724 0
DWIDTH 60 0
BBX 49 75 5 -1
BITMAP
00000038000000
0000003C000000
0000007C000000
0000007E000000
0000007E000000
0000007C000000
0000003C000000
00000038000000
00000000000000
00000000000000
00000000000000
00000000000000
00000000000000
00000000000000
000000FFF80000
00000FFFFFC000
00007FFFFFF800
0001FFFFFFFF00
0007FE0003FE00
000FF000007E00
001FC000000C00
007F0000000000
00FC0000000000
01F80000000000
01F00000000000
03E00000000000
07C00000000000
07800000000000
0F800000000000
1F000000000000
1F000000000000
1E000000000000
3E000000000000
3C000000000000
3C000000000000
7C000000000000
7C000000000000
78000000000000
78000000000000
78000000000000
F8000000000000
F8000000000000
F8000000000000
F8000000000000
F800001FFFFF80
F800001FFFFF80
F800001FFFFF80
F800001FFFFF80
F8000000000F80
F8000000000F80
78000000000F80
78000000000F80
78000000000F80
7C000000000F80
7C000000000F80
7C000000000F80
3C000000000F80
3E000000000F80
3E000000000F80
1F000000000F80
1F000000000F80
0F800000000F80
0F800000000F80
07C00000000F80
03E00000000F80
03F00000000F80
01F80000000F80
00FE0000000F80
007F0000000F80
003FE000001F80
000FFC0001FF80
0007FFFFFFFF00
0001FFFFFFF800
00003FFFFFC000
000001FFF80000
ENDCHAR
STARTCHAR 0121
ENCODING 289
SWIDTH 519 0
DWIDTH 43 0
BBX 39 80 2 -20
BITMAP
0000380000
00003C0000
00007C0000
00007E0000
00007E0000
00007C0000
00003C0000
0000380000
0000000000
0000000000
0000000000
0000000000
0000000000
0000000000
0000000000
0003FF0000
001FFFFFFE
007FFFFFFE
00FE03FFFE
01F8007C00
03E0003E00
03C0001F00
0780000F00
0F80000780
0F00000780
0F00000780
0F000003C0
1F000003C0
1E000003C0
1E000003C0
1E000003C0
1E000003C0
0F000003C0
0F00000780
0F00000780
0F80000780
0780000F00
07C0001F00
03E0003E00
01F0007C00
00FE03F800
007FFFF000
001FFFC000
003FFE0000
0078000000
00F0000000
01E0000000
01C0000000
03C0000000
03C0000000
0380000000
03C0000000
03C0000000
01F0000000
01FFFFF800
007FFFFF00
007FFFFFC0
01FFFFFFF0
07E0000FF0
1F800001F8
3E0000007C
3C0000007C
780000003C
780000003C
F00000003E
F00000001E
F00000003E
F00000003C
F00000003C
F00000003C
F00000007C
F800000078
78000000F8
7C000001F0
3F000007E0
1FC0003FC0
0FFE0FFF80
07FFFFFE00
01FFFFF000
001FFF0000
ENDCHAR
STARTCHAR 0122
ENCODING 290
SWIDTH 724 0
DWIDTH 60 0
BBX 49 78 5 -18
BITMAP
000000FFF80000
00000FFFFFC000
00007FFFFFF800
0001FFFFFFFF00
0007FE0003FE00
000FF000007E00
001FC000000C00
007F0000000000
00FC0000000000
01F80000000000
01F00000000000
03E00000000000
07C00000000000
07800000000000
0F800000000000
1F000000000000
1F000000000000
1E000000000000
3E000000000000
3C000000000000
3C000000000000
7C000000000000
7C000000000000
78000000000000
78000000000000
78000000000000
F8000000000000
F8000000000000
F8000000000000
F8000000000000
F800001FFFFF80
F800001FFFFF80
F800001FFFFF80
F800001FFFFF80
F8000000000F80
F8000000000F80
78000000000F80
78000000000F80
78000000000F80
7C000000000F80
7C000000000F80
7C000000000F80
3C000000000F80
3E000000000F80
3E000000000F80
1F000000000F80
1F000000000F80
0F800000000F80
0F800000000F80
07C00000000F80
03E00000000F80
03F00000000F80
01F80000000F80
00FE0000000F80
007F0000000F80
003FE000001F80
000FFC0001FF80
0007FFFFFFFF00
0001FFFFFFF800
00003FFFFFC000
000003FFF80000
00000000000000
00000000000000
00000000000000
00000000000000
0000001E000000
0000003E000000
0000003E000000
0000003C000000
0000003C000000
0000003C000000
00000078000000
00000078000000
00000070000000
000000F0000000
000000E0000000
000000C0000000
000001C0000000
ENDCHAR
STARTCHAR 0123
ENCODING 291
SWIDTH 519 0
DWIDTH 43 0
BBX 39 83 2 -20
BITMAP
000001C000
0000018000
0000038000
0000038000
0000070000
00000F0000
00000F0000
00000F0000
00001E0000
00001E0000
00003E0000
00003E0000
00003C0000
0000000000
0000000000
0000000000
0000000000
0000000000
0003FF0000
001FFFFFFE
007FFFFFFE
00FE03FFFE
01F8007C00
03E0003E00
03C0001F00
0780000F00
0F80000780
0F00000780
0F00000780
0F000003C0
1F000003C0
1E000003C0
1E000003C0
1E000003C0
1E000003C0
0F000003C0
0F00000780
0F00000780
0F80000780
0780000F00
07C0001F00
03E0003E00
01F0007C00
00FE03F800
007FFFF000
001FFFC000
003FFE0000
0078000000
00F0000000
01E0000000
01C0000000
03C0000000
03C0000000
0380000000
03C0000000
03C0000000
01F0000000
01FFFFF800
007FFFFF00
007FFFFFC0
01FFFFFFF0
07E0000FF0
1F800001F8
3E0000007C
3C0000007C
780000003C
780000003C
F00000003E
F00000001E
F00000003E
F00000003C
F00000003C
F00000003C
F00000007C
F800000078
78000000F8
7C000001F0
3F000007E0
1FC0003FC0
0FFE0FFF80
07FFFFFE00
01FFFFF000
001FFF0000
ENDCHAR
STARTCHAR 0124
ENCODING 292
SWIDTH 724 0
DWIDTH 60 0
BBX 44 77 8 0
BITMAP
00000F000000
00001F800000
00003FC00000
00003FC00000
00007FE00000
0000F9F00000
0001F1F80000
0003E0780000
0003C03C0000
0007801E0000
000F000F0000
001E00078000
003C0003C000
000000000000
000000000000
000000000000
000000000000
000000000000
F800000001F0
F800000001F0
F800000001F0
F800000001F0
F800000001F0
F800000001F0
F800000001F0
F800000001F0
F800000001F0
F800000001F0
F800000001F0
F800000001F0
F800000001F0
F800000001F0
F800000001F0
F800000001F0
F800000001F0
F800000001F0
F800000001F0
F800000001F0
F800000001F0
F800000001F0
F800000001F0
F800000001F0
F800000001F0
F800000001F0
FFFFFFFFFFF0
FFFFFFFFFFF0
FFFFFFFFFFF0
FFFFFFFFFFF0
F800000001F0
F800000001F0
F800000001F0
F800000001F0
F800000001F0
F800000001F0
F800000001F0
F800000001F0
F800000001F0
F800000001F0
F800000001F0
F800000001F0
F800000001F0
F800000001F0
F800000001F0
F800000001F0
F800000001F0
F800000001F0
F800000001F0
F800000001F0
F800000001F0
F800000001F0
F800000001F0
F800000001F0
F800000001F0
F800000001F0
F800000001F0
F800000001F0
F800000001F0
ENDCHAR
STARTCHAR 0125
ENCODING 293
SWIDTH 591 0
DWIDTH 49 0
BBX 35 79 7 0
BITMAP
0000F00000
0001F80000
0003FC0000
0003FC0000
0007FE0000
000F9F0000
001F1F8000
003E078000
003C03C000
007801E000
00F000F000
01E0007800
03C0003C00
0000000000
0000000000
0000000000
F000000000
F000000000
F000000000
F000000000
F000000000
F000000000
F000000000
F000000000
F000000000
F000000000
F000000000
F000000000
F000000000
F000000000
F000000000
F000000000
F000000000
F000000000
F001FF8000
F01FFFF000
F07FFFFC00
F0FFFFFE00
F1F8007F00
F3E0001F00
F780000F80
FF000007C0
FE000003C0
FE000003C0
FC000003E0
FC000001E0
F8000001E0
F8000001E0
F8000001E0
F8000001E0
F8000001E0
F8000001E0
F0000001E0
F0000001E0
F0000001E0
F0000001E0
F0000001E0
F0000001E0
F0000001E0
F0000001E0
F0000001E0
F0000001E0
F0000001E0
F0000001E0
F0000001E0
F0000001E0
F0000001E0
F0000001E0
F0000001E0
F0000001E0
F0000001E0
F0000001E0
F0000001E0
F0000001E0
F0000001E0
F0000001E0
F0000001E0
F0000001E0
F0000001E0
ENDCHAR
STARTCHAR 0126
ENCODING 294
SWIDTH 724 0
DWIDTH 60 0
BBX 60 59 0 0
BITMAP
00F800000001F000
00F800000001F000
00F800000001F000
00F800000001F000
00F800000001F000
00F800000001F000
00F800000001F000
00F800000001F000
00F800000001F000
00F800000001F000
00F800000001F000
FFFFFFFFFFFFFFF0
FFFFFFFFFFFFFFF0
FFFFFFFFFFFFFFF0
FFFFFFFFFFFFFFF0
00F800000001F000
00F800000001F000
00F800000001F000
00F800000001F000
00F800000001F000
00F800000001F000
00F800000001F000
00F800000001F000
00F800000001F000
00F800000001F000
00F800000001F000
00FFFFFFFFFFF000
00FFFFFFFFFFF000
00FFFFFFFFFFF000
00FFFFFFFFFFF000
00F800000001F000
00F800000001F000
00F800000001F000
00F800000001F000
00F800000001F000
00F800000001F000
00F800000001F000
00F800000001F000
00F800000001F000
00F800000001F000
00F800000001F000
00F800000001F000
00F800000001F000
00F800000001F000
00F800000001F000
00F800000001F000
00F800000001F000
00F800000001F000
00F800000001F000
00F800000001F000
00F800000001F000
00F800000001F000
00F800000001F000
00F800000001F000
00F800000001F000
00F800000001F000
00F800000001F000
00F800000001F000
00F800000001F000
ENDCHAR
STARTCHAR 0127
ENCODING 295
SWIDTH 591 0
DWIDTH 49 0
BBX 41 63 1 0
BITMAP
03C000000000
03C000000000
03C000000000
03C000000000
03C000000000
03C000000000
03C000000000
03C000000000
FFFFFFFC0000
FFFFFFFC0000
FFFFFFFC0000
03C000000000
03C000000000
03C000000000
03C000000000
03C000000000
03C000000000
03C000000000
03C000000000
03C007FE0000
03C07FFFC000
03C1FFFFF000
03C3FFFFF800
03C7E001FC00
03CF80007C00
03DE00003E00
03DC00001F00
03F800000F00
03F800000F00
03F000000F00
03F000000780
03E000000780
03E000000780
03E000000780
03E000000780
03E000000780
03E000000780
03C000000780
03C000000780
03C000000780
03C000000780
03C000000780
03C000000780
03C000000780
03C000000780
03C000000780
03C000000780
03C000000780
03C000000780
03C000000780
03C000000780
03C000000780
03C000000780
03C000000780
03C000000780
03C000000780
03C000000780
03C000000780
03C000000780
03C000000780
03C000000780
03C000000780
03C000000780
ENDCHAR
STARTCHAR 0128
ENCODING 296
SWIDTH 253 0
DWIDTH 21 0
BBX 28 74 -3 0
BITMAP
07C00070
1FF000F0
3FF800E0
7E7C00E0
783F01E0
F00F83C0
E007EFC0
E003FF80
E001FF00
E0007C00
00000000
00000000
00000000
00000000
00000000
001F0000
001F0000
001F0000
001F0000
001F0000
001F0000
001F0000
001F0000
001F0000
001F0000
001F0000
001F0000
001F0000
001F0000
001F0000
001F0000
001F0000
001F0000
001F0000
001F0000
001F0000
001F0000
001F0000
001F0000
001F0000
001F0000
001F0000
001F0000
001F0000
001F0000
001F0000
001F0000
001F0000
001F0000
001F0000
001F0000
001F0000
001F0000
001F0000
001F0000
001F0000
001F0000
001F0000
001F0000
001F0000
001F0000
001F0000
001F0000
001F0000
001F0000
001F0000
001F0000
001F0000
001F0000
001F0000
001F0000
001F0000
001F0000
001F0000
ENDCHAR
STARTCHAR 0129
ENCODING 297
SWIDTH 229 0
DWIDTH 19 0
BBX 28 60 -4 0
BITMAP
07C00070
1FF000F0
3FF800E0
7E7C00E0
783F01E0
F00F83C0
E007EFC0
E003FF80
E001FF00
E0007C00
00000000
00000000
00000000
00000000
00000000
00000000
001E0000
001E0000
001E0000
001E0000
001E0000
001E0000
001E0000
001E0000
001E0000
001E0000
001E0000
001E0000
001E0000
001E0000
001E0000
001E0000
001E0000
001E0000
001E0000
001E0000
001E0000
001E0000
001E0000
001E0000
001E0000
001E0000
001E0000
001E0000
001E0000
001E0000
001E0000
001E0000
001E0000
001E0000
001E0000
001E0000
001E0000
001E0000
001E0000
001E0000
001E0000
001E0000
001E0000
001E0000
ENDCHAR
STARTCHAR 012A
ENCODING 298
SWIDTH 253 0
DWIDTH 21 0
BBX 22 68 -1 0
BITMAP
FFFFFC
FFFFFC
FFFFFC
000000
000000
000000
000000
000000
000000
007C00
007C00
007C00
007C00
007C00
007C00
007C00
007C00
007C00
007C00
007C00
007C00
007C00
007C00
007C00
007C00
007C00
007C00
007C00
007C00
007C00
007C00
007C00
007C00
007C00
007C00
007C00
007C00
007C00
007C00
007C00
007C00
007C00
007C00
007C00
007C00
007C00
007C00
007C00
007C00
007C00
007C00
007C00
007C00
007C00
007C00
007C00
007C00
007C00
007C00
007C00
007C00
007C00
007C00
007C00
007C00
007C00
007C00
007C00
ENDCHAR
STARTCHAR 012B
ENCODING 299
SWIDTH 229 0
DWIDTH 19 0
BBX 22 54 -2 0
BITMAP
FFFFFC
FFFFFC
FFFFFC
000000
000000
000000
000000
000000
000000
000000
007800
007800
007800
007800
007800
007800
007800
007800
007800
007800
007800
007800
007800
007800
007800
007800
007800
007800
007800
007800
007800
007800
007800
007800
007800
007800
007800
007800
007800
007800
007800
007800
007800
007800
007800
007800
007800
007800
007800
007800
007800
007800
007800
007800
ENDCHAR
STARTCHAR 012C
ENCODING 300
SWIDTH 253 0
DWIDTH 21 0
BBX 22 74 0 0
BITMAP
E0001C
E0003C
F0003C
F00038
780078
7C00F0
3FCFF0
1FFFE0
0FFF80
01FE00
000000
000000
000000
000000
000000
00F800
00F800
00F800
00F800
00F800
00F800
00F800
00F800
00F800
00F800
00F800
00F800
00F800
00F800
00F800
00F800
00F800
00F800
00F800
00F800
00F800
00F800
00F800
00F800
00F800
00F800
00F800
00F800
00F800
00F800
00F800
00F800
00F800
00F800
00F800
00F800
00F800
00F800
00F800
00F800
00F800
00F800
00F800
00F800
00F800
00F800
00F800
00F800
00F800
00F800
00F800
00F800
00F800
00F800
00F800
00F800
00F800
00F800
00F800
ENDCHAR
STARTCHAR 012D
ENCODING 301
SWIDTH 229 0
DWIDTH 19 0
BBX 22 60 -1 0
BITMAP
E0001C
E0003C
F0003C
F00038
780078
7C00F0
3FCFF0
1FFFE0
0FFF80
01FE00
000000
000000
000000
000000
000000
000000
00F000
00F000
00F000
00F000
00F000
00F000
00F000
00F000
00F000
00F000
00F000
00F000
00F000
00F000
00F000
00F000
00F000
00F000
00F000
00F000
00F000
00F000
00F000
00F000
00F000
00F000
00F000
00F000
00F000
00F000
00F000
00F000
00F000
00F000
00F000
00F000
00F000
00F000
00F000
00F000
00F000
00F000
00F000
00F000
ENDCHAR
STARTCHAR 012E
ENCODING 302
SWIDTH 253 0
DWIDTH 21 0
BBX 12 77 2 -18
BITMAP
03E0
03E0
03E0
03E0
03E0
03E0
03E0
03E0
03E0
03E0
03E0
03E0
03E0
03E0
03E0
03E0
03E0
03E0
03E0
03E0
03E0
03E0
03E0
03E0
03E0
03E0
03E0
03E0
03E0
03E0
03E0
03E0
03E0
03E0
03E0
03E0
03E0
03E0
03E0
03E0
03E0
03E0
03E0
03E0
03E0
03E0
03E0
03E0
03E0
03E0
03E0
03E0
03E0
03E0
03E0
03E0
03E0
03E0
03E0
0380
0700
0F00
1E00
3C00
3C00
7800
7800
7800
7800
F800
F800
7800
7C00
7FF0
3FF0
1FF0
07E0
ENDCHAR
STARTCHAR 012F
ENCODING 303
SWIDTH 229 0
DWIDTH 19 0
BBX 12 78 1 -18
BITMAP
01C0
03E0
03E0
03E0
03E0
03E0
03E0
01C0
0000
0000
0000
0000
0000
0000
0000
0000
03C0
03C0
03C0
03C0
03C0
03C0
03C0
03C0
03C0
03C0
03C0
03C0
03C0
03C0
03C0
03C0
03C0
03C0
03C0
03C0
03C0
03C0
03C0
03C0
03C0
03C0
03C0
03C0
03C0
03C0
03C0
03C0
03C0
03C0
03C0
03C0
03C0
03C0
03C0
03C0
03C0
03C0
03C0
03C0
0380
0700
0F00
1E00
3C00
3C00
7800
7800
7800
7800
F800
F800
7800
7C00
7FF0
3FF0
1FF0
07E0
ENDCHAR
STARTCHAR 0130
ENCODING 304
SWIDTH 253 0
DWIDTH 21 0
BBX 6 74 8 0
BITMAP
70
78
F8
FC
FC
F8
78
70
00
00
00
00
00
00
00
F8
F8
F8
F8
F8
F8
F8
F8
F8
F8
F8
F8
F8
F8
F8
F8
F8
F8
F8
F8
F8
F8
F8
F8
F8
F8
F8
F8
F8
F8
F8
F8
F8
F8
F8
F8
F8
F8
F8
F8
F8
F8
F8
F8
F8
F8
F8
F8
F8
F8
F8
F8
F8
F8
F8
F8
F8
F8
F8
ENDCHAR
STARTCHAR 0131
ENCODING 305
SWIDTH 229 0
DWIDTH 19 0
BBX 4 44 7 0
BITMAP
F0
F0
F0
F0
F0
F0
F0
F0
F0
F0
F0
F0
F0
F0
F0
F0
F0
F0
F0
F0
F0
F0
F0
F0
F0
F0
F0
F0
F0
F0
F0
F0
F0
F0
F0
F0
F0
F0
F0
F0
F0
F0
F0
F0
ENDCHAR
STARTCHAR 0132
ENCODING 306
SWIDTH 495 0
DWIDTH 41 0
BBX 26 74 8 -15
BITMAP
F80003C0
F80003C0
F80003C0
F80003C0
F80003C0
F80003C0
F80003C0
F80003C0
F80003C0
F80003C0
F80003C0
F80003C0
F80003C0
F80003C0
F80003C0
F80003C0
F80003C0
F80003C0
F80003C0
F80003C0
F80003C0
F80003C0
F80003C0
F80003C0
F80003C0
F80003C0
F80003C0
F80003C0
F80003C0
F80003C0
F80003C0
F80003C0
F80003C0
F80003C0
F80003C0
F80003C0
F80003C0
F80003C0
F80003C0
F80003C0
F80003C0
F80003C0
F80003C0
F80003C0
F80003C0
F80003C0
F80003C0
F80003C0
F80003C0
F80003C0
F80003C0
F80003C0
F80003C0
F80003C0
F80003C0
F80003C0
F80003C0
F80003C0
F80003C0
000003C0
000003C0
000007C0
000007C0
00000780
00000780
00000F80
00000F80
00001F00
00003F00
0000FE00
03FFFC00
03FFF800
03FFE000
01FF0000
ENDCHAR
STARTCHAR 0133
ENCODING 307
SWIDTH 459 0
DWIDTH 38 0
BBX 24 80 7 -20
BITMAP
70000E
F8001F
F8001F
F8001F
F8001F
F8001F
F8001F
70000E
000000
000000
000000
000000
000000
000000
000000
000000
F0001E
F0001E
F0001E
F0001E
F0001E
F0001E
F0001E
F0001E
F0001E
F0001E
F0001E
F0001E
F0001E
F0001E
F0001E
F0001E
F0001E
F0001E
F0001E
F0001E
F0001E
F0001E
F0001E
F0001E
F0001E
F0001E
F0001E
F0001E
F0001E
F0001E
F0001E
F0001E
F0001E
F0001E
F0001E
F0001E
F0001E
F0001E
F0001E
F0001E
F0001E
F0001E
F0001E
F0001E
00001E
00001E
00001E
00001E
00001E
00001E
00001E
00001E
00001E
00001E
00001E
00001E
00001E
00001E
00003C
00007C
00FFF8
00FFF0
00FFE0
003F80
ENDCHAR
STARTCHAR 0134
ENCODING 308
SWIDTH 253 0
DWIDTH 21 0
BBX 30 92 -7 -15
BITMAP
0000F000
0001F800
0003FC00
0003FC00
0007FE00
000F9F00
001F1F80
003E0780
003C03C0
007801E0
00F000F0
01E00078
03C0003C
00000000
00000000
00000000
00000000
00000000
0000F000
0000F000
0000F000
0000F000
0000F000
0000F000
0000F000
0000F000
0000F000
0000F000
0000F000
0000F000
0000F000
0000F000
0000F000
0000F000
0000F000
0000F000
0000F000
0000F000
0000F000
0000F000
0000F000
0000F000
0000F000
0000F000
0000F000
0000F000
0000F000
0000F000
0000F000
0000F000
0000F000
0000F000
0000F000
0000F000
0000F000
0000F000
0000F000
0000F000
0000F000
0000F000
0000F000
0000F000
0000F000
0000F000
0000F000
0000F000
0000F000
0000F000
0000F000
0000F000
0000F000
0000F000
0000F000
0000F000
0000F000
0000F000
0000F000
0000F000
0000F000
0001F000
0001F000
0001E000
0001E000
0003E000
0003E000
0007C000
000FC000
003F8000
FFFF0000
FFFE0000
FFF80000
7FC00000
ENDCHAR
STARTCHAR 0135
ENCODING 309
SWIDTH 229 0
DWIDTH 19 0
BBX 26 83 -4 -20
BITMAP
000F0000
001F8000
003FC000
003FC000
007FE000
00F9F000
01F1F800
03E07800
03C03C00
07801E00
0F000F00
1E000780
3C0003C0
00000000
00000000
00000000
00000000
00000000
00000000
001E0000
001E0000
001E0000
001E0000
001E0000
001E0000
001E0000
001E0000
001E0000
001E0000
001E0000
001E0000
001E0000
001E0000
001E0000
001E0000
001E0000
001E0000
001E0000
001E0000
001E0000
001E0000
001E0000
001E0000
001E0000
001E0000
001E0000
001E0000
001E0000
001E0000
001E0000
001E0000
001E0000
001E0000
001E0000
001E0000
001E0000
001E0000
001E0000
001E0000
001E0000
001E0000
001E0000
001E0000
001E0000
001E0000
001E0000
001E0000
001E0000
001E0000
001E0000
001E0000
001E0000
001E0000
001E0000
001E0000
001E0000
001E0000
003C0000
007C0000
FFF80000
FFF00000
FFE00000
3F800000
ENDCHAR
STARTCHAR 0136
ENCODING 310
SWIDTH 579 0
DWIDTH 48 0
BBX 40 77 8 -18
BITMAP
F00000003E
F00000007C
F0000000F8
F0000001F0
F0000003E0
F0000007C0
F000000F80
F000001F00
F000003E00
F000007C00
F00000F800
F00001F000
F00003E000
F00007C000
F0000F8000
F0001F0000
F0003E0000
F0007C0000
F000F80000
F001F00000
F003F00000
F003E00000
F007C00000
F00F800000
F01F000000
F03F000000
F07F000000
F0FF800000
F1F7C00000
F3C3E00000
F783E00000
FF01F00000
FE00F80000
FC00F80000
F8007C0000
F0003E0000
F0001F0000
F0001F0000
F0000F8000
F00007C000
F00003E000
F00003E000
F00001F000
F00000F800
F00000F800
F000007C00
F000003E00
F000001F00
F000001F00
F000000F80
F0000007C0
F0000007E0
F0000003E0
F0000001F0
F0000000F8
F0000000F8
F00000007C
F00000003E
F00000001F
0000000000
0000000000
0000000000
0000000000
0000000000
0000780000
0000F80000
0000F80000
0000F00000
0000F00000
0000F00000
0001E00000
0001E00000
0001C00000
0003C00000
0003800000
0003000000
0007000000
ENDCHAR
STARTCHAR 0137
ENCODING 311
SWIDTH 483 0
DWIDTH 40 0
BBX 33 81 7 -18
BITMAP
F000000000
F000000000
F000000000
F000000000
F000000000
F000000000
F000000000
F000000000
F000000000
F000000000
F000000000
F000000000
F000000000
F000000000
F000000000
F000000000
F000000000
F000000000
F000000000
F000003E00
F000007C00
F00000F800
F00001F000
F00001E000
F00003C000
F00007C000
F0000F8000
F0001F0000
F0003E0000
F0007C0000
F000F80000
F001F00000
F003E00000
F007C00000
F007800000
F00F000000
F01E000000
F03E000000
F07E000000
F0FF000000
F1FF000000
F3EF800000
F7C7C00000
FF83C00000
FE03E00000
FC01F00000
F800F80000
F000780000
F0007C0000
F0003E0000
F0001F0000
F0000F0000
F0000F8000
F00007C000
F00003E000
F00001E000
F00001F000
F00000F800
F000007C00
F000003C00
F000003E00
F000001F00
F000000F80
0000000000
0000000000
0000000000
0000000000
0000000000
0001E00000
0003E00000
0003E00000
0003C00000
0003C00000
0003C00000
0007800000
0007800000
0007000000
000F000000
000E000000
000C000000
001C000000
ENDCHAR
STARTCHAR 0138
ENCODING 312
SWIDTH 483 0
DWIDTH 40 0
BBX 33 44 7 0
BITMAP
F000003E00
F000007C00
F00000F800
F00001F000
F00001E000
F00003C000
F00007C000
F0000F8000
F0001F0000
F0003E0000
F0007C0000
F000F80000
F001F00000
F003E00000
F007C00000
F007800000
F00F000000
F01E000000
F03E000000
F07E000000
F0FF000000
F1FF000000
F3EF800000
F7C7C00000
FF83C00000
FE03E00000
FC01F00000
F800F80000
F000780000
F0007C0000
F0003E0000
F0001F0000
F0000F0000
F0000F8000
F00007C000
F00003E000
F00001E000
F00001F000
F00000F800
F000007C00
F000003C00
F000003E00
F000001F00
F000000F80
ENDCHAR
STARTCHAR 0139
ENCODING 313
SWIDTH 519 0
DWIDTH 43 0
BBX 33 77 8 0
BITMAP
003F800000
003F000000
007E000000
00FC000000
00F8000000
01F0000000
03E0000000
07C0000000
0F80000000
0F00000000
1E00000000
3C00000000
7000000000
0000000000
0000000000
0000000000
0000000000
0000000000
F800000000
F800000000
F800000000
F800000000
F800000000
F800000000
F800000000
F800000000
F800000000
F800000000
F800000000
F800000000
F800000000
F800000000
F800000000
F800000000
F800000000
F800000000
F800000000
F800000000
F800000000
F800000000
F800000000
F800000000
F800000000
F800000000
F800000000
F800000000
F800000000
F800000000
F800000000
F800000000
F800000000
F800000000
F800000000
F800000000
F800000000
F800000000
F800000000
F800000000
F800000000
F800000000
F800000000
F800000000
F800000000
F800000000
F800000000
F800000000
F800000000
F800000000
F800000000
F800000000
F800000000
F800000000
F800000000
FFFFFFFF80
FFFFFFFF80
FFFFFFFF80
FFFFFFFF80
ENDCHAR
STARTCHAR 013A
ENCODING 314
SWIDTH 229 0
DWIDTH 19 0
BBX 16 79 6 0
BITMAP
007F
007E
00FC
01F8
01F0
03E0
07C0
0F80
1F00
1E00
3C00
7800
E000
0000
0000
0000
7800
7800
7800
7800
7800
7800
7800
7800
7800
7800
7800
7800
7800
7800
7800
7800
7800
7800
7800
7800
7800
7800
7800
7800
7800
7800
7800
7800
7800
7800
7800
7800
7800
7800
7800
7800
7800
7800
7800
7800
7800
7800
7800
7800
7800
7800
7800
7800
7800
7800
7800
7800
7800
7800
7800
7800
7800
7800
7800
7800
7800
7800
7800
ENDCHAR
STARTCHAR 013B
ENCODING 315
SWIDTH 519 0
DWIDTH 43 0
BBX 33 77 8 -18
BITMAP
F800000000
F800000000
F800000000
F800000000
F800000000
F800000000
F800000000
F800000000
F800000000
F800000000
F800000000
F800000000
F800000000
F800000000
F800000000
F800000000
F800000000
F800000000
F800000000
F800000000
F800000000
F800000000
F800000000
F800000000
F800000000
F800000000
F800000000
F800000000
F800000000
F800000000
F800000000
F800000000
F800000000
F800000000
F800000000
F800000000
F800000000
F800000000
F800000000
F800000000
F800000000
F800000000
F800000000
F800000000
F800000000
F800000000
F800000000
F800000000
F800000000
F800000000
F800000000
F800000000
F800000000
F800000000
F800000000
FFFFFFFF80
FFFFFFFF80
FFFFFFFF80
FFFFFFFF80
0000000000
0000000000
0000000000
0000000000
0000000000
0001E00000
0003E00000
0003E00000
0003C00000
0003C00000
0003C00000
0007800000
0007800000
0007000000
000F000000
000E000000
000C000000
001C000000
ENDCHAR
STARTCHAR 013C
ENCODING 316
SWIDTH 229 0
DWIDTH 19 0
BBX 8 81 4 -18
BITMAP
1E
1E
1E
1E
1E
1E
1E
1E
1E
1E
1E
1E
1E
1E
1E
1E
1E
1E
1E
1E
1E
1E
1E
1E
1E
1E
1E
1E
1E
1E
1E
1E
1E
1E
1E
1E
1E
1E
1E
1E
1E
1E
1E
1E
1E
1E
1E
1E
1E
1E
1E
1E
1E
1E
1E
1E
1E
1E
1E
1E
1E
1E
1E
00
00
00
00
00
0F
1F
1F
1E
1E
1E
3C
3C
38
78
70
60
E0
ENDCHAR
STARTCHAR 013D
ENCODING 317
SWIDTH 519 0
DWIDTH 43 0
BBX 33 59 8 0
BITMAP
F80001F000
F80001F000
F80001E000
F80001E000
F80003E000
F80003C000
F80003C000
F800038000
F800078000
F800070000
F800070000
F8000E0000
F8000C0000
F800000000
F800000000
F800000000
F800000000
F800000000
F800000000
F800000000
F800000000
F800000000
F800000000
F800000000
F800000000
F800000000
F800000000
F800000000
F800000000
F800000000
F800000000
F800000000
F800000000
F800000000
F800000000
F800000000
F800000000
F800000000
F800000000
F800000000
F800000000
F800000000
F800000000
F800000000
F800000000
F800000000
F800000000
F800000000
F800000000
F800000000
F800000000
F800000000
F800000000
F800000000
F800000000
FFFFFFFF80
FFFFFFFF80
FFFFFFFF80
FFFFFFFF80
ENDCHAR
STARTCHAR 013E
ENCODING 318
SWIDTH 229 0
DWIDTH 19 0
BBX 17 63 7 0
BITMAP
F00F80
F00F80
F00F00
F00F00
F01F00
F01E00
F01E00
F01C00
F03C00
F03800
F03800
F07000
F06000
F00000
F00000
F00000
F00000
F00000
F00000
F00000
F00000
F00000
F00000
F00000
F00000
F00000
F00000
F00000
F00000
F00000
F00000
F00000
F00000
F00000
F00000
F00000
F00000
F00000
F00000
F00000
F00000
F00000
F00000
F00000
F00000
F00000
F00000
F00000
F00000
F00000
F00000
F00000
F00000
F00000
F00000
F00000
F00000
F00000
F00000
F00000
F00000
F00000
F00000
ENDCHAR
STARTCHAR 013F
ENCODING 319
SWIDTH 519 0
DWIDTH 43 0
BBX 33 59 8 0
BITMAP
F800000000
F800000000
F800000000
F800000000
F800000000
F800000000
F800000000
F800000000
F800000000
F800000000
F800000000
F800000000
F800000000
F800000000
F800000000
F800000000
F800000000
F800000000
F800000000
F800000000
F800000000
F800000000
F800000000
F800000000
F800000000
F800000000
F800070000
F800078000
F8000F8000
F8000FC000
F8000FC000
F8000F8000
F800078000
F800070000
F800000000
F800000000
F800000000
F800000000
F800000000
F800000000
F800000000
F800000000
F800000000
F800000000
F800000000
F800000000
F800000000
F800000000
F800000000
F800000000
F800000000
F800000000
F800000000
F800000000
F800000000
FFFFFFFF80
FFFFFFFF80
FFFFFFFF80
FFFFFFFF80
ENDCHAR
STARTCHAR 0140
ENCODING 320
SWIDTH 229 0
DWIDTH 19 0
BBX 15 63 7 0
BITMAP
F000
F000
F000
F000
F000
F000
F000
F000
F000
F000
F000
F000
F000
F000
F000
F000
F000
F000
F000
F000
F000
F000
F000
F000
F000
F000
F000
F000
F000
F000
F000
F000
F038
F03C
F07C
F07E
F07E
F07C
F03C
F038
F000
F000
F000
F000
F000
F000
F000
F000
F000
F000
F000
F000
F000
F000
F000
F000
F000
F000
F000
F000
F000
F000
F000
ENDCHAR
STARTCHAR 0141
ENCODING 321
SWIDTH 519 0
DWIDTH 43 0
BBX 40 59 1 0
BITMAP
01F0000000
01F0000000
01F0000000
01F0000000
01F0000000
01F0000000
01F0000000
01F0000000
01F0000000
01F0000000
01F0000000
01F0000000
01F0000000
01F0000000
01F0000000
01F0000000
01F0000000
01F0000000
01F0000000
01F0000000
01F0000000
01F0000000
01F0008000
01F003C000
01F007E000
01F01FC000
01F07F0000
01F0FE0000
01F3F80000
01F7E00000
01FFC00000
01FF000000
01FC000000
03F8000000
0FF0000000
1FF0000000
7FF0000000
FDF0000000
71F0000000
21F0000000
01F0000000
01F0000000
01F0000000
01F0000000
01F0000000
01F0000000
01F0000000
01F0000000
01F0000000
01F0000000
01F0000000
01F0000000
01F0000000
01F0000000
01F0000000
01FFFFFFFF
01FFFFFFFF
01FFFFFFFF
01FFFFFFFF
ENDCHAR
STARTCHAR 0142
ENCODING 322
SWIDTH 229 0
DWIDTH 19 0
BBX 18 63 1 0
BITMAP
03C000
03C000
03C000
03C000
03C000
03C000
03C000
03C000
03C000
03C000
03C000
03C000
03C000
03C000
03C000
03C000
03C000
03C000
03C000
03C000
03C000
03C000
03C000
03C000
03C000
03C000
03C080
03C1C0
03C7C0
03DF80
03FF00
03FC00
03F800
07E000
1FC000
3FC000
FFC000
FBC000
F3C000
43C000
03C000
03C000
03C000
03C000
03C000
03C000
03C000
03C000
03C000
03C000
03C000
03C000
03C000
03C000
03C000
03C000
03C000
03C000
03C000
03C000
03C000
03C000
03C000
ENDCHAR
STARTCHAR 0143
ENCODING 323
SWIDTH 724 0
DWIDTH 60 0
BBX 44 77 8 0
BITMAP
0000003F8000
0000003F0000
0000007E0000
000000FC0000
000000F80000
000001F00000
000003E00000
000007C00000
00000F800000
00000F000000
00001E000000
00003C000000
000070000000
000000000000
000000000000
000000000000
000000000000
000000000000
F800000000F0
FC00000000F0
FC00000000F0
FE00000000F0
FF00000000F0
FF00000000F0
FF80000000F0
F7C0000000F0
F7C0000000F0
F3E0000000F0
F1F0000000F0
F1F0000000F0
F0F8000000F0
F07C000000F0
F03C000000F0
F03E000000F0
F01F000000F0
F00F000000F0
F00F800000F0
F007C00000F0
F003C00000F0
F003E00000F0
F001F00000F0
F000F00000F0
F000F80000F0
F0007C0000F0
F0003C0000F0
F0003E0000F0
F0001F0000F0
F0000F0000F0
F0000F8000F0
F00007C000F0
F00003C000F0
F00003E000F0
F00001F000F0
F00000F000F0
F00000F800F0
F000007C00F0
F000003C00F0
F000003E00F0
F000001F00F0
F000000F00F0
F000000F80F0
F0000007C0F0
F0000003C0F0
F0000003E0F0
F0000001F0F0
F0000000F0F0
F0000000F8F0
F00000007CF0
F00000003EF0
F00000003EF0
F00000001FF0
F00000000FF0
F00000000FF0
F000000007F0
F000000003F0
F000000003F0
F000000001F0
ENDCHAR
STARTCHAR 0144
ENCODING 324
SWIDTH 591 0
DWIDTH 49 0
BBX 35 63 7 0
BITMAP
000003F800
000003F000
000007E000
00000FC000
00000F8000
00001F0000
00003E0000
00007C0000
0000F80000
0000F00000
0001E00000
0003C00000
0007000000
0000000000
0000000000
0000000000
0000000000
0000000000
0001FF8000
F01FFFF000
F07FFFFC00
F0FFFFFE00
F1F8007F00
F3E0001F00
F780000F80
FF000007C0
FE000003C0
FE000003C0
FC000003E0
FC000001E0
F8000001E0
F8000001E0
F8000001E0
F8000001E0
F8000001E0
F8000001E0
F0000001E0
F0000001E0
F0000001E0
F0000001E0
F0000001E0
F0000001E0
F0000001E0
F0000001E0
F0000001E0
F0000001E0
F0000001E0
F0000001E0
F0000001E0
F0000001E0
F0000001E0
F0000001E0
F0000001E0
F0000001E0
F0000001E0
F0000001E0
F0000001E0
F0000001E0
F0000001E0
F0000001E0
F0000001E0
F0000001E0
F0000001E0
ENDCHAR
STARTCHAR 0145
ENCODING 325
SWIDTH 724 0
DWIDTH 60 0
BBX 44 77 8 -18
BITMAP
F800000000F0
FC00000000F0
FC00000000F0
FE00000000F0
FF00000000F0
FF00000000F0
FF80000000F0
F7C0000000F0
F7C0000000F0
F3E0000000F0
F1F0000000F0
F1F0000000F0
F0F8000000F0
F07C000000F0
F03C000000F0
F03E000000F0
F01F000000F0
F00F000000F0
F00F800000F0
F007C00000F0
F003C00000F0
F003E00000F0
F001F00000F0
F000F00000F0
F000F80000F0
F0007C0000F0
F0003C0000F0
F0003E0000F0
F0001F0000F0
F0000F0000F0
F0000F8000F0
F00007C000F0
F00003C000F0
F00003E000F0
F00001F000F0
F00000F000F0
F00000F800F0
F000007C00F0
F000003C00F0
F000003E00F0
F000001F00F0
F000000F00F0
F000000F80F0
F0000007C0F0
F0000003C0F0
F0000003E0F0
F0000001F0F0
F0000000F0F0
F0000000F8F0
F00000007CF0
F00000003EF0
F00000003EF0
F00000001FF0
F00000000FF0
F00000000FF0
F000000007F0
F000000003F0
F000000003F0
F000000001F0
000000000000
000000000000
000000000000
000000000000
000000000000
00000F000000
00001F000000
00001F000000
00001E000000
00001E000000
00001E000000
00003C000000
00003C000000
000038000000
000078000000
000070000000
000060000000
0000E0000000
ENDCHAR
STARTCHAR 0146
ENCODING 326
SWIDTH 591 0
DWIDTH 49 0
BBX 35 63 7 -18
BITMAP
0001FF8000
F01FFFF000
F07FFFFC00
F0FFFFFE00
F1F8007F00
F3E0001F00
F780000F80
FF000007C0
FE000003C0
FE000003C0
FC000003E0
FC000001E0
F8000001E0
F8000001E0
F8000001E0
F8000001E0
F8000001E0
F8000001E0
F0000001E0
F0000001E0
F0000001E0
F0000001E0
F0000001E0
F0000001E0
F0000001E0
F0000001E0
F0000001E0
F0000001E0
F0000001E0
F0000001E0
F0000001E0
F0000001E0
F0000001E0
F0000001E0
F0000001E0
F0000001E0
F0000001E0
F0000001E0
F0000001E0
F0000001E0
F0000001E0
F0000001E0
F0000001E0
F0000001E0
F0000001E0
0000000000
0000000000
0000000000
0000000000
0000000000
0000F00000
0001F00000
0001F00000
0001E00000
0001E00000
0001E00000
0003C00000
0003C00000
0003800000
0007800000
0007000000
0006000000
000E000000
ENDCHAR
STARTCHAR 0147
ENCODING 327
SWIDTH 724 0
DWIDTH 60 0
BBX 44 77 8 0
BITMAP
003C0003C000
001E00078000
000F000F0000
0007801E0000
0003C03C0000
0003E0780000
0001F0F80000
0000F9F00000
00007FE00000
00003FC00000
00003FC00000
00001F800000
00000F000000
000000000000
000000000000
000000000000
000000000000
000000000000
F800000000F0
FC00000000F0
FC00000000F0
FE00000000F0
FF00000000F0
FF00000000F0
FF80000000F0
F7C0000000F0
F7C0000000F0
F3E0000000F0
F1F0000000F0
F1F0000000F0
F0F8000000F0
F07C000000F0
F03C000000F0
F03E000000F0
F01F000000F0
F00F000000F0
F00F800000F0
F007C00000F0
F003C00000F0
F003E00000F0
F001F00000F0
F000F00000F0
F000F80000F0
F0007C0000F0
F0003C0000F0
F0003E0000F0
F0001F0000F0
F0000F0000F0
F0000F8000F0
F00007C000F0
F00003C000F0
F00003E000F0
F00001F000F0
F00000F000F0
F00000F800F0
F000007C00F0
F000003C00F0
F000003E00F0
F000001F00F0
F000000F00F0
F000000F80F0
F0000007C0F0
F0000003C0F0
F0000003E0F0
F0000001F0F0
F0000000F0F0
F0000000F8F0
F00000007CF0
F00000003EF0
F00000003EF0
F00000001FF0
F00000000FF0
F00000000FF0
F000000007F0
F000000003F0
F000000003F0
F000000001F0
ENDCHAR
STARTCHAR 0148
ENCODING 328
SWIDTH 591 0
DWIDTH 49 0
BBX 35 63 7 0
BITMAP
03C0003C00
01E0007800
00F000F000
007801E000
003C03C000
003E078000
001F0F8000
000F9F0000
0007FE0000
0003FC0000
0003FC0000
0001F80000
0000F00000
0000000000
0000000000
0000000000
0000000000
0000000000
0001FF8000
F01FFFF000
F07FFFFC00
F0FFFFFE00
F1F8007F00
F3E0001F00
F780000F80
FF000007C0
FE000003C0
FE000003C0
FC000003E0
FC000001E0
F8000001E0
F8000001E0
F8000001E0
F8000001E0
F8000001E0
F8000001E0
F0000001E0
F0000001E0
F0000001E0
F0000001E0
F0000001E0
F0000001E0
F0000001E0
F0000001E0
F0000001E0
F0000001E0
F0000001E0
F0000001E0
F0000001E0
F0000001E0
F0000001E0
F0000001E0
F0000001E0
F0000001E0
F0000001E0
F0000001E0
F0000001E0
F0000001E0
F0000001E0
F0000001E0
F0000001E0
F0000001E0
F0000001E0
ENDCHAR
STARTCHAR 0149
ENCODING 329
SWIDTH 628 0
DWIDTH 52 0
BBX 45 59 0 0
BITMAP
07C000000000
0FC000000000
0F8000000000
0F8000000000
0F8000000000
0F0000000000
1F0000000000
1F0000000000
1E0000000000
1E0000000000
1E0000000000
3C0000000000
3C0000000000
3C0000000000
3800007FE000
783C07FFFC00
703C1FFFFF00
703C3FFFFF80
603C7E001FC0
E03CF80007C0
003DE00003E0
003FC00001F0
003F800000F0
003F800000F0
003F000000F8
003F00000078
003E00000078
003E00000078
003E00000078
003E00000078
003E00000078
003E00000078
003C00000078
003C00000078
003C00000078
003C00000078
003C00000078
003C00000078
003C00000078
003C00000078
003C00000078
003C00000078
003C00000078
003C00000078
003C00000078
003C00000078
003C00000078
003C00000078
003C00000078
003C00000078
003C00000078
003C00000078
003C00000078
003C00000078
003C00000078
003C00000078
003C00000078
003C00000078
003C00000078
ENDCHAR
STARTCHAR 014A
ENCODING 330
SWIDTH 724 0
DWIDTH 60 0
BBX 44 74 8 -15
BITMAP
F800000000F0
FC00000000F0
FC00000000F0
FE00000000F0
FF00000000F0
FF00000000F0
FF80000000F0
F7C0000000F0
F7C0000000F0
F3E0000000F0
F1F0000000F0
F1F0000000F0
F0F8000000F0
F07C000000F0
F03C000000F0
F03E000000F0
F01F000000F0
F00F000000F0
F00F800000F0
F007C00000F0
F003C00000F0
F003E00000F0
F001F00000F0
F000F00000F0
F000F80000F0
F0007C0000F0
F0003C0000F0
F0003E0000F0
F0001F0000F0
F0000F0000F0
F0000F8000F0
F00007C000F0
F00003C000F0
F00003E000F0
F00001F000F0
F00000F000F0
F00000F800F0
F000007C00F0
F000003C00F0
F000003E00F0
F000001F00F0
F000000F00F0
F000000F80F0
F0000007C0F0
F0000003C0F0
F0000003E0F0
F0000001F0F0
F0000000F0F0
F0000000F8F0
F00000007CF0
F00000003EF0
F00000003EF0
F00000001FF0
F00000000FF0
F00000000FF0
F000000007F0
F000000003F0
F000000003F0
F000000001F0
0000000001F0
0000000001F0
0000000001E0
0000000001E0
0000000001E0
0000000001E0
0000000003E0
0000000003C0
0000000007C0
000000000F80
000000003F80
000000FFFF00
000000FFFE00
000000FFF800
0000007FC000
ENDCHAR
STARTCHAR 014B
ENCODING 331
SWIDTH 591 0
DWIDTH 49 0
BBX 35 65 7 -20
BITMAP
0003FF0000
F01FFFE000
F07FFFF800
F0FFFFFE00
F1F8007F00
F3E0001F00
F780000F80
FF00000780
FE000003C0
FE000003C0
FC000003C0
FC000001E0
F8000001E0
F8000001E0
F8000001E0
F8000001E0
F8000001E0
F8000001E0
F0000001E0
F0000001E0
F0000001E0
F0000001E0
F0000001E0
F0000001E0
F0000001E0
F0000001E0
F0000001E0
F0000001E0
F0000001E0
F0000001E0
F0000001E0
F0000001E0
F0000001E0
F0000001E0
F0000001E0
F0000001E0
F0000001E0
F0000001E0
F0000001E0
F0000001E0
F0000001E0
F0000001E0
F0000001E0
F0000001E0
F0000001E0
00000001E0
00000001E0
00000001E0
00000001E0
00000001E0
00000001E0
00000001E0
00000001E0
00000001E0
00000001E0
00000001E0
00000001E0
00000001E0
00000003C0
00000003C0
0000000FC0
00000FFF80
00000FFF00
00000FFE00
000007F800
ENDCHAR
STARTCHAR 014C
ENCODING 332
SWIDTH 761 0
DWIDTH 63 0
BBX 53 69 5 -1
BITMAP
0000FFFFFC0000
0000FFFFFC0000
0000FFFFFC0000
00000000000000
00000000000000
00000000000000
00000000000000
00000000000000
000007FF000000
00007FFFF00000
0001FFFFFC0000
0007FFFFFF0000
001FF800FFC000
003FC0001FE000
007F000007F000
00FC000001F800
01F8000000FC00
03F00000007E00
07E00000003F00
07C00000001F00
0F800000000F80
0F800000000F80
1F0000000007C0
1F0000000003C0
3E0000000003E0
3E0000000003E0
3C0000000001E0
7C0000000001F0
7C0000000001F0
7C0000000001F0
780000000000F0
780000000000F0
780000000000F0
F80000000000F8
F80000000000F8
F80000000000F8
F80000000000F8
F80000000000F8
F80000000000F8
F80000000000F8
F80000000000F8
F80000000000F8
F80000000000F8
F80000000000F8
780000000000F0
780000000000F0
780000000000F0
7C0000000001F0
7C0000000001F0
7C0000000001F0
3C0000000001E0
3E0000000003E0
3E0000000003E0
1E0000000003C0
1F0000000007C0
0F000000000780
0F800000000F80
07C00000001F00
07E00000003F00
03E00000003E00
01F8000000FC00
00FC000001F800
007E000003F000
003F80000FE000
001FF800FFC000
0007FFFFFF0000
0003FFFFFC0000
00007FFFF00000
000007FF000000
ENDCHAR
STARTCHAR 014D
ENCODING 333
SWIDTH 591 0
DWIDTH 49 0
BBX 39 55 5 -1
BITMAP
00FFFFFC00
00FFFFFC00
00FFFFFC00
0000000000
0000000000
0000000000
0000000000
0000000000
0000000000
0001FF0000
001FFFF000
007FFFFC00
00FFFFFE00
01FC007F00
03F0001F80
07C00007C0
0F800003E0
1F000001F0
1E000001F0
3E000000F8
3C00000078
7C00000078
780000007C
780000003C
780000003C
F80000003E
F00000003E
F00000001E
F00000001E
F00000001E
F00000001E
F00000001E
F00000001E
F00000001E
F00000001E
F00000001E
F00000001E
F00000003E
F80000003E
780000003C
780000003C
780000007C
3C0000007C
3C00000078
3E000000F8
1F000001F0
1F000001F0
0F800003E0
07C00007C0
03F0001F80
01FC007F00
00FFFFFE00
003FFFFC00
000FFFF000
0001FF0000
ENDCHAR
STARTCHAR 014E
ENCODING 334
SWIDTH 761 0
DWIDTH 63 0
BBX 53 75 5 -1
BITMAP
0000E0001C0000
0000E0003C0000
0000F0003C0000
0000F000380000
00007800780000
00007C00F00000
00003FCFF00000
00001FFFE00000
00000FFF800000
000001FE000000
00000000000000
00000000000000
00000000000000
00000000000000
000007FF000000
00007FFFF00000
0001FFFFFC0000
0007FFFFFF0000
001FF800FFC000
003FC0001FE000
007F000007F000
00FC000001F800
01F8000000FC00
03F00000007E00
07E00000003F00
07C00000001F00
0F800000000F80
0F800000000F80
1F0000000007C0
1F0000000003C0
3E0000000003E0
3E0000000003E0
3C0000000001E0
7C0000000001F0
7C0000000001F0
7C0000000001F0
780000000000F0
780000000000F0
780000000000F0
F80000000000F8
F80000000000F8
F80000000000F8
F80000000000F8
F80000000000F8
F80000000000F8
F80000000000F8
F80000000000F8
F80000000000F8
F80000000000F8
F80000000000F8
780000000000F0
780000000000F0
780000000000F0
7C0000000001F0
7C0000000001F0
7C0000000001F0
3C0000000001E0
3E0000000003E0
3E0000000003E0
1E0000000003C0
1F0000000007C0
0F000000000780
0F800000000F80
07C00000001F00
07E00000003F00
03E00000003E00
01F8000000FC00
00FC000001F800
007E000003F000
003F80000FE000
001FF800FFC000
0007FFFFFF0000
0003FFFFFC0000
00007FFFF00000
000007FF000000
ENDCHAR
STARTCHAR 014F
ENCODING 335
SWIDTH 591 0
DWIDTH 49 0
BBX 39 61 5 -1
BITMAP
00E0001C00
00E0003C00
00F0003C00
00F0003800
0078007800
007C00F000
003FCFF000
001FFFE000
000FFF8000
0001FE0000
0000000000
0000000000
0000000000
0000000000
0000000000
0001FF0000
001FFFF000
007FFFFC00
00FFFFFE00
01FC007F00
03F0001F80
07C00007C0
0F800003E0
1F000001F0
1E000001F0
3E000000F8
3C00000078
7C00000078
780000007C
780000003C
780000003C
F80000003E
F00000003E
F00000001E
F00000001E
F00000001E
F00000001E
F00000001E
F00000001E
F00000001E
F00000001E
F00000001E
F00000001E
F00000003E
F80000003E
780000003C
780000003C
780000007C
3C0000007C
3C00000078
3E000000F8
1F000001F0
1F000001F0
0F800003E0
07C00007C0
03F0001F80
01FC007F00
00FFFFFE00
003FFFFC00
000FFFF000
0001FF0000
ENDCHAR
ENDFONT
